<svg enable-background="new 0 0 541.6 118.399" height="118.399" viewBox="0 0 541.6 118.399" width="541.6" xmlns="http://www.w3.org/2000/svg"><path d="m121.2 12h.4c3.462 7.2 5.2 11.337 5.2 12.4l-.8.4-1.2-.4h-.8c0 2.4 1.731 10.4 5.2 24 2.131 8.531 3.2 14.8 3.2 18.8 0 8.262-4.938 13.463-14.8 15.6-2.938 1.063-4.4 2.662-4.4 4.801-1.869 3.73-2.8 7.73-2.8 12 0 4.531 2 6.799 6 6.799h1.2c6.663 0 15.862-5.736 27.6-17.199 12.262-10.4 19.731-16.138 22.4-17.2v-.399c-.8-1.338-3.869-3.469-9.2-6.4-1.337-2.669-2-4.938-2-6.8 0-4 3.731-6.269 11.2-6.8h.4l2.8.4h.4c8.531 0 19.331 1.462 32.4 4.4v1.2c0 4.262-4 7.331-12 9.2-7.469 2.932-12.538 5.463-15.2 7.6l2.4 5.201v4.799l-.8.4c-2.4 0-4.8-1.338-7.2-4h-.8c-4.269 8.263-6.4 14.131-6.4 17.6 0 1.332.663 2.4 2 3.201h2.4c3.2 0 8.263-4 15.2-12 4.531-3.469 12.262-6.801 23.2-10 1.863-1.069 4.131-2.938 6.8-5.601-.269-1.868-.538-3.469-.8-4.8-5.869-25.869-9.2-41.731-10-47.6v-1.602c.263-3.2.8-4.8 1.6-4.8 3.462 5.337 5.2 9.337 5.2 12l-.8.4-1.2-.4v.4l8 35.2.4 5.6v1.201c-.269 8.799-4.538 14.399-12.8 16.799-10.4 2.663-18.537 7.463-24.4 14.4-4 3.731-7.069 5.6-9.2 5.6h-1.2c-2.4 0-4.4-2.799-6-8.399 0-4.538 2.663-10.938 8-19.2v-1.199c-3.2.262-14 8.531-32.4 24.799-8.538 6.932-15.469 10.4-20.8 10.4-5.6 0-8.4-3.469-8.4-10.4v-2.401c0-3.737 1.2-8.538 3.6-14.399h-.8c-4 0-11.2 4.799-21.6 14.399-2.4 1.601-4.269 2.399-5.6 2.399-4.269-.799-6.4-3.068-6.4-6.799l-.4-2.4c0-5.869 2.4-12.27 7.2-19.2l.8-3.601c-3.469-1.068-5.869-2.668-7.2-4.799l-2.8-5.6-.4-.8h-.4c-1.337.8-2.538 2.932-3.6 6.4l-4 4.799c1.863 0 3.463 2.801 4.8 8.4v1.6c0 3.201-1.869 4.801-5.6 4.801-5.337 0-8.938-2.669-10.8-8v-.801c-.8 0-2.138 2.663-4 8-7.738 7.732-17.338 13.863-28.8 18.4-9.869 3.464-17.337 5.201-22.4 5.201v-1.2c0-.537 8.4-4.137 25.2-10.8 9.862-4.538 18.531-10.399 26-17.601 2.931-7.199 4.8-10.937 5.6-11.199 7.2 0 12.8-4.27 16.8-12.8l2.4-1.2c2.663 6.4 4.663 9.6 6 9.6h.8v-.4l-1.2-6c0-7.737 4-11.6 12-11.6 1.862 0 8.4 1.462 19.6 4.4 5.6 1.6 8.4 2.663 8.4 3.2 0 3.463-2.938 5.731-8.8 6.8-9.6 6.131-18.137 10-25.6 11.6 0 2.662-1.6 6-4.8 10-2.4 4.531-3.6 8-3.6 10.4v2c0 2.662 1.063 4 3.2 4h.8c3.2 0 8.131-3.338 14.8-10 2.131-3.2 11.2-7.338 27.2-12.4 3.2-2.668 4.8-4.269 4.8-4.8-1.069-8.8-3.6-21.069-7.6-36.8l-2.8-16c0-2.4.662-4.131 2-5.2zm-79.2 89.601h.8v.399c-.8 1.063-5.737 3.462-14.8 7.2h-.4v-.801c9.331-4.537 14.131-6.798 14.4-6.798zm8-50.801c1.331 0 2.4.531 3.2 1.6v1.2h-.4v.8c-2.668-1.068-4-1.869-4-2.4v-.4zm2 46.4c1.331 0 2.931.932 4.8 2.8 0 1.601-1.068 3.2-3.2 4.8l-4.4-2.4v-.4c0-1.337.931-2.937 2.8-4.8zm4-48h.8l.8.8v.4c0 .531-.669.8-2 .8v2.4l-1.2 1.2-.4-.4c.263-3.469.931-5.2 2-5.2zm2 24.8v.8c1.6 2.932 4.531 4.4 8.8 4.4h.4v-.4c0-1.6-3.069-3.199-9.2-4.8zm3.6 21.601h.4c.8 0 2.4.799 4.8 2.399v.8c-.537 2.932-1.337 4.4-2.4 4.4-1.337 0-2.938-1.068-4.8-3.2.531-2.937 1.2-4.399 2-4.399zm2-60.001h.4c1.862 0 2.8.8 2.8 2.4-1.068 1.332-2.269 2-3.6 2h-1.6c.262-2.937.931-4.4 2-4.4zm8 69.6h2l2.4 2.4c0 1.063-2.138 1.73-6.4 2l2.8 8.799h-.8l-2.4-8v-1.199c.8-1.068 1.862-1.6 3.2-1.6 0-.538-.4-.801-1.2-.801v-.799zm39.6-88.8v.8c-.8 1.337-7.6 4.668-20.4 10-6.938 3.2-10.938 5.469-12 6.8l-.8-.8c.263-1.331 11.331-6.931 33.2-16.8zm-27.6 38c1.331 6.663 2.531 10 3.6 10 6.131 0 13.731-3.068 22.8-9.199-6.138-2.4-12.538-4-19.2-4.8-4.537.799-6.938 2.13-7.2 3.999zm8.4 51.999h.8c1.6.264 2.4.663 2.4 1.201v.4l-2.4 3.2v.4h.8l5.6-.4v.4c0 1.063-1.869 1.73-5.6 2h-1.2l-.4-.8v-2.4l1.6-2v-.4h-.8-1.2l-.8-.399zm6.8-36h.4c2.662 1.863 4 3.863 4 6l-.4.801h-.4c-1.069-2.138-2.4-4-4-5.6zm12.4-40.399 1.6 4.8c0 1.331-1.068 2-3.2 2l-2 1.2c-1.337 0-2-1.6-2-4.8v-.4h.8l1.2 2.8h1.6l-1.2-4.4.4-.4c1.063 0 1.6.938 1.6 2.8l1.2 1.2-1.2-4.4.4-.4zm16.8-30c.263 0 1.2 1.469 2.8 4.4h.8l4-3.6 1.6-.8c1.862 1.069 2.8 2.138 2.8 3.2-1.6 1.869-3.737 2.8-6.4 2.8 0 .8-.938 1.2-2.8 1.2l-1.2-1.2c-1.337.8-2.669 1.2-4 1.2h-.8l-.8-.8v-.4c2.663-.531 4-1.063 4-1.6l-.4-3.6zm1.6 82c3.2 1.331 4.8 2.132 4.8 2.399v2c-.538 2.132-1.2 3.201-2 3.201h-1.2c-2.4-1.338-3.6-2.4-3.6-3.201zm4.8-77.6h.4c1.6-.262 2.4-.662 2.4-1.2v-.4h-1.2zm4.8 6.8h.4c2.931 6.137 4.4 9.737 4.4 10.8l-.8.8-1.2-.8v.8c2.931 12.537 4.931 23.063 6 31.6.8 0 1.462 5.063 2 15.201 0 2.931-.538 5.199-1.6 6.799l-1.6-.799v-2.801l.4-.8h-.4v-2.8c-1.068-8.537-3.469-22.538-7.2-42-.538-3.462-1.2-5.2-2-5.2h.4v-.8l-1.2-5.6c.531-2.931 1.331-4.4 2.4-4.4zm18 88.8v.399c-10.4 6.663-16.538 10-18.4 10h-.8v-.799c2.663-2.138 9.063-5.337 19.2-9.6zm-5.6-70c1.6 1.069 2.4 3.738 2.4 8h-.8l-2.4-7.6.4-.4zm32-20c.8 0 1.2.269 1.2.8l-.8 1.2h-.4l-.4-.4c-5.6 3.2-12.138 4.8-19.6 4.8h-5.2c0 .8-.269 1.2-.8 1.2-1.6-2.131-2.4-3.731-2.4-4.8 3.2 1.337 5.731 2 7.6 2 6.662 0 13.6-1.6 20.8-4.8zm-23.2 49.2c.263.8 3.2 3.199 8.8 7.199 1.6 1.332 2.4 2.4 2.4 3.201l19.6-8.4c0-1.338-8.538-2.269-25.6-2.8h-1.2zm34-38 .4.4v.4c-3.469 2.4-11.469 5.469-24 9.2l-8 3.6v2h-.4c-.538 0-.8-.4-.8-1.2 0-2.931 5.2-5.6 15.6-8 10.131-4.263 15.863-6.4 17.2-6.4zm-22.8 18.4c1.331 0 2.262.663 2.8 2v.8l-1.2 1.6h-2.4c-.537 0-.8-.538-.8-1.6.531-1.6 1.063-2.537 1.6-2.8zm22.8-1.6c0 1.332-1.737 2.531-5.2 3.6-1.6-.8-2.4-2.4-2.4-4.8v-.8l.4-.4 1.6 3.2h1.2l-.8-3.2v-.8h.8c.8.269 1.2 1.331 1.2 3.2h1.2l-1.2-3.2.4-.8c1.063.269 2 1.6 2.8 4zm-4.4 62.8c2.663 1.063 4 1.863 4 2.4 0 1.6-1.869 2.4-5.6 2.4 1.863 5.33 2.8 8.799 2.8 10.399h-1.2l-2.8-9.2v-1.199c.531-1.601 1.063-2.4 1.6-2.4l-.4-.4v-.4zm14-5.199c1.6.531 2.4 1.063 2.4 1.6v.799c-1.869 1.331-2.8 2.531-2.8 3.601h2.8l6-1.601c-2.137 2.663-4.938 4-8.4 4-1.069 0-1.869-.538-2.4-1.601l1.6-4.399h-.4-1.6c.531-1.601 1.463-2.399 2.8-2.399zm8-92.801 2.4 4.4h1.2l4.4-3.2h2c1.6 0 2.4.4 2.4 1.2v.8c0 2.669-2.4 4-7.2 4l-2 .4-.8.4c0-1.063-.269-1.6-.8-1.6-1.069 1.069-2.269 1.6-3.6 1.6h-.8v-.8l3.6-1.6c-1.068-2.4-1.6-4.131-1.6-5.2l.4-.4zm34.8 91.2v.399c0 1.601-6.269 4.264-18.8 8-2.938 1.601-4.4 2.663-4.4 3.201l-2.4-.4-4.4 1.6v-.8c0-1.337 6.8-4.269 20.4-8.8 5.063-2.137 8.262-3.2 9.6-3.2zm-28-86.8h.8 2v-1.2h-.8zm3.6 7.6c2.663 5.869 4 9.737 4 11.6h-1.6c4 21.6 6 35.062 6 40.4-.537 4.531-1.337 6.801-2.4 6.801l-.4-.801.4-5.6-6-32.4.4-1.6-2.8-13.2c.8-3.462 1.6-5.2 2.4-5.2zm44.8 38.4c3.2 4 4.8 6.662 4.8 8v.4c-.8 0-1.2.262-1.2.799 2.932 7.201 4.4 11.863 4.4 14v1.201c-.538 6.399-2.669 9.6-6.4 9.6h-1.2c-3.738 0-6.538-2.138-8.4-6.4v-.4h-.8c0 4.264-2.938 7.463-8.8 9.601h-3.2c-3.469 0-5.869-3.2-7.2-9.601l.8-7.6c-1.869 2.131-3.469 7.463-4.8 16-1.6 2.4-3.069 3.731-4.4 4-3.469 0-6-5.068-7.6-15.199.262-3.739.8-5.601 1.6-5.601.531 0 .8 3.331.8 10 1.6 3.462 3.331 5.2 5.2 5.2 1.6 0 3.6-5.068 6-15.2 1.863-4.8 3.731-7.469 5.6-8 .8 1.063 1.2 2.132 1.2 3.2l-1.2 10c.263 4.531 2.263 6.8 6 6.8h.8c4 0 6.662-2.138 8-6.399l-2.4-16.4v-1.201c0-2.668.4-4 1.2-4 2.4 3.462 4.131 9.331 5.2 17.601 1.331 5.063 3.731 7.6 7.2 7.6h.4l4.4-1.6c-4.8-12-7.2-19.201-7.2-21.601v-2.8c.263-1.337.663-2 1.2-2zm259.2-13.6c1.862 1.331 2.8 4.531 2.8 9.6 3.731 8 5.6 13.463 5.6 16.4v2c0 5.861-2.269 9.199-6.8 10-2.138 0-4.669-1.469-7.6-4.4h-.4c0 2.662-2.138 4.531-6.4 5.6h-.8c-2.138 0-3.737-1.199-4.8-3.6-2.669 2.932-6.938 4.4-12.8 4.4-2.669 0-4.4-2-5.2-6h-.4c-11.2 3.463-33.069 7.6-65.6 12.4-21.338 2.663-39.869 4-55.6 4-21.338 0-39.469-2.138-54.4-6.399h-.8c0 3.462-1.469 5.199-4.4 5.199-3.2-.8-6.669-2.269-10.399-4.4-3.2 7.201-11.069 14-23.601 20.4-9.068 5.332-22.137 9.063-39.2 11.2h-3.2v-.8l36-13.2c12.262-6.138 20.663-11.601 25.2-16.399 5.063-9.338 8.801-14 11.2-14h.8l9.601 5.6c12.8 4.531 30.8 6.8 54 6.8h7.2c29.331 0 65.462-4.8 108.399-14.399 3.463-1.338 6.263-2 8.4-2v.799l-.4 1.201v.398c0 2.132 1.2 3.331 3.601 3.601h2.399c3.731 0 7.463-2 11.2-6 .531 0 .932 1.199 1.2 3.6 1.063.531 2.263.8 3.6.8h.4c1.862 0 4-2.138 6.399-6.399h.4c.263 0 .531.931.8 2.799 1.331 1.332 3.331 2.4 6 3.201 2.4-.538 3.601-1.201 3.601-2l-8-24.8c.8-3.47 1.462-5.202 2-5.202zm-281.6 1.6h.8c1.862 0 3.2 1.331 4 4v1.6c0 .262-1.069.662-3.2 1.2-1.869 3.462-4.4 5.2-7.6 5.2v-1.2c2.663-1.069 4.932-2.668 6.8-4.8v-.4c-1.337 0-2-.269-2-.8-0-3.2.4-4.8 1.2-4.8zm26-22 .4.4v.4c0 .8-6.4 4-19.2 9.6-2.938.8-5.737 2.538-8.4 5.2l.4.8-.4.4-1.2-1.2v-1.6c.8-1.863 10.263-6.531 28.4-14zm-24-8h2l1.6 2v.8c-.8 1.6-2.137 2.4-4 2.4l-.8-2c.262-2.131.663-3.2 1.2-3.2zm16.8 26.4c1.331 1.331 2 2.931 2 4.8 0 1.063-1.738 1.863-5.2 2.4-1.6-.538-2.4-1.6-2.4-3.2v-1.6l.4-.4c.8 1.862 1.462 2.8 2 2.8h.8l-.8-4.4h.8l1.2 3.6h1.2l-1.2-3.6.4-.4zm23.2-26.8h.8c1.863 0 2.801.668 2.801 2 0 3.2-2.138 4.8-6.4 4.8l-5.6-1.2v2h-.801l-.8-.8c0-2.4.932-3.731 2.8-4l2.4 1.2c.8-1.331 2.4-2.662 4.8-4zm-7.2 12c3.2 5.6 4.801 9.2 4.801 10.8v1.2l-.4.8-.8-.8h-.4v.8c3.2 19.731 4.8 32.532 4.8 38.4v2.399c0 3.201-.938 5.201-2.8 6h-.401v-.799l.399-7.201-2-13.199-4.8-30-.4-2.4v-1.6c.532-2.931 1.201-4.4 2.001-4.4zm4.8-8v.4l3.199-.8v-1.2h-.399c-1.869.269-2.8.8-2.8 1.6zm39.6 76c-1.6 1.063-11.6 5.2-30 12.4l-.4-.4v-.4c.531-1.6 10.4-5.737 29.6-12.4zm-28.4-31.6c1.863 0 2.801 1.063 2.801 3.199v.4l-.801 1.201c0-.8-.938-1.337-2.8-1.601l-.8-.799v-.4c.263-1.338.8-2 1.6-2zm2.8-16.8 1.2 1.6v.8c0 .262-.668.4-2 .4l.8.8h3.6v.8c0 1.6-2.4 2.931-7.2 4v-.4l1.601-2-1.601-1.6v-.8c.531-2.4 1.731-3.6 3.6-3.6zm2.8 15.2 1.6.8v.8c0 .8-.537 1.199-1.6 1.199v2l-.8 2h-.4v-5.199zm0 21.6c2.399 1.862 4.8 2.8 7.2 2.8-1.069-2.399-2.538-3.601-4.4-3.601-1.869.264-2.8.532-2.8.801zm9.2 21.6h.8c2.131 0 3.2 1.063 3.2 3.2 0 .8-1.601 1.331-4.801 1.601v1.199l2 7.2h-.399c-.269 0-1.469-2.669-3.601-8 0-1.069.663-2 2-2.8v-.4-.4zm198.8-11.6h.8v.4c0 2.131-1.338 3.199-4 3.199l-1.2.4h-2.4-.4c-5.6 4.531-9.2 6.8-10.8 6.8v-.399l6.8-5.201 4.4-3.6 4 .4v-.4l.8-1.199.8 1.2zm-4-52.4c1.331.531 2 1.462 2 2.8v.4c0 1.063-1.069 1.863-3.2 2.4h-.4c-.8 0-1.199-.8-1.199-2.4 1.062-1.869 1.999-2.937 2.799-3.2zm-1.2 2-.4.8.8.4h.399l.8-.4zm1.2 13.6c1.862.8 2.8 2.131 2.8 4h-.8-.4c0-.269-.8-.668-2.399-1.2v-2zm6-.4.399 1.2v1.2c-1.068 0-1.6.663-1.6 2h-1.2c.532-2.938 1.332-4.4 2.401-4.4zm30.4 46c-1.068 1.601-12 5.731-32.8 12.399v-.799c1.6-1.337 12.531-5.201 32.8-11.6zm-16.4-9.2h.399c1.863 0 3.731 1.2 5.601 3.6 0 1.863-.8 3.332-2.4 4.4h-.4c-1.338 0-2.938-1.068-4.801-3.199v-.4z" fill="#016937"/></svg>