<svg xmlns="http://www.w3.org/2000/svg" xmlns:xlink="http://www.w3.org/1999/xlink" id="Layer_1" width="541.6" height="118.399" x="0" y="0" enable-background="new 0 0 541.6 118.399" version="1.1" viewBox="0 0 541.6 118.399" xml:space="preserve"><g><path fill="#016937" d="M121.2,12h0.4c3.462,7.2,5.2,11.337,5.2,12.4l-0.8,0.4l-1.2-0.4H124c0,2.4,1.731,10.4,5.2,24 c2.131,8.531,3.2,14.8,3.2,18.8c0,8.262-4.938,13.463-14.8,15.6c-2.938,1.063-4.4,2.662-4.4,4.801c-1.869,3.73-2.8,7.73-2.8,12 c0,4.531,2,6.799,6,6.799h1.2c6.663,0,15.862-5.736,27.6-17.199c12.262-10.4,19.731-16.138,22.4-17.2v-0.399 c-0.8-1.338-3.869-3.469-9.2-6.4c-1.337-2.669-2-4.938-2-6.8c0-4,3.731-6.269,11.2-6.8h0.4l2.8,0.4h0.4 c8.531,0,19.331,1.462,32.4,4.4v1.2c0,4.262-4,7.331-12,9.2c-7.469,2.932-12.538,5.463-15.2,7.6l2.4,5.201v4.799l-0.8,0.4 c-2.4,0-4.8-1.338-7.2-4H170c-4.269,8.263-6.4,14.131-6.4,17.6c0,1.332,0.663,2.4,2,3.201h2.4c3.2,0,8.263-4,15.2-12 c4.531-3.469,12.262-6.801,23.2-10c1.863-1.069,4.131-2.938,6.8-5.601c-0.269-1.868-0.538-3.469-0.8-4.8 c-5.869-25.869-9.2-41.731-10-47.6V20c0.263-3.2,0.8-4.8,1.6-4.8c3.462,5.337,5.2,9.337,5.2,12l-0.8,0.4l-1.2-0.4v0.4l8,35.2 l0.4,5.6v1.201c-0.269,8.799-4.538,14.399-12.8,16.799c-10.4,2.663-18.537,7.463-24.4,14.4c-4,3.731-7.069,5.6-9.2,5.6H168 c-2.4,0-4.4-2.799-6-8.399c0-4.538,2.663-10.938,8-19.2v-1.199c-3.2,0.262-14,8.531-32.4,24.799 c-8.538,6.932-15.469,10.4-20.8,10.4c-5.6,0-8.4-3.469-8.4-10.4V100c0-3.737,1.2-8.538,3.6-14.399h-0.8 c-4,0-11.2,4.799-21.6,14.399c-2.4,1.601-4.269,2.399-5.6,2.399c-4.269-0.799-6.4-3.068-6.4-6.799l-0.4-2.4 c0-5.869,2.4-12.27,7.2-19.2l0.8-3.601c-3.469-1.068-5.869-2.668-7.2-4.799L75.2,60l-0.4-0.8h-0.4c-1.337,0.8-2.538,2.932-3.6,6.4 l-4,4.799c1.863,0,3.463,2.801,4.8,8.4v1.6c0,3.201-1.869,4.801-5.6,4.801c-5.337,0-8.938-2.669-10.8-8v-0.801 c-0.8,0-2.138,2.663-4,8c-7.738,7.732-17.338,13.863-28.8,18.4C12.531,106.263,5.063,108,0,108v-1.2c0-0.537,8.4-4.137,25.2-10.8 c9.862-4.538,18.531-10.399,26-17.601C54.131,71.2,56,67.462,56.8,67.2c7.2,0,12.8-4.27,16.8-12.8l2.4-1.2 c2.663,6.4,4.663,9.6,6,9.6h0.8v-0.4l-1.2-6c0-7.737,4-11.6,12-11.6c1.862,0,8.4,1.462,19.6,4.4c5.6,1.6,8.4,2.663,8.4,3.2 c0,3.463-2.938,5.731-8.8,6.8c-9.6,6.131-18.137,10-25.6,11.6c0,2.662-1.6,6-4.8,10c-2.4,4.531-3.6,8-3.6,10.4v2 c0,2.662,1.063,4,3.2,4h0.8c3.2,0,8.131-3.338,14.8-10c2.131-3.2,11.2-7.338,27.2-12.4c3.2-2.668,4.8-4.269,4.8-4.8 c-1.069-8.8-3.6-21.069-7.6-36.8l-2.8-16C119.2,14.8,119.862,13.069,121.2,12z M42,101.601h0.8V102 c-0.8,1.063-5.737,3.462-14.8,7.2h-0.4v-0.801C36.931,103.862,41.731,101.601,42,101.601z M50,50.8c1.331,0,2.4,0.531,3.2,1.6v1.2 h-0.4v0.8c-2.668-1.068-4-1.869-4-2.4v-0.4L50,50.8z M52,97.2c1.331,0,2.931,0.932,4.8,2.8c0,1.601-1.068,3.2-3.2,4.8l-4.4-2.4V102 C49.2,100.663,50.131,99.063,52,97.2z M56,49.2h0.8l0.8,0.8v0.4c0,0.531-0.669,0.8-2,0.8v2.4l-1.2,1.2L54,54.4 C54.263,50.931,54.931,49.2,56,49.2z M58,74v0.8c1.6,2.932,4.531,4.4,8.8,4.4h0.4v-0.4C67.2,77.2,64.131,75.601,58,74z M61.6,95.601H62c0.8,0,2.4,0.799,4.8,2.399v0.8c-0.537,2.932-1.337,4.4-2.4,4.4c-1.337,0-2.938-1.068-4.8-3.2 C60.131,97.063,60.8,95.601,61.6,95.601z M63.6,35.6H64c1.862,0,2.8,0.8,2.8,2.4c-1.068,1.332-2.269,2-3.6,2h-1.6 C61.862,37.063,62.531,35.6,63.6,35.6z M71.6,105.2h2l2.4,2.4c0,1.063-2.138,1.73-6.4,2l2.8,8.799h-0.8l-2.4-8V109.2 c0.8-1.068,1.862-1.6,3.2-1.6c0-0.538-0.4-0.801-1.2-0.801V106L71.6,105.2z M111.2,16.4v0.8c-0.8,1.337-7.6,4.668-20.4,10 c-6.938,3.2-10.938,5.469-12,6.8L78,33.2C78.263,31.869,89.331,26.269,111.2,16.4z M83.6,54.4c1.331,6.663,2.531,10,3.6,10 c6.131,0,13.731-3.068,22.8-9.199c-6.138-2.4-12.538-4-19.2-4.8C86.263,51.2,83.862,52.531,83.6,54.4z M92,106.399h0.8 c1.6,0.264,2.4,0.663,2.4,1.201V108l-2.4,3.2v0.4h0.8l5.6-0.4v0.4c0,1.063-1.869,1.73-5.6,2h-1.2L92,112.8v-2.4l1.6-2V108h-0.8 h-1.2l-0.8-0.399L92,106.399z M98.8,70.399h0.4c2.662,1.863,4,3.863,4,6l-0.4,0.801h-0.4c-1.069-2.138-2.4-4-4-5.6L98.8,70.399z M111.2,30l1.6,4.8c0,1.331-1.068,2-3.2,2l-2,1.2c-1.337,0-2-1.6-2-4.8v-0.4h0.8l1.2,2.8h1.6l-1.2-4.4l0.4-0.4 c1.063,0,1.6,0.938,1.6,2.8l1.2,1.2l-1.2-4.4l0.4-0.4H111.2z M128,0c0.263,0,1.2,1.469,2.8,4.4h0.8l4-3.6l1.6-0.8 c1.862,1.069,2.8,2.138,2.8,3.2c-1.6,1.869-3.737,2.8-6.4,2.8c0,0.8-0.938,1.2-2.8,1.2L129.6,6c-1.337,0.8-2.669,1.2-4,1.2h-0.8 L124,6.4V6c2.663-0.531,4-1.063,4-1.6l-0.4-3.6L128,0z M129.6,82c3.2,1.331,4.8,2.132,4.8,2.399v2c-0.538,2.132-1.2,3.201-2,3.201 h-1.2c-2.4-1.338-3.6-2.4-3.6-3.201L129.6,82z M134.4,4.4h0.4c1.6-0.262,2.4-0.662,2.4-1.2V2.8H136L134.4,4.4z M139.2,11.2h0.4 c2.931,6.137,4.4,9.737,4.4,10.8l-0.8,0.8L142,22v0.8c2.931,12.537,4.931,23.063,6,31.6c0.8,0,1.462,5.063,2,15.201 c0,2.931-0.538,5.199-1.6,6.799l-1.6-0.799V72.8l0.4-0.8h-0.4v-2.8c-1.068-8.537-3.469-22.538-7.2-42c-0.538-3.462-1.2-5.2-2-5.2 h0.4v-0.8l-1.2-5.6C137.331,12.669,138.131,11.2,139.2,11.2z M157.2,100v0.399c-10.4,6.663-16.538,10-18.4,10H138v-0.799 C140.663,107.462,147.063,104.263,157.2,100z M151.6,30c1.6,1.069,2.4,3.738,2.4,8h-0.8l-2.4-7.6l0.4-0.4H151.6z M183.6,10 c0.8,0,1.2,0.269,1.2,0.8L184,12h-0.4l-0.4-0.4c-5.6,3.2-12.138,4.8-19.6,4.8h-5.2c0,0.8-0.269,1.2-0.8,1.2 c-1.6-2.131-2.4-3.731-2.4-4.8c3.2,1.337,5.731,2,7.6,2C169.462,14.8,176.4,13.2,183.6,10z M160.4,59.2 c0.263,0.8,3.2,3.199,8.8,7.199c1.6,1.332,2.4,2.4,2.4,3.201l19.6-8.4c0-1.338-8.538-2.269-25.6-2.8h-1.2L160.4,59.2z M194.4,21.2 l0.4,0.4V22c-3.469,2.4-11.469,5.469-24,9.2l-8,3.6v2h-0.4c-0.538,0-0.8-0.4-0.8-1.2c0-2.931,5.2-5.6,15.6-8 C187.331,23.337,193.063,21.2,194.4,21.2z M171.6,39.6c1.331,0,2.262,0.663,2.8,2v0.8l-1.2,1.6h-2.4c-0.537,0-0.8-0.538-0.8-1.6 C170.531,40.8,171.063,39.863,171.6,39.6z M194.4,38c0,1.332-1.737,2.531-5.2,3.6c-1.6-0.8-2.4-2.4-2.4-4.8V36l0.4-0.4l1.6,3.2h1.2 l-0.8-3.2v-0.8h0.8c0.8,0.269,1.2,1.331,1.2,3.2h1.2l-1.2-3.2l0.4-0.8C192.663,34.269,193.6,35.6,194.4,38z M190,100.8 c2.663,1.063,4,1.863,4,2.4c0,1.6-1.869,2.4-5.6,2.4c1.863,5.33,2.8,8.799,2.8,10.399H190l-2.8-9.2v-1.199 c0.531-1.601,1.063-2.4,1.6-2.4l-0.4-0.4v-0.4L190,100.8z M204,95.601c1.6,0.531,2.4,1.063,2.4,1.6V98 c-1.869,1.331-2.8,2.531-2.8,3.601h2.8l6-1.601c-2.137,2.663-4.938,4-8.4,4c-1.069,0-1.869-0.538-2.4-1.601L203.2,98h-0.4h-1.6 C201.731,96.399,202.663,95.601,204,95.601z M212,2.8l2.4,4.4h1.2L220,4h2c1.6,0,2.4,0.4,2.4,1.2V6c0,2.669-2.4,4-7.2,4l-2,0.4 l-0.8,0.4c0-1.063-0.269-1.6-0.8-1.6c-1.069,1.069-2.269,1.6-3.6,1.6h-0.8V10l3.6-1.6c-1.068-2.4-1.6-4.131-1.6-5.2l0.4-0.4H212z M246.8,94v0.399c0,1.601-6.269,4.264-18.8,8c-2.938,1.601-4.4,2.663-4.4,3.201l-2.4-0.4l-4.4,1.6V106c0-1.337,6.8-4.269,20.4-8.8 C242.263,95.063,245.462,94,246.8,94z M218.8,7.2h0.8h2V6h-0.8L218.8,7.2z M222.4,14.8c2.663,5.869,4,9.737,4,11.6h-1.6 c4,21.6,6,35.062,6,40.4c-0.537,4.531-1.337,6.801-2.4,6.801L228,72.8l0.4-5.6l-6-32.4l0.4-1.6L220,20 C220.8,16.538,221.6,14.8,222.4,14.8z M267.2,53.2c3.2,4,4.8,6.662,4.8,8v0.4c-0.8,0-1.2,0.262-1.2,0.799 c2.932,7.201,4.4,11.863,4.4,14v1.201c-0.538,6.399-2.669,9.6-6.4,9.6h-1.2c-3.738,0-6.538-2.138-8.4-6.4v-0.4h-0.8 c0,4.264-2.938,7.463-8.8,9.601h-3.2c-3.469,0-5.869-3.2-7.2-9.601l0.8-7.6c-1.869,2.131-3.469,7.463-4.8,16 c-1.6,2.4-3.069,3.731-4.4,4c-3.469,0-6-5.068-7.6-15.199C223.462,73.862,224,72,224.8,72c0.531,0,0.8,3.331,0.8,10 c1.6,3.462,3.331,5.2,5.2,5.2c1.6,0,3.6-5.068,6-15.2c1.863-4.8,3.731-7.469,5.6-8c0.8,1.063,1.2,2.132,1.2,3.2l-1.2,10 c0.263,4.531,2.263,6.8,6,6.8h0.8c4,0,6.662-2.138,8-6.399l-2.4-16.4V60c0-2.668,0.4-4,1.2-4c2.4,3.462,4.131,9.331,5.2,17.601 c1.331,5.063,3.731,7.6,7.2,7.6h0.4l4.4-1.6c-4.8-12-7.2-19.201-7.2-21.601v-2.8C266.263,53.863,266.663,53.2,267.2,53.2z M526.4,39.6c1.862,1.331,2.8,4.531,2.8,9.6c3.731,8,5.6,13.463,5.6,16.4v2c0,5.861-2.269,9.199-6.8,10 c-2.138,0-4.669-1.469-7.6-4.4H520c0,2.662-2.138,4.531-6.4,5.6h-0.8c-2.138,0-3.737-1.199-4.8-3.6 c-2.669,2.932-6.938,4.4-12.8,4.4c-2.669,0-4.4-2-5.2-6h-0.4C478.4,77.063,456.531,81.2,424,86c-21.338,2.663-39.869,4-55.6,4 c-21.338,0-39.469-2.138-54.4-6.399h-0.8c0,3.462-1.469,5.199-4.4,5.199c-3.2-0.8-6.669-2.269-10.399-4.4 c-3.2,7.201-11.069,14-23.601,20.4c-9.068,5.332-22.137,9.063-39.2,11.2h-3.2v-0.8l36-13.2c12.262-6.138,20.663-11.601,25.2-16.399 c5.063-9.338,8.801-14,11.2-14h0.8l9.601,5.6c12.8,4.531,30.8,6.8,54,6.8h7.2c29.331,0,65.462-4.8,108.399-14.399 c3.463-1.338,6.263-2,8.4-2v0.799l-0.4,1.201V70c0,2.132,1.2,3.331,3.601,3.601h2.399c3.731,0,7.463-2,11.2-6 c0.531,0,0.932,1.199,1.2,3.6c1.063,0.531,2.263,0.8,3.6,0.8h0.4c1.862,0,4-2.138,6.399-6.399h0.4c0.263,0,0.531,0.931,0.8,2.799 c1.331,1.332,3.331,2.4,6,3.201c2.4-0.538,3.601-1.201,3.601-2l-8-24.8C525.2,41.332,525.862,39.6,526.4,39.6z M244.8,41.2h0.8 c1.862,0,3.2,1.331,4,4v1.6c0,0.262-1.069,0.662-3.2,1.2c-1.869,3.462-4.4,5.2-7.6,5.2V52c2.663-1.069,4.932-2.668,6.8-4.8v-0.4 c-1.337,0-2-0.269-2-0.8C243.6,42.8,244,41.2,244.8,41.2z M270.8,19.2l0.4,0.4V20c0,0.8-6.4,4-19.2,9.6 c-2.938,0.8-5.737,2.538-8.4,5.2l0.4,0.8l-0.4,0.4l-1.2-1.2v-1.6C243.2,31.337,252.663,26.669,270.8,19.2z M246.8,11.2h2l1.6,2V14 c-0.8,1.6-2.137,2.4-4,2.4l-0.8-2C245.862,12.269,246.263,11.2,246.8,11.2z M263.6,37.6c1.331,1.331,2,2.931,2,4.8 c0,1.063-1.738,1.863-5.2,2.4c-1.6-0.538-2.4-1.6-2.4-3.2V40l0.4-0.4c0.8,1.862,1.462,2.8,2,2.8h0.8l-0.8-4.4h0.8l1.2,3.6h1.2 l-1.2-3.6l0.4-0.4H263.6z M286.8,10.8h0.8c1.863,0,2.801,0.668,2.801,2c0,3.2-2.138,4.8-6.4,4.8l-5.6-1.2v2H277.6l-0.8-0.8 c0-2.4,0.932-3.731,2.8-4l2.4,1.2C282.8,13.469,284.4,12.138,286.8,10.8z M279.6,22.8c3.2,5.6,4.801,9.2,4.801,10.8v1.2l-0.4,0.8 l-0.8-0.8h-0.4v0.8c3.2,19.731,4.8,32.532,4.8,38.4v2.399c0,3.201-0.938,5.201-2.8,6H284.4v-0.799l0.399-7.201l-2-13.199l-4.8-30 l-0.4-2.4v-1.6C278.131,24.269,278.8,22.8,279.6,22.8z M284.4,14.8v0.4l3.199-0.8v-1.2H287.2C285.331,13.469,284.4,14,284.4,14.8z M324,90.8c-1.6,1.063-11.6,5.2-30,12.4l-0.4-0.4v-0.4C294.131,100.8,304,96.663,323.2,90L324,90.8z M295.6,59.2 c1.863,0,2.801,1.063,2.801,3.199v0.4L297.6,64c0-0.8-0.938-1.337-2.8-1.601l-0.8-0.799v-0.4C294.263,59.862,294.8,59.2,295.6,59.2 z M298.4,42.4L299.6,44v0.8c0,0.262-0.668,0.4-2,0.4L298.4,46h3.6v0.8c0,1.6-2.4,2.931-7.2,4v-0.4l1.601-2l-1.601-1.6V46 C295.331,43.6,296.531,42.4,298.4,42.4z M301.2,57.6l1.6,0.8v0.8c0,0.8-0.537,1.199-1.6,1.199v2l-0.8,2H300V59.2L301.2,57.6z M301.2,79.2c2.399,1.862,4.8,2.8,7.2,2.8c-1.069-2.399-2.538-3.601-4.4-3.601C302.131,78.663,301.2,78.931,301.2,79.2z M310.4,100.8h0.8c2.131,0,3.2,1.063,3.2,3.2c0,0.8-1.601,1.331-4.801,1.601v1.199l2,7.2H311.2c-0.269,0-1.469-2.669-3.601-8 c0-1.069,0.663-2,2-2.8v-0.4v-0.4L310.4,100.8z M509.2,89.2h0.8v0.4c0,2.131-1.338,3.199-4,3.199l-1.2,0.4H502.4H502 c-5.6,4.531-9.2,6.8-10.8,6.8v-0.399l6.8-5.201l4.4-3.6l4,0.4v-0.4l0.8-1.199L508,90.8L509.2,89.2z M505.2,36.8 c1.331,0.531,2,1.462,2,2.8V40c0,1.063-1.069,1.863-3.2,2.4h-0.4c-0.8,0-1.199-0.8-1.199-2.4 C503.463,38.131,504.4,37.063,505.2,36.8z M504,38.8l-0.4,0.8L504.4,40h0.399l0.8-0.4L504,38.8z M505.2,52.4 c1.862,0.8,2.8,2.131,2.8,4h-0.8h-0.4c0-0.269-0.8-0.668-2.399-1.2v-2L505.2,52.4z M511.2,52l0.399,1.2v1.2 c-1.068,0-1.6,0.663-1.6,2h-1.2C509.331,53.462,510.131,52,511.2,52z M541.6,98c-1.068,1.601-12,5.731-32.8,12.399v-0.799 C510.4,108.263,521.331,104.399,541.6,98z M525.2,88.8h0.399c1.863,0,3.731,1.2,5.601,3.6c0,1.863-0.8,3.332-2.4,4.4H528.4 c-1.338,0-2.938-1.068-4.801-3.199v-0.4L525.2,88.8z"/></g></svg>