<svg xmlns="http://www.w3.org/2000/svg" width="512" height="512" enable-background="new 0 0 512 512" viewBox="0 0 512 512"><g><circle cx="256" cy="256" r="256" fill="#ff6c6c"/><path fill="#e63950" d="m512 256c0-140.61-115.39-256-256-256v512c140.61 0 256-115.39 256-256z"/><path fill="#fff5f5" d="m450.242 241c-1.88-24.628-8.348-47.908-18.528-69.128l-25.32-11.362 10.443-14.689c-13.623-19.849-30.809-37.035-50.658-50.658l-16.668 10.443-9.382-25.32c-21.22-10.181-44.5-16.648-69.128-18.528l-15.001 14.242-15-14.242c-24.628 1.88-47.908 8.348-69.128 18.528l-2.362 25.32-23.688-10.443c-19.849 13.623-37.035 30.809-50.658 50.658l10.443 14.689-25.32 11.362c-10.181 21.22-16.648 44.5-18.528 69.128l14.241 15-14.242 15c1.88 24.626 8.348 47.906 18.528 69.126l25.32 11.364-10.443 14.689c13.623 19.847 30.811 37.033 50.658 50.656l14.689-4.44 11.36 19.319c21.22 10.181 44.502 16.648 69.13 18.528l15-14.242 15 14.242c24.628-1.88 47.91-8.348 69.13-18.528l.381-25.32 25.668 10.441c19.847-13.623 37.035-30.809 50.658-50.656l-10.443-19.669 25.32-6.383c10.181-21.22 16.648-44.5 18.528-69.126l-14.242-15.001z"/><path fill="#efe2dd" d="m340.13 431.714.381-25.32 25.668 10.441c19.847-13.623 37.035-30.809 50.658-50.656l-10.443-19.669 25.32-6.383c10.181-21.22 16.648-44.5 18.528-69.126l-14.242-15.001 14.242-15c-1.88-24.628-8.348-47.908-18.528-69.128l-25.32-11.362 10.443-14.689c-13.623-19.849-30.809-37.035-50.658-50.658l-16.668 10.443-9.382-25.32c-21.22-10.181-44.5-16.648-69.128-18.528l-15.001 14.242v360l15 14.242c24.628-1.881 47.91-8.348 69.13-18.528z"/><path fill="#613d5c" d="m106 256c0-8.286-6.716-15-15-15h-29.242c-.379 4.966-.758 9.935-.758 15s.379 10.034.758 15h29.242c8.284 0 15-6.716 15-15z"/><path fill="#613d5c" d="m181 126.096c7.174-4.142 9.633-13.315 5.49-20.49l-14.617-25.32c-9.069 4.351-17.825 9.232-26.05 14.877l14.689 25.443c4.14 7.174 13.314 9.632 20.488 5.49z"/><path fill="#613d5c" d="m126.096 331c-4.142-7.174-13.315-9.633-20.49-5.491l-25.32 14.617c4.351 9.067 9.232 17.827 14.877 26.052l25.443-14.689c7.174-4.141 9.632-13.315 5.49-20.489z"/><path fill="#613d5c" d="m126.096 181c4.142-7.174 1.685-16.348-5.49-20.49l-25.443-14.689c-5.645 8.225-10.527 16.981-14.877 26.05l25.32 14.617c7.174 4.145 16.348 1.686 20.49-5.488z"/><path fill="#613d5c" d="m181 385.904c-7.174-4.144-16.348-1.685-20.49 5.49l-14.689 25.441c8.227 5.645 16.979 10.529 26.049 14.879l14.619-25.32c4.144-7.174 1.685-16.348-5.489-20.49z"/><g fill="#613d5c"><path d="m256 406c-8.284 0-15 6.714-15 15v29.242c4.966.379 9.935.758 15 .758s10.034-.379 15-.758v-29.242c0-8.286-6.716-15-15-15z"/><path d="m256 61c-5.065 0-10.034.379-15 .758v29.242c0 8.284 6.716 15 15 15s15-6.716 15-15v-29.242c-4.966-.379-9.935-.758-15-.758z"/></g><g fill="#4b2746"><path d="m271 421c0-8.286-6.716-15-15-15v45c5.065 0 10.034-.379 15-.758z"/><path d="m271 91v-29.242c-4.966-.379-9.935-.758-15-.758v45c8.284 0 15-6.716 15-15z"/><path d="m450.242 241h-29.242c-8.284 0-15 6.714-15 15 0 8.284 6.716 15 15 15h29.242c.379-4.966.758-9.935.758-15s-.379-10.034-.758-15z"/><path d="m331 385.904c-7.174 4.142-9.633 13.315-5.49 20.49l14.619 25.32c9.069-4.351 17.822-9.234 26.049-14.879l-14.689-25.441c-4.141-7.174-13.315-9.634-20.489-5.49z"/><path d="m385.904 181c4.142 7.174 13.315 9.633 20.49 5.49l25.32-14.617c-4.351-9.069-9.232-17.825-14.877-26.05l-25.443 14.689c-7.174 4.14-9.632 13.314-5.49 20.488z"/><path d="m385.904 331c-4.142 7.174-1.685 16.348 5.49 20.49l25.443 14.689c5.645-8.225 10.527-16.985 14.877-26.052l-25.32-14.617c-7.174-4.143-16.348-1.684-20.49 5.49z"/><path d="m331 126.096c7.174 4.142 16.348 1.685 20.49-5.49l14.689-25.443c-8.225-5.645-16.981-10.527-26.05-14.877l-14.617 25.32c-4.145 7.174-1.686 16.348 5.488 20.49z"/></g><path fill="#613d5c" d="m316 241h-45v-75c0-8.291-6.709-15-15-15s-15 6.709-15 15v75h-15c-8.291 0-15 6.709-15 15s6.709 15 15 15h15v15c0 8.291 6.709 15 15 15s15-6.709 15-15v-15h45c8.291 0 15-6.709 15-15s-6.709-15-15-15z"/><path fill="#4b2746" d="m316 241h-45v-75c0-8.291-6.709-15-15-15v90 30 30c8.291 0 15-6.709 15-15v-15h45c8.291 0 15-6.709 15-15s-6.709-15-15-15z"/></g></svg>