<svg xmlns="http://www.w3.org/2000/svg" width="512" height="512" enable-background="new 0 0 512 512" viewBox="0 0 512 512"><g><path fill="#613d5c" d="m507.499 245.499-65.499-65.999v-94.5c0-8.099-6.899-15-15-15h-94.5l-66-65.501c-2.7-2.999-6.6-4.499-10.5-4.499s-7.8 1.5-10.499 4.499l-66.001 65.501h-94.5c-8.101 0-15 6.901-15 15v94.5l-65.499 65.999c-6 5.7-6 15.3 0 21l65.499 66.001v94.5c0 8.101 6.899 15 15 15h94.5l66 65.499c2.7 3.001 6.6 4.501 10.5 4.501s7.8-1.5 10.499-4.501l66-65.499h94.501c8.101 0 15-6.899 15-15v-94.5l65.499-66c6.001-5.701 6.001-15.301 0-21.001z"/><path fill="#4b2746" d="m507.499 266.499-65.499 66.001v94.5c0 8.101-6.899 15-15 15h-94.5l-66 65.499c-2.7 3.001-6.6 4.501-10.5 4.501v-512c3.9 0 7.8 1.5 10.499 4.499l66.001 65.501h94.5c8.101 0 15 6.901 15 15v94.5l65.499 65.999c6.001 5.7 6.001 15.3 0 21z"/><path fill="#ff6c6c" d="m475.699 256-63.699 64.2v91.8h-91.8l-64.2 63.699-64.2-63.699h-91.8v-91.8l-63.699-64.2 63.699-64.2v-91.8h91.8l64.2-63.701 64.2 63.701h91.8v91.8z"/><path fill="#e63950" d="m475.699 256-63.699 64.2v91.8h-91.8l-64.2 63.699v-439.4l64.2 63.701h91.8v91.8z"/><path fill="#fed843" d="m331 256v91c0 24.899-20.099 45-45 45-11.7 0-21.899-4.501-30-11.7-8.101 7.2-18.3 11.7-30 11.7-24.901 0-45-20.101-45-45v-61c0-8.401-6.599-15-15-15s-15 6.599-15 15c0 8.399-6.599 15-15 15s-15-6.601-15-15c0-24.901 20.099-45 45-45s45 20.099 45 45v61c0 8.399 6.599 15 15 15s15-6.601 15-15v-91c0-8.401 6.599-15 15-15s15 6.599 15 15v91c0 8.399 6.599 15 15 15s15-6.601 15-15v-91c0-8.401 6.599-15 15-15s15 6.599 15 15z"/><path fill="#fabe2c" d="m391 256v121c0 8.399-6.599 15-15 15s-15-6.601-15-15v-121c0-8.401 6.599-15 15-15s15 6.599 15 15z"/><path fill="#fed843" d="m271 90v15c0 8.399-6.599 15-15 15s-15-6.601-15-15v-15c0-8.401 6.599-15 15-15s15 6.599 15 15z"/><path fill="#fed843" d="m331 150v16c0 24.899-20.099 45-45 45-11.7 0-21.899-4.501-30-11.7-8.101 7.2-18.3 11.7-30 11.7-24.901 0-45-20.101-45-45v-16c0-8.401 6.599-15 15-15s15 6.599 15 15v16c0 8.399 6.599 15 15 15s15-6.601 15-15v-16c0-8.401 6.599-15 15-15s15 6.599 15 15v16c0 8.399 6.599 15 15 15s15-6.601 15-15v-16c0-8.401 6.599-15 15-15s15 6.599 15 15z"/><g fill="#fabe2c"><path d="m256 120v-45c8.401 0 15 6.599 15 15v15c0 8.399-6.599 15-15 15z"/><path d="m331 150v16c0 24.899-20.099 45-45 45-11.7 0-21.899-4.501-30-11.7v-64.3c8.401 0 15 6.599 15 15v16c0 8.399 6.599 15 15 15s15-6.601 15-15v-16c0-8.401 6.599-15 15-15s15 6.599 15 15z"/><path d="m331 256v91c0 24.899-20.099 45-45 45-11.7 0-21.899-4.501-30-11.7v-139.3c8.401 0 15 6.599 15 15v91c0 8.399 6.599 15 15 15s15-6.601 15-15v-91c0-8.401 6.599-15 15-15s15 6.599 15 15z"/></g></g></svg>