<svg xmlns="http://www.w3.org/2000/svg" width="512" height="512" enable-background="new 0 0 512 512" viewBox="0 0 512 512"><g><path fill="#fabe2c" d="m406 90c-8.291 0-15-6.709-15-15v-60c0-8.291 6.709-15 15-15s15 6.709 15 15v60c0 8.291-6.709 15-15 15z"/><path fill="#fabe2c" d="m436 60h-60c-8.291 0-15-6.709-15-15s6.709-15 15-15h60c8.291 0 15 6.709 15 15s-6.709 15-15 15z"/><g><path fill="#efe2dd" d="m301 241h-45-45l-30 30v60h75 75v-60z"/><path fill="#cdbfba" d="m331 271-30-30h-45v90h75z"/><path fill="#fed843" d="m289.545 45c-7.412-3.691-16.406-.703-20.127 6.709-2.564 5.112-7.705 8.291-13.418 8.291-8.276 0-15-6.724-15-15s6.724-15 15-15c8.291 0 15-6.709 15-15s-6.709-15-15-15c-24.814 0-45 20.186-45 45 0 19.53 12.578 36.024 30 42.237v17.763c0 8.291 6.709 15 15 15s15-6.709 15-15v-17.858c10.754-3.81 19.924-11.376 25.254-22.015 3.706-7.398.703-16.406-6.709-20.127z"/><g fill="#fabe2c"><path d="m271 15c0-8.291-6.709-15-15-15v30c8.291 0 15-6.709 15-15z"/><path d="m271 105v-17.858c10.754-3.81 19.924-11.376 25.254-22.015 3.706-7.397.703-16.406-6.709-20.127-7.412-3.691-16.406-.703-20.127 6.709-2.564 5.112-7.705 8.291-13.418 8.291v60c8.291 0 15-6.709 15-15z"/></g></g><path fill="#fff5f5" d="m346 301h-90-90c-8.284 0-15 6.716-15 15v75h105 105v-75c0-8.284-6.716-15-15-15z"/><path fill="#efe2dd" d="m361 316c0-8.284-6.716-15-15-15h-90v90h105z"/><path fill="#fed843" d="m136 91h-15v-15c0-8.291-6.709-15-15-15s-15 6.709-15 15v15h-15c-8.291 0-15 6.709-15 15s6.709 15 15 15h15v15c0 8.291 6.709 15 15 15s15-6.709 15-15v-15h15c8.291 0 15-6.709 15-15s-6.709-15-15-15z"/><path fill="#ff6c6c" d="m263.925 92.271c-2.417-1.509-5.171-2.263-7.925-2.263s-5.508.754-7.925 2.263c-16.216 10.092-97.075 63.871-97.075 111.229 0 25.327 5.757 49.409 30 67.5h75 75c24.243-18.091 30-42.173 30-67.5 0-47.358-80.859-101.137-97.075-111.229z"/><path fill="#e63950" d="m361 203.5c0-47.358-80.859-101.137-97.075-111.229-2.417-1.509-5.171-2.263-7.925-2.263v180.992h75c24.243-18.091 30-42.173 30-67.5z"/><path fill="#fed843" d="m495.037 165.092c-2.505-6.533-9.258-10.4-16.113-9.492-6.914.967-12.246 6.606-12.847 13.579-9.228 107.563-102.059 191.821-210.077 191.821s-200.849-84.258-210.077-191.821c-.601-6.973-5.933-12.612-12.847-13.579-6.797-.923-13.608 2.959-16.113 9.492-11.25 29.472-16.963 60.058-16.963 90.908 0 140.61 115.39 256 256 256s256-115.39 256-256c0-30.85-5.713-61.436-16.963-90.908z"/><path fill="#fabe2c" d="m512 256c0-30.85-5.713-61.436-16.963-90.908-2.505-6.533-9.258-10.4-16.113-9.492-6.914.967-12.246 6.606-12.847 13.579-9.228 107.563-102.059 191.821-210.077 191.821v151c140.61 0 256-115.39 256-256z"/></g></svg>