<svg id="Capa_1" enable-background="new 0 0 512.037 512.037" height="512" viewBox="0 0 512.037 512.037" width="512" xmlns="http://www.w3.org/2000/svg"><g><path d="m431.902 511.466c4.514 1.276 9.368.393 13.154-2.446 3.75-2.842 5.962-7.28 5.962-11.982v-91.538l-79.321-7.337-115.679 63.051z" fill="#e63950"/><path d="m61.018 497.037c0 4.702 2.212 9.141 5.962 11.982 3.782 2.837 8.636 3.723 13.154 2.446l175.884-50.253-113.285-62.367-81.715 6.653z" fill="#ff6c6c"/><path d="m505.558 62.703c-4.014-2.798-9.199-3.472-13.813-1.714l-78.461 29.048h-157.266-157.265l-78.461-29.048c-4.614-1.758-9.8-1.084-13.813 1.714-4.043 2.812-6.46 7.412-6.46 12.334v302c0 6.694 4.438 12.583 10.884 14.429l50.116 14.033 195 55.714 195-55.714 50.116-14.033c6.445-1.846 10.884-7.734 10.884-14.429v-302c-.001-4.922-2.418-9.521-6.461-12.334z" fill="#613d5c"/><path d="m501.135 391.466c6.445-1.846 10.884-7.734 10.884-14.429v-302c0-4.922-2.417-9.521-6.46-12.334-4.014-2.798-9.199-3.472-13.813-1.714l-78.461 29.048h-157.267v371.175l195-55.714z" fill="#4b2746"/><path d="m444.718 2.736c-3.9-2.699-9-3.6-13.499-1.8l-175.201 58.2-175.2-58.2c-4.799-1.8-9.598-.899-13.499 1.8-3.9 3.001-6.301 7.5-6.301 12.301v251.3l195 104.099 195-104.399v-251c0-4.801-2.4-9.3-6.3-12.301z" fill="#fff5f5"/><path d="m451.018 15.037c0-4.801-2.401-9.3-6.301-12.301-3.9-2.699-9-3.6-13.499-1.8l-175.201 58.2v311.3l195-104.399v-251z" fill="#efe2dd"/><path d="m308.218 313.738c-22.5 7.5-40.499 22.5-52.2 41.699-11.7-19.199-29.7-34.199-52.2-41.699l-142.8-47.401v50.7c0 6.599 4.2 12.299 10.201 14.099l180 60c1.5.601 3.3.901 4.799.901 1.5 0 3.3-.3 4.799-.901l180-60c6-1.8 10.201-7.5 10.201-14.099v-51z" fill="#efe2dd"/><path d="m440.818 331.136c6-1.8 10.201-7.5 10.201-14.099v-51l-142.8 47.701c-22.5 7.5-40.499 22.5-52.2 41.699v36.601c1.5 0 3.3-.3 4.799-.901z" fill="#cdbfba"/></g></svg>