<svg xmlns="http://www.w3.org/2000/svg" width="512" height="512" enable-background="new 0 0 512 512" viewBox="0 0 512 512"><g><path fill="#ff6c6c" d="m466 60h-421c-24.901 0-45 20.099-45 45v362c0 24.899 20.099 45 45 45h421c24.901 0 46-20.101 46-45v-362c0-24.901-21.099-45-46-45z"/><path fill="#e63950" d="m512 105v362c0 24.899-21.099 45-46 45h-210v-452h210c24.901 0 46 20.099 46 45z"/><path fill="#fff5f5" d="m436 120h-360c-8.401 0-15 6.599-15 15v302c0 8.399 6.599 15 15 15h360c8.401 0 15-6.601 15-15v-302c0-8.401-6.599-15-15-15z"/><path fill="#efe2dd" d="m451 135v302c0 8.399-6.599 15-15 15h-180v-332h180c8.401 0 15 6.599 15 15z"/><path fill="#fabe2c" d="m324 226h-8v-8c0-8.291-6.709-15-15-15s-15 6.709-15 15v8h-7c-8.291 0-15 6.709-15 15s6.709 15 15 15h7v7c0 8.291 6.709 15 15 15s15-6.709 15-15v-7h8c8.291 0 15-6.709 15-15s-6.709-15-15-15z"/><path fill="#fed843" d="m352.416 289.325c-5.171-3.267-11.792-3.076-16.729.454-10.313 7.339-22.294 11.221-34.687 11.221-18.007 0-33.995-8.134-45-20.729-9.219-10.552-15-24.186-15-39.271 0-12.393 3.882-24.375 11.221-34.688 3.545-4.966 3.721-11.587.454-16.729s-9.185-7.793-15.337-6.738c-50.025 9.009-86.338 52.398-86.338 103.155 0 57.891 47.109 105 105 105 50.757 0 94.146-36.313 103.154-86.338 1.084-6.006-1.582-12.07-6.738-15.337z"/><path fill="#fabe2c" d="m359.154 304.662c1.084-6.006-1.582-12.07-6.738-15.337-5.171-3.267-11.792-3.076-16.729.454-10.313 7.339-22.294 11.221-34.687 11.221-18.007 0-33.995-8.134-45-20.729v110.729c50.757 0 94.146-36.313 103.154-86.338z"/><g fill="#613d5c"><path d="m76 90c-8.291 0-15-6.709-15-15v-60c0-8.291 6.709-15 15-15s15 6.709 15 15v60c0 8.291-6.709 15-15 15z"/><path d="m166 90c-8.291 0-15-6.709-15-15v-60c0-8.291 6.709-15 15-15s15 6.709 15 15v60c0 8.291-6.709 15-15 15z"/><path d="m271 15v60c0 8.399-6.599 15-15 15s-15-6.601-15-15v-60c0-8.401 6.599-15 15-15s15 6.599 15 15z"/></g><path fill="#4b2746" d="m346 90c-8.291 0-15-6.709-15-15v-60c0-8.291 6.709-15 15-15s15 6.709 15 15v60c0 8.291-6.709 15-15 15z"/><path fill="#4b2746" d="m436 90c-8.291 0-15-6.709-15-15v-60c0-8.291 6.709-15 15-15s15 6.709 15 15v60c0 8.291-6.709 15-15 15z"/><path fill="#4b2746" d="m256 90v-90c8.401 0 15 6.599 15 15v60c0 8.399-6.599 15-15 15z"/></g></svg>