<svg xmlns="http://www.w3.org/2000/svg" width="512" height="512" enable-background="new 0 0 512 512" viewBox="0 0 512 512"><g><path fill="#4b2746" d="m316 512c-8.291 0-15-6.709-15-15v-61c0-8.291 6.709-15 15-15s15 6.709 15 15v61c0 8.291-6.709 15-15 15z"/><g fill="#613d5c"><path d="m271 436v61c0 8.399-6.599 15-15 15s-15-6.601-15-15v-61c0-8.401 6.599-15 15-15s15 6.599 15 15z"/><path d="m196 512c-8.291 0-15-6.709-15-15v-61c0-8.291 6.709-15 15-15s15 6.709 15 15v61c0 8.291-6.709 15-15 15z"/><path d="m121 451v46c0 8.291 6.709 15 15 15s15-6.709 15-15v-76z"/></g><path fill="#4b2746" d="m361 497c0 8.291 6.709 15 15 15s15-6.709 15-15v-46l-30-30z"/><path fill="#4b2746" d="m271 436v61c0 8.399-6.599 15-15 15v-91c8.401 0 15 6.599 15 15z"/><path fill="#613d5c" d="m196 91c-8.291 0-15-6.709-15-15v-61c0-8.291 6.709-15 15-15s15 6.709 15 15v61c0 8.291-6.709 15-15 15z"/><path fill="#613d5c" d="m271 15v61c0 8.399-6.599 15-15 15s-15-6.601-15-15v-61c0-8.401 6.599-15 15-15s15 6.599 15 15z"/><path fill="#4b2746" d="m316 91c-8.291 0-15-6.709-15-15v-61c0-8.291 6.709-15 15-15s15 6.709 15 15v61c0 8.291-6.709 15-15 15z"/><path fill="#4b2746" d="m376 0c-8.291 0-15 6.709-15 15v76l30-30v-46c0-8.291-6.709-15-15-15z"/><path fill="#613d5c" d="m151 15c0-8.291-6.709-15-15-15s-15 6.709-15 15v46l30 30z"/><path fill="#4b2746" d="m256 91v-91c8.401 0 15 6.599 15 15v61c0 8.399-6.599 15-15 15z"/><path fill="#ff6c6c" d="m121 61h270v390h-270z"/><path fill="#e63950" d="m256 61h135v390h-135z"/><path fill="#613d5c" d="m316 181h-18.6c-5.099-21.301-15.901-40.501-30.901-55.501-2.699-2.999-6.599-4.499-10.499-4.499s-7.8 1.5-10.499 4.499c-15 15-25.801 34.2-30.901 55.501h-18.6c-8.401 0-15 6.599-15 15v120c0 8.399 6.599 15 15 15h18.6c5.099 21.299 15.901 40.499 30.901 55.499 2.699 3.001 6.599 4.501 10.499 4.501s7.8-1.5 10.499-4.501c15-15 25.801-34.2 30.901-55.499h18.6c8.401 0 15-6.601 15-15v-120c0-8.401-6.599-15-15-15z"/><path fill="#4b2746" d="m331 196v120c0 8.399-6.599 15-15 15h-18.6c-5.099 21.299-15.901 40.499-30.901 55.499-2.699 3.001-6.599 4.501-10.499 4.501v-270c3.9 0 7.8 1.5 10.499 4.499 15 15 25.801 34.2 30.901 55.501h18.6c8.401 0 15 6.599 15 15z"/><circle cx="196" cy="376" r="15" fill="#613d5c"/><circle cx="316" cy="376" r="15" fill="#4b2746"/><circle cx="316" cy="136" r="15" fill="#4b2746"/><circle cx="196" cy="136" r="15" fill="#613d5c"/></g></svg>