<svg xmlns="http://www.w3.org/2000/svg" width="512" height="512" enable-background="new 0 0 512 512" viewBox="0 0 512 512"><g><path fill="#ffe1ba" d="m192.951 512h-90c-8.284 0-15-6.716-15-15 0-24.853 20.147-45 45-45h60l30 26.875z"/><path fill="#ffbfab" d="m411.951 237.999-23.099 17.401-42.326-15.383 4.826-31.417 24.598-18.6c12.902-9.6 31.8-7.5 42.001 6s7.2 32.1-6 41.999z"/><g><path fill="#fff5f5" d="m263.451 286c20.402 19.799 53.101 23.399 78.001 5.099l23.399-17.701 24.001-17.999-37.5-46.8-24.001 17.999-21.9 16.502-23.699-35.4c-11.1-16.802-29.702-26.7-49.801-26.7h-39-15c-32.999 0-60 26.999-60 60v151c0 32.999 27.001 60 60 60h15v60h105c32.999 0 60-27.001 60-60 0-33.001-27.001-60-60-60h-30c-16.5 0-30-13.5-30-30v-100.901z"/><path fill="#efe2dd" d="m357.951 452c0-33.001-27.001-60-60-60h-30c-16.5 0-30-13.5-30-30v-100.901l25.5 24.901c20.402 19.799 53.101 23.399 78.001 5.099l23.399-17.701 24.001-17.999-37.5-46.8-24.001 17.999-21.9 16.502-23.699-35.4c-11.1-16.802-29.702-26.7-49.801-26.7h-39v271 60h105c33 0 60-27.001 60-60z"/></g><path fill="#ffe1ba" d="m222.951 61h-30-30l-30 30v30c0 33.091 26.909 60 60 60s60-26.909 60-60v-30z"/><path fill="#ffbfab" d="m252.951 121v-30l-30-30h-30v120c33.091 0 60-26.909 60-60z"/><path fill="#ff6c6c" d="m237.951 0h-45-45c-8.291 0-15 6.709-15 15v76h60 60v-76c0-8.291-6.709-15-15-15z"/><path fill="#e63950" d="m252.951 15c0-8.291-6.709-15-15-15h-45v91h60z"/></g></svg>