<svg xmlns="http://www.w3.org/2000/svg" width="512" height="512" enable-background="new 0 0 512 512" viewBox="0 0 512 512"><g><g fill="#351b33"><path d="m443.237 150.276c-4.33-9.467-9.592-18.582-15.661-27.076-4.816-6.743-3.242-16.107 3.501-20.923 6.733-4.806 16.169-3.346 20.923 3.501 7.168 10.047 13.403 20.84 18.52 32.048 3.449 7.53.124 16.428-7.416 19.867-7.516 3.445-16.419.13-19.867-7.417z"/><path d="m457.386 234.528c.984-10.389.984-20.913 0-31.302-.787-8.245 5.262-15.578 13.507-16.345 8.224-.808 15.599 5.22 16.345 13.507 1.17 12.274 1.17 24.704 0 36.978-.767 8.245-8.1 14.294-16.345 13.507-8.21-.755-14.302-8.081-13.507-16.345z"/><path d="m429.171 333.861c-5.096-5.096-5.904-13.258-1.595-19.307 6.07-8.494 11.332-17.609 15.661-27.076 3.439-7.541 12.336-10.866 19.867-7.416 7.572 3.449 10.866 12.336 7.416 19.867-5.117 11.207-11.352 22-18.52 32.048-4.816 6.743-14.18 8.318-20.923 3.501-.694-.488-1.326-1.037-1.906-1.617z"/><path d="m354.303 388.862c-3.449-7.53-.124-16.428 7.416-19.867 9.467-4.33 18.582-9.592 27.076-15.661 6.733-4.806 16.179-3.335 20.923 3.501 4.816 6.743 3.242 16.107-3.501 20.923-10.047 7.168-20.84 13.403-32.048 18.52-7.515 3.446-16.418.132-19.866-7.416z"/><path d="m261.122 396.651c.766-8.245 8.1-14.294 16.345-13.507 10.389.984 20.913.984 31.302 0 8.224-.808 15.568 5.231 16.345 13.507.787 8.245-5.262 15.578-13.507 16.345-12.274 1.17-24.704 1.17-36.978 0-8.209-.755-14.302-8.08-13.507-16.345z"/><path d="m176.518 356.835c4.816-6.743 14.18-8.317 20.923-3.501 8.494 6.07 17.609 11.332 27.076 15.661 7.52 3.48 10.876 12.326 7.416 19.867-3.439 7.541-12.336 10.866-19.867 7.416-11.207-5.117-22-11.352-32.048-18.52-6.629-4.65-8.375-14.078-3.5-20.923z"/></g><path fill="#4b2746" d="m98.999 237.366c-1.17-12.274-1.17-24.704 0-36.978.766-8.245 8.1-14.294 16.345-13.507s14.294 8.141 13.507 16.345c-.984 10.389-.984 20.913 0 31.302.787 8.245-5.262 15.578-13.507 16.345-8.272.795-15.591-5.305-16.345-13.507z"/><path fill="#4b2746" d="m115.717 137.825c5.117-11.207 11.352-22 18.52-32.048 4.816-6.743 14.18-8.317 20.923-3.501 6.857 4.785 8.297 14.18 3.501 20.923-6.07 8.494-11.332 17.609-15.661 27.076-3.439 7.541-12.336 10.866-19.867 7.416-7.533-3.44-10.868-12.336-7.416-19.866z"/><path fill="#4b2746" d="m176.518 80.919c-4.816-6.743-3.242-16.107 3.501-20.923 10.047-7.168 20.84-13.403 32.048-18.52 7.541-3.439 16.438-.114 19.867 7.416 3.449 7.53.124 16.428-7.416 19.867-9.467 4.33-18.582 9.592-27.076 15.661-6.851 4.879-16.282 3.115-20.924-3.501z"/><path fill="#4b2746" d="m261.122 41.102c-.787-8.245 5.261-15.579 13.507-16.345 12.274-1.17 24.704-1.17 36.978 0 8.255.777 14.294 8.121 13.507 16.345-.767 8.245-8.1 14.294-16.345 13.507-10.389-.984-20.913-.984-31.302 0-8.271.796-15.59-5.305-16.345-13.507z"/><path fill="#4b2746" d="m354.303 48.892c3.439-7.541 12.336-10.866 19.867-7.416 11.207 5.117 22 11.352 32.048 18.52 6.764 4.713 8.297 14.18 3.501 20.923-4.816 6.743-14.18 8.317-20.923 3.501-8.494-6.07-17.609-11.332-27.076-15.661-7.534-3.442-10.868-12.338-7.417-19.867z"/><path fill="#4b2746" d="m134.237 331.976c-7.168-10.047-13.403-20.84-18.52-32.048-3.449-7.53-.124-16.428 7.416-19.867 7.53-3.449 16.407-.062 19.867 7.416 4.33 9.467 9.592 18.582 15.661 27.076 4.816 6.743 3.242 16.107-3.501 20.923-6.85 4.88-16.282 3.116-20.923-3.5z"/><g fill="#613d5c"><circle cx="420.398" cy="91.598" r="45"/><circle cx="165.839" cy="346.156" r="45"/></g><path fill="#4b2746" d="m452.217 123.417c17.546-17.546 17.546-46.093 0-63.64l-63.64 63.64c17.547 17.547 46.094 17.547 63.64 0z"/><path fill="#4b2746" d="m197.659 377.976c17.546-17.546 17.546-46.093 0-63.64l-63.64 63.64c17.547 17.546 46.093 17.546 63.64 0z"/><path fill="#ff6c6c" d="m134.019 377.976c-23.399-23.399-61.454-23.399-84.853 0-19.369 19.369-44.286 99.561-48.605 114.964-1.471 5.22 0 10.834 3.832 14.667 3.832 3.832 9.447 5.303 14.667 3.832 15.402-4.319 95.589-29.241 114.959-48.61 23.399-23.399 23.399-61.454 0-84.853z"/><path fill="#e63950" d="m19.06 511.439c15.402-4.319 95.589-29.241 114.959-48.61 23.399-23.399 23.399-61.454 0-84.853l-129.626 129.631c3.833 3.832 9.447 5.303 14.667 3.832z"/><path fill="#4b2746" d="m423.515 253.814c6.443-23.968 31.167-38.231 55.125-31.82 11.601 3.128 21.296 10.544 27.314 20.975 6.018 10.41 7.603 22.539 4.485 34.15-6.401 23.948-31.126 38.231-55.094 31.83-23.788-6.407-38.286-30.972-31.83-55.135z"/><path fill="#4b2746" d="m203.045 381.104c6.453-23.979 31.178-38.242 55.136-31.83 23.968 6.443 38.221 31.178 31.82 55.125-6.451 24.024-31.097 38.251-55.125 31.799-23.985-6.398-38.211-31.175-31.831-55.094z"/><path fill="#4b2746" d="m296.236 404.399c-6.412-23.958 7.851-48.683 31.809-55.115 23.979-6.412 48.714 7.841 55.125 31.799l.021.021c6.401 23.968-7.882 48.693-31.841 55.105-24.155 6.47-48.714-7.939-55.114-31.81z"/><path fill="#4b2746" d="m423.526 183.95c-6.422-23.968 7.841-48.693 31.799-55.125 23.989-6.401 48.714 7.945 55.125 31.82 6.433 24.018-7.781 48.663-31.809 55.115-23.928 6.393-48.679-7.83-55.115-31.81z"/><path fill="#4b2746" d="m388.578 377.976c-17.546-17.546-17.546-46.093 0-63.64 17.546-17.546 46.093-17.546 63.64 0s17.546 46.093 0 63.64c-17.547 17.546-46.094 17.546-63.64 0z"/><path fill="#613d5c" d="m75.797 160.634c6.401-23.948 31.126-38.231 55.094-31.83l.021.021c23.948 6.381 38.2 31.136 31.809 55.115-6.443 23.968-31.167 38.231-55.125 31.82-23.862-6.398-38.289-30.955-31.799-55.126z"/><path fill="#613d5c" d="m296.236 33.355c6.451-24.024 31.097-38.251 55.125-31.799 23.958 6.432 38.231 31.147 31.83 55.094-.01.01-.01.01-.021.021-6.432 23.958-31.157 38.221-55.115 31.809-23.915-6.42-38.234-31.118-31.819-55.125z"/><path fill="#613d5c" d="m203.066 56.67c-6.422-23.989 7.862-48.714 31.82-55.125 23.946-6.414 48.649 7.711 55.115 31.809 6.412 23.958-7.851 48.683-31.809 55.115-24.008 6.427-48.707-7.883-55.126-31.799z"/><path fill="#613d5c" d="m75.787 277.11c-6.433-24.018 7.781-48.663 31.809-55.115 23.968-6.401 48.683 7.872 55.115 31.809 6.422 23.968-7.841 48.693-31.799 55.125-.01.01-.01.01-.021.021-23.96 6.392-48.668-7.86-55.104-31.84z"/><path fill="#613d5c" d="m134.019 123.417c-17.546-17.546-17.546-46.093 0-63.64s46.093-17.546 63.64 0 17.546 46.093 0 63.64-46.093 17.547-63.64 0z"/></g></svg>