<svg enable-background="new 0 0 297 324.573" height="324.573" viewBox="0 0 297 324.573" width="297" xmlns="http://www.w3.org/2000/svg" xmlns:xlink="http://www.w3.org/1999/xlink"><linearGradient id="a"><stop offset="0" stop-color="#f1af70"/><stop offset="1" stop-color="#d35727"/></linearGradient><radialGradient id="b" cx="136.259503" cy="98.9687178" gradientUnits="userSpaceOnUse" r="395.6737509" xlink:href="#a"/><radialGradient id="c" cx="148.4971216" cy="162.2770254" gradientUnits="userSpaceOnUse" r="165.7549521"><stop offset=".258" stop-color="#81482a"/><stop offset=".462" stop-color="#7d4528"/><stop offset=".656" stop-color="#723e20"/><stop offset=".845" stop-color="#5f3115"/><stop offset="1" stop-color="#492207"/></radialGradient><radialGradient id="d" cx="81.0173671" cy="37.8567432" gradientUnits="userSpaceOnUse" r="472.1592636" xlink:href="#a"/><path d="m211.79 55.507c.302.478.597.975.875 1.484 0 0 15.248-14.108 27.513 7.711 10.001 17.786 22.485 27.483 36.935 25.282-9.392 11.211-7.586 26.908 2.401 44.694 12.273 21.819-7.709 27.511-7.709 27.511.293.509.557 1.018.814 1.52-.264.497-.551.997-.845 1.5 0 0 19.843 6.15 7.073 27.678-10.399 17.551-12.56 33.207-3.424 44.63-14.396-2.533-27.103 6.88-37.508 24.427-12.769 21.532-27.676 7.075-27.676 7.075-.302.507-.605.991-.915 1.47-.567.01-1.124.022-1.721.008 0 0 4.604 20.259-20.43 19.976-20.4-.233-35.035 5.73-40.359 19.348-5.013-13.741-19.511-20.034-39.909-20.267-25.026-.286-19.968-20.43-19.968-20.43-.589-.01-1.162-.03-1.719-.056-.304-.485-.591-.979-.877-1.488 0 0-15.249 14.115-27.521-7.707-10.003-17.784-22.477-27.483-36.935-25.284 9.398-11.207 7.6-26.902-2.401-44.69-12.273-21.821 7.717-27.517 7.717-27.517-.296-.509-.565-1.015-.814-1.514.271-.501.549-.997.846-1.504 0 0-19.845-6.147-7.083-27.682 10.405-17.553 12.566-33.209 3.434-44.624 14.394 2.533 27.101-6.876 37.508-24.431 12.765-21.532 27.674-7.075 27.674-7.075.294-.505.603-.993.907-1.466.567-.018 1.138-.02 1.727-.018 0 0-4.602-20.253 20.424-19.967 20.408.235 35.051-5.724 40.369-19.346 5.004 13.736 19.501 20.032 39.901 20.265 25.034.288 19.968 20.434 19.968 20.434.598.004 1.169.022 1.728.053z" fill="url(#b)"/><path d="m207.101 63.424c.279.442.543.899.806 1.377 0 0 14.116-13.067 25.477 7.136 9.259 16.467 20.818 25.444 34.185 23.41-8.686 10.375-7.013 24.912 2.238 41.377 11.358 20.203-7.144 25.473-7.144 25.473.264.472.513.937.752 1.409-.249.454-.503.921-.776 1.389 0 0 18.371 5.688 6.549 25.627-9.631 16.244-11.63 30.74-3.177 41.316-13.336-2.344-25.088 6.364-34.719 22.619-11.824 19.933-25.621 6.549-25.621 6.549-.288.468-.567.919-.845 1.359-.521.008-1.054.018-1.604.014 0 0 4.261 18.751-18.914 18.484-18.888-.211-32.441 5.308-37.367 17.915-4.641-12.715-18.061-18.546-36.951-18.761-23.174-.264-18.488-18.92-18.488-18.92-.541-.004-1.068-.024-1.594-.052-.279-.442-.543-.905-.806-1.373 0 0-14.125 13.069-25.482-7.136-9.251-16.467-20.804-25.442-34.187-23.41 8.694-10.373 7.021-24.912-2.228-41.377-11.362-20.203 7.142-25.473 7.142-25.473-.263-.474-.511-.947-.752-1.407.247-.464.505-.919.776-1.391 0 0-18.365-5.69-6.548-25.625 9.623-16.252 11.631-30.744 3.179-41.322 13.332 2.352 25.087-6.362 34.719-22.618 11.822-19.933 25.619-6.548 25.619-6.548.29-.469.567-.919.847-1.357.519-.016 1.054-.02 1.594-.016 0 0-4.26-18.753 18.922-18.484 18.89.219 32.447-5.302 37.367-17.919 4.635 12.719 18.053 18.546 36.951 18.767 23.183.267 18.494 18.918 18.494 18.918.54.006 1.061.024 1.586.05z" fill="url(#c)"/><path d="m148.504 59.379c56.832 0 102.91 46.075 102.91 102.91 0 56.836-46.077 102.911-102.91 102.911-56.84 0-102.918-46.075-102.918-102.911 0-56.835 46.077-102.91 102.918-102.91m0-6.452c-60.303 0-109.362 49.059-109.362 109.362 0 60.302 49.059 109.364 109.362 109.364 60.302 0 109.364-49.061 109.364-109.364-.001-60.303-49.062-109.362-109.364-109.362z" fill="url(#d)"/><path d="m54.765 172.425c2.487-2.678 3.73-4.495 3.73-5.451 0-.828-.416-1.243-1.243-1.243-.447 0-.813.095-1.1.286-.286.191-.494.319-.621.383 0-.063-.033-.096-.096-.096v-.383c.383-2.103 1.339-3.156 2.869-3.156 1.275 0 1.913.765 1.913 2.296 0 1.148-.478 2.456-1.435 3.921-.956 1.468-2.2 2.743-3.73 3.826-.574.448-.925.67-1.052.67 0-.128.254-.478.765-1.053zm31.086-26.016c-1.659-5.1-2.807-10.265-3.443-15.494-.129-.892-.224-1.435-.287-1.626-.191-.701-.574-1.466-1.148-2.296l2.104-5.07c.319-.827.605-1.243.861-1.243.191 0 .541.416 1.052 1.243l5.356 8.609c.701 1.148 1.052 1.977 1.052 2.486.063.383-.096.575-.478.575-.702 0-1.881-.542-3.539-1.626.445 3.252 1.497 7.333 3.156 12.243 2.741-1.148 5.739-1.722 8.991-1.722 2.614 0 4.687 1.117 6.217 3.348 1.593 2.232 2.391 5.164 2.391 8.8 0 2.998-.67 5.451-2.009 7.364-1.276 1.977-2.998 2.966-5.165 2.966-2.998 0-5.803-1.307-8.417-3.922-2.042-1.976-3.539-4.176-4.495-6.6-7.333 4.401-13.168 6.6-17.504 6.6-4.146 0-7.525-.861-10.139-2.582-4.081-2.55-6.121-6.855-6.121-12.913 0-5.675 2.358-13.135 7.078-22.382.51-.956.924-1.434 1.243-1.434.127.064.191.19.191.383 0 .319-.096.765-.287 1.338-.702 1.787-1.403 3.604-2.104 5.452-.383.893-.734 1.786-1.052 2.678-1.021 2.934-1.53 5.325-1.53 7.173 0 4.273 1.148 7.493 3.443 9.661 2.358 2.232 5.452 3.347 9.278 3.347 4.146 0 9.246-1.784 15.305-5.356zm71.162 7.365c2.997 0 5.897-1.148 8.704-3.443.765-.701 1.148-3.188 1.148-7.461 0-2.741-.511-11.414-1.53-26.016-1.085-14.602-1.626-23.178-1.626-25.729 0-2.997-.447-5.452-1.339-7.365 0-1.148.861-3.73 2.583-7.747.191-.51.383-.765.574-.765s.383.255.574.765c.51 1.148 1.658 4.05 3.443 8.704 1.913 4.974 3.027 8.067 3.348 9.277.19.83.287 1.468.287 1.913 0 1.404-1.276.575-3.826-2.486-.32-.446-.478-.254-.478.573 0 .192.445 6.346 1.339 18.461.891 12.18 1.338 19.799 1.338 22.859 0 8.992-1.625 16.069-4.877 21.235-2.742 4.337-5.963 6.504-9.66 6.504-4.337 0-8.608-1.754-12.817-5.261-3.381-3.188-6.759-6.344-10.139-9.47-.511-.509-1.021-.988-1.53-1.434-.511-.446-.798-.669-.861-.669-.191 0-.096.447.287 1.338 1.466 3.317 2.2 5.677 2.2 7.079 0 5.229-1.53 9.182-4.591 11.86-2.168 1.977-7.078 4.591-14.73 7.842v-.095c-4.782 2.041-8.354 3.635-10.713 4.782-4.655 2.168-7.843 3.922-9.565 5.26-3.189 2.488-7.812 7.238-13.869 14.252-3.635 4.209-7.269 6.313-10.904 6.313-3.125 0-5.803-1.402-8.034-4.209-2.424-2.869-3.635-6.376-3.635-10.521 0-5.739 2.358-13.199 7.078-22.382.445-.956.828-1.435 1.148-1.435.063 0 .096.129.096.383 0 .894-1.021 4.082-3.061 9.565-1.977 5.548-2.965 9.916-2.965 13.104 0 2.424.541 4.369 1.626 5.835 1.21 1.594 2.901 2.391 5.069 2.391 3.826 0 7.683-1.944 11.573-5.834 1.402-1.658 2.805-3.284 4.209-4.879 1.084-1.339 2.167-2.645 3.252-3.921 3.188-3.636 7.428-6.887 12.721-9.757 3.061-1.657 8.384-4.079 15.973-7.269 8.097-3.443 13.422-6.089 15.973-7.938.701-.574.924-1.306.67-2.199-1.339-4.974-6.92-11.574-16.738-19.8-7.207-5.866-14.443-11.7-21.712-17.504-2.104-1.721-4.241-3.474-6.408-5.26-.32-.254-.478-1.275-.478-3.061 0-2.296.223-4.654.67-7.078.574-2.741 1.243-4.463 2.009-5.165 5.292-4.782 16.579-11.126 33.859-19.034 17.535-7.97 29.109-11.956 34.72-11.956 1.658 0 2.805.32 3.443.956.637.638.956 1.786.956 3.443 0 3.635-2.2 8.194-6.6 13.678l-2.678 3.061c-.765.893-1.53 1.754-2.296 2.582-2.615 3.061-4.4 5.581-5.356 7.556-.638 1.277-1.021 1.913-1.148 1.913-.191 0-.096-.86.287-2.582.191-.956.924-2.614 2.2-4.974 1.148-2.167 2.009-3.571 2.582-4.209 4.91-5.675 7.875-9.405 8.895-11.191.063-.191.096-.35.096-.478 0-1.084-1.372-1.626-4.113-1.626-4.464 0-14.954 3.859-31.468 11.573-16.58 7.716-27.898 14.061-33.955 19.034-.383.319-.32.606.191.86 5.419 3.316 10.744 6.728 15.973 10.235 12.626 8.545 23.783 16.993 33.477 25.346 2.932 2.551 5.866 5.134 8.8 7.747 3.505 2.618 6.948 3.924 10.329 3.924zm-90.674-21.808c0-1.211.701-2.997 2.104-5.356 1.402-2.359 2.582-3.539 3.539-3.539.892 0 1.658.368 2.296 1.1.637.734.956 1.674.956 2.822 0 1.722-.607 3.412-1.817 5.07-1.212 1.659-2.678 2.486-4.4 2.486-1.786-.001-2.678-.861-2.678-2.583zm.669 58.537.574-.669c1.658-1.785 2.487-2.997 2.487-3.636 0-.573-.255-.86-.765-.86-.32 0-.59.081-.813.239-.224.16-.368.239-.431.239l-.096-.095.096-.478c.319-1.211.956-1.818 1.913-1.818.828 0 1.243.511 1.243 1.53 0 .765-.32 1.642-.956 2.631-.638.989-1.468 1.833-2.487 2.534l-.67.383zm6.695-61.501c0-1.658-1.116-2.488-3.348-2.488-.32 0-.829.512-1.53 1.53-.702 1.021-1.052 1.723-1.052 2.105.191.573.988.86 2.391.86 2.359.001 3.539-.669 3.539-2.007zm-.526-16.452c.605-.575.909-1.34.909-2.296 0-1.02-.574-1.53-1.722-1.53-.574 0-1.021.159-1.339.478 0-.637.398-1.561 1.195-2.773.797-1.211 1.578-2.167 2.344-2.87l.096-.383v-.095c0-.063-.033-.095-.096-.095h-.191c-1.021.638-2.073 1.786-3.156 3.443-1.276 1.85-1.913 3.443-1.913 4.781 0 1.468.67 2.2 2.009 2.2.636 0 1.258-.287 1.864-.86zm-.717 32.52c.383-.383.574-.892.574-1.53 0-.701-.383-1.053-1.148-1.053-.32 0-.607.128-.861.383 0-.446.27-1.067.813-1.865.541-.796 1.067-1.45 1.578-1.961l.096-.287-.191-.095h-.096c-.638.447-1.356 1.243-2.152 2.391-.798 1.148-1.195 2.169-1.195 3.061 0 1.021.445 1.53 1.339 1.53.445-.001.86-.191 1.243-.574zm.287 28.169c-.829-.861-1.243-1.896-1.243-3.109 0-1.148.414-2.167 1.243-3.061.828-.891 1.849-1.338 3.061-1.338 1.21 0 2.248.447 3.108 1.338.861.894 1.291 1.913 1.291 3.061 0 1.213-.43 2.248-1.291 3.109-.86.86-1.898 1.291-3.108 1.291-1.212 0-2.233-.431-3.061-1.291zm.956 46.054c-.894-2.231-1.339-5.07-1.339-8.513 0-2.296.191-4.622.574-6.983.574-3.443 1.371-6.471 2.391-9.086.254-.828.541-1.244.861-1.244.191 0 .287.224.287.67 0 .255-.383 2.168-1.148 5.739-.638 2.869-.956 4.974-.956 6.313 0 4.719 1.562 9.055 4.687 13.008 4.271 5.293 10.488 7.938 18.651 7.938 7.078 0 14.634-1.689 22.669-5.069 6.44-2.614 12.21-5.93 17.312-9.947 4.654-3.635 6.982-6.217 6.982-7.747 0-.254-.956-2.264-2.869-6.026-2.296-4.463-3.986-8.8-5.069-13.008-.447-1.466-.973-2.439-1.578-2.917-.606-.479-.908-1.004-.908-1.579 0-.445.445-2.74 1.339-6.887.127-.765.319-1.148.574-1.148.254 0 .541.192.861.575 1.21 1.338 3.762 3.921 7.652 7.747.637.638.956 1.117.956 1.435 0 .447-.383.669-1.148.669s-1.977-.222-3.635-.669c.127.447 1.435 3.156 3.922 8.13 1.976 4.017 2.965 7.493 2.965 10.425 0 5.739-1.307 10.108-3.922 13.104-4.081 4.782-10.076 9.406-17.982 13.869-10.011 5.547-19.354 8.321-28.025 8.321-11.669.001-19.704-5.705-24.104-17.12zm9.23-46.054c-.86-.861-1.291-1.896-1.291-3.109 0-1.148.431-2.167 1.291-3.061.861-.891 1.897-1.338 3.109-1.338 1.21 0 2.247.447 3.109 1.338.86.894 1.291 1.913 1.291 3.061 0 1.213-.431 2.248-1.291 3.109-.861.86-1.898 1.291-3.109 1.291-1.212 0-2.247-.431-3.109-1.291zm3.826 37.541c.414-.383.622-.892.622-1.53 0-.701-.383-1.052-1.148-1.052-.383 0-.702.095-.956.286 0-.383.27-.988.813-1.817.541-.828 1.067-1.466 1.578-1.913.063-.063.096-.159.096-.287v-.095c0-.063-.033-.096-.096-.096-.511 0-1.243.798-2.2 2.392-.894 1.212-1.339 2.264-1.339 3.156 0 1.021.445 1.53 1.339 1.53.445 0 .876-.191 1.291-.574zm2.726-116.69c2.487-2.741 3.73-4.558 3.73-5.452 0-.891-.416-1.338-1.243-1.338-.383 0-.734.112-1.052.334-.32.224-.542.335-.67.335l-.096-.096.096-.669c.383-1.913 1.306-2.869 2.774-2.869 1.275 0 1.913.765 1.913 2.296 0 1.148-.478 2.472-1.435 3.97-.956 1.498-2.2 2.759-3.73 3.777-.574.448-.925.67-1.052.67 0-.129.254-.448.765-.958zm1.818 100.047c5.484-3.379 12.784-7.045 21.903-11 7.97-3.57 12.37-5.356 13.199-5.356.127.065.191.16.191.287 0 .319-.224.877-.67 1.674-.447.798-.829 1.259-1.148 1.387-2.615.956-7.685 3.252-15.208 6.887-8.417 4.017-15.05 7.461-19.895 10.33.32-1.211.863-2.614 1.628-4.209zm11.956-39.407c0-.956-.861-1.818-2.582-2.583-.638-.254-1.468-.383-2.487-.383-1.021 0-2.264.129-3.73.383 1.53 2.361 3.857 3.539 6.982 3.539 1.21.001 1.817-.318 1.817-.956zm-7.365 57.294c0-1.211.701-2.997 2.104-5.356 1.402-2.359 2.582-3.539 3.539-3.539.892 0 1.658.368 2.296 1.1.637.733.956 1.674.956 2.822 0 1.786-.607 3.491-1.817 5.116-1.212 1.626-2.678 2.439-4.4 2.439-1.786-0-2.678-.861-2.678-2.582zm3.396-74.798c.414-.383.621-.891.621-1.53-.064-.636-.478-.956-1.243-.956-.32 0-.607.095-.861.286 0-.383.27-.988.813-1.817.541-.828 1.067-1.466 1.578-1.913.063-.063.096-.159.096-.287v-.095c0-.063-.033-.096-.096-.096-.511 0-1.228.702-2.152 2.104-.925 1.403-1.387 2.551-1.387 3.443 0 .956.445 1.435 1.339 1.435.445.001.876-.191 1.292-.574zm3.969 71.832c0-1.594-1.116-2.391-3.348-2.391-.32 0-.829.494-1.53 1.482-.702.989-1.052 1.707-1.052 2.152.191.512.988.765 2.391.765 2.358.001 3.539-.668 3.539-2.008zm1.53-103.395c5.548-3.315 12.848-6.983 21.903-11 7.97-3.506 12.401-5.261 13.295-5.261.127 0 .191.065.191.192 0 .383-.239.972-.717 1.769-.479.798-.846 1.228-1.1 1.291-2.615.956-7.685 3.251-15.208 6.887-8.417 4.081-15.05 7.556-19.895 10.425.255-1.274.766-2.708 1.531-4.303zm5.596 141.75c.605-.573.908-1.338.908-2.296 0-1.021-.574-1.53-1.722-1.53-.511 0-.956.159-1.339.479 0-.638.398-1.563 1.196-2.774.796-1.212 1.578-2.168 2.343-2.869.127-.129.191-.256.191-.383 0-.129-.064-.192-.191-.192h-.191c-1.021.637-2.073 1.785-3.156 3.443-1.276 1.849-1.913 3.443-1.913 4.783 0 1.465.67 2.199 2.009 2.199.636.001 1.258-.285 1.865-.86zm.43-165.088c.956-.637 2.04-1.832 3.252-3.587 1.21-1.753 1.817-3.3 1.817-4.639 0-1.466-.67-2.2-2.009-2.2-.638 0-1.26.287-1.865.861-.606.574-.908 1.339-.908 2.296 0 1.021.574 1.53 1.722 1.53.51 0 .956-.158 1.339-.478 0 .638-.399 1.563-1.196 2.774-.798 1.212-1.578 2.169-2.343 2.869-.129.129-.191.256-.191.383 0 .192.063.287.191.287zm3.156 134.673c1.658-1.785 2.487-2.997 2.487-3.636 0-.573-.255-.86-.765-.86-.32 0-.574.064-.765.191-.191.128-.32.191-.383.191h-.096l.096-.478c.254-1.275.861-1.913 1.817-1.913.828 0 1.243.511 1.243 1.53 0 .765-.32 1.642-.956 2.63-.638.989-1.468 1.865-2.487 2.631l-.67.383c.001-.063.159-.287.479-.669zm1.339-57.006c2.487-2.678 3.73-4.463 3.73-5.356 0-.892-.416-1.34-1.243-1.34-.447 0-.813.096-1.1.287s-.495.319-.622.383l-.096-.095.096-.383c.319-2.105 1.243-3.157 2.774-3.157 1.275 0 1.913.765 1.913 2.296 0 1.148-.478 2.472-1.435 3.97-.956 1.498-2.2 2.759-3.73 3.778-.574.447-.925.669-1.052.669 0-.128.254-.48.765-1.052zm1.626 40.841c-.829-.828-1.243-1.849-1.243-3.061 0-1.211.414-2.248 1.243-3.108.828-.861 1.849-1.291 3.061-1.291 1.21 0 2.248.43 3.108 1.291.861.86 1.291 1.897 1.291 3.108 0 1.212-.43 2.232-1.291 3.061-.86.829-1.898 1.244-3.108 1.244-1.212 0-2.233-.415-3.061-1.244zm1.961-85.032c.414-.383.622-.891.622-1.53-.064-.7-.478-1.052-1.243-1.052-.32 0-.607.128-.861.383 0-.446.27-1.067.813-1.865.541-.796 1.067-1.45 1.578-1.961l.096-.191c0-.127-.033-.191-.096-.191l-.191.096c-.638.383-1.356 1.148-2.152 2.296-.798 1.148-1.196 2.168-1.196 3.061 0 1.021.445 1.53 1.339 1.53.445-.001.876-.193 1.291-.576zm82.113 105.405c2.997 0 5.898-1.148 8.704-3.443.765-.701 1.148-3.188 1.148-7.461 0-2.613-1.084-19.065-3.251-49.354-2.233-30.287-3.348-47.026-3.348-50.215 0-2.997-.447-5.451-1.34-7.364 0-1.084.862-3.636 2.583-7.652.192-.51.383-.765.575-.765.19 0 .383.255.573.765.511 1.085 1.659 3.985 3.443 8.704 1.913 4.974 3.028 8.034 3.348 9.182.19.893.287 1.563.287 2.009 0 1.338-1.276.478-3.826-2.583-.32-.446-.48-.254-.48.574 0 .191 1.02 14.316 3.061 42.372 2.041 28.121 3.061 43.712 3.061 46.772 0 8.991-1.626 16.069-4.877 21.234-2.742 4.337-5.964 6.504-9.662 6.504-3.443 0-6.951-1.497-10.52-4.496-1.913-1.657-3.412-3.41-4.496-5.26l-10.235 4.305c-4.781 2.041-8.353 3.634-10.712 4.781-4.655 2.169-7.843 3.922-9.565 5.261-3.189 2.487-7.812 7.236-13.869 14.251-3.635 4.209-7.302 6.314-11 6.314-3.061 0-5.739-1.404-8.034-4.209-2.36-2.87-3.539-6.378-3.539-10.522 0-5.739 2.327-13.199 6.982-22.381.51-.957.924-1.435 1.243-1.435.063 0 .096.128.096.383 0 .893-1.021 4.081-3.061 9.565-2.042 5.548-3.061 9.914-3.061 13.103 0 2.423.574 4.368 1.722 5.835 1.21 1.594 2.901 2.392 5.069 2.392 3.826 0 7.683-1.946 11.573-5.835l4.209-4.974 3.252-3.826c3.188-3.635 7.428-6.887 12.721-9.756 3.061-1.658 8.384-4.08 15.972-7.269l7.557-3.252c-1.084-2.933-1.626-5.93-1.626-8.991 0-4.654.701-8.417 2.103-11.286 1.34-2.805 3.158-4.209 5.453-4.209 1.975 0 3.857 1.691 5.642 5.07 1.594 2.998 2.393 5.676 2.393 8.034 0 6.186-1.818 11.223-5.453 15.111 2.553 2.677 5.614 4.017 9.185 4.017zm-74.318-146.533.478-.574c1.658-1.849 2.487-3.061 2.487-3.635s-.255-.861-.765-.861c-.32 0-.574.064-.765.191-.191.129-.32.191-.383.191l-.096-.096.096-.478c.254-1.21.861-1.817 1.817-1.817.828 0 1.243.511 1.243 1.53 0 .765-.32 1.642-.956 2.63-.638.989-1.468 1.834-2.487 2.535l-.67.478v-.094zm1.722 167.193.574-.575c1.658-1.85 2.487-3.061 2.487-3.634 0-.575-.287-.861-.861-.861-.255 0-.495.063-.717.191-.224.127-.368.191-.431.191h-.096l.096-.479c.319-1.276.956-1.913 1.913-1.913.828 0 1.243.51 1.243 1.53 0 .765-.32 1.641-.956 2.631-.638.989-1.468 1.832-2.487 2.535l-.67.478zm27.069-119.943c.574-1.53 1.849-3.283 3.826-5.26l.574-.574c-.255-.637-.67-.956-1.243-.956-.383 0-.861.128-1.435.383-5.676 2.934-11.159 4.4-16.451 4.4-2.869 0-5.485-.637-7.843-1.913.127.383.191.798.191 1.243 0 .83-.191 1.723-.574 2.678-.191.639-.351.957-.478.957-.064 0-.096-.383-.096-1.148 0-1.34-.224-2.519-.67-3.539 0-.127-.702-1.179-2.104-3.157.254-1.401.605-2.103 1.052-2.103.063 0 .445.286 1.148.86.701.574 1.466 1.053 2.296 1.435 2.358 1.276 4.974 1.913 7.843 1.913 2.932 0 5.802-.415 8.608-1.244 1.593-.574 3.539-1.402 5.835-2.487 1.722-.828 2.869-1.243 3.443-1.243 1.21 0 1.817.606 1.817 1.817 0 .638-.16 1.339-.478 2.104-.255.447-.829 1.212-1.722 2.296-1.276 1.467-2.137 2.52-2.583 3.156-.765.957-1.212 1.435-1.339 1.435 0-.128.127-.479.383-1.053zm-20.9 84.553c.414-.383.622-.891.622-1.53 0-.7-.416-1.052-1.243-1.052-.32 0-.607.128-.861.383 0-.446.27-1.067.813-1.865.541-.796 1.067-1.45 1.578-1.961l.096-.191c0-.127-.033-.191-.096-.191h-.191c-.638.447-1.356 1.244-2.152 2.392-.798 1.148-1.196 2.168-1.196 3.061 0 1.021.445 1.53 1.339 1.53.445-.002.876-.194 1.291-.576zm6.409-72.788c.414-.383.621-.892.621-1.53 0-.701-.383-1.053-1.148-1.053-.383 0-.702.096-.956.287 0-.383.27-.988.813-1.818.541-.827 1.067-1.465 1.578-1.913.063-.062.096-.158.096-.286v-.191l-.191.095c-.702.383-1.451 1.164-2.248 2.344-.798 1.181-1.195 2.216-1.195 3.108 0 1.021.478 1.53 1.435 1.53.382.001.78-.191 1.195-.573zm-1.1 36.824c0-.062.158-.254.478-.573 1.658-1.849 2.487-3.093 2.487-3.731 0-.574-.255-.86-.765-.86-.32.064-.574.159-.765.286-.191.128-.32.191-.383.191l-.096-.095.096-.479c.254-1.211.861-1.817 1.817-1.817.828 0 1.243.511 1.243 1.53 0 .765-.32 1.642-.956 2.63-.638.989-1.468 1.834-2.487 2.534l-.67.479v-.095zm1.913-59.206c1.658-1.785 2.487-2.997 2.487-3.635 0-.574-.255-.86-.765-.86-.32.064-.574.159-.765.286-.191.128-.32.191-.383.191l-.096-.095.096-.479c.254-1.211.861-1.817 1.817-1.817.828 0 1.243.511 1.243 1.53 0 .765-.32 1.642-.956 2.63-.638.989-1.468 1.834-2.487 2.534l-.67.383c.001-.061.159-.285.479-.668zm2.726 115.829c.414-.383.622-.891.622-1.53 0-.636-.383-.956-1.148-.956-.32 0-.607.095-.861.286 0-.383.254-.988.765-1.817.51-.828 1.019-1.466 1.53-1.913.127-.127.191-.254.191-.383l-.096-.096c-.447 0-1.212.765-2.296 2.296-.829 1.276-1.243 2.36-1.243 3.252 0 .956.445 1.435 1.339 1.435.384.001.782-.191 1.197-.574zm9.612-2.485c0-.637.063-1.498.191-2.583.319-2.487.478-5.387.478-8.704 0-2.932-.765-15.16-2.296-36.68-1.53-21.521-2.296-33.556-2.296-36.107 0-2.997-.478-5.451-1.435-7.364 0-1.084.861-3.636 2.583-7.652.254-.51.445-.765.574-.765.191 0 .414.255.67.765.51 1.021 1.689 3.969 3.539 8.847 1.849 4.878 2.932 7.891 3.252 9.039.191.893.287 1.563.287 2.009 0 .383-.129.573-.383.573-.574 0-1.755-1.019-3.539-3.061-.129-.126-.224-.19-.287-.19-.129 0-.191.255-.191.765 0 .255.685 9.772 2.056 28.551 1.371 18.78 2.057 29.349 2.057 31.707 0 7.207-1.085 13.551-3.252 19.034-.894 2.041-1.468 3.061-1.722 3.061-.19-.002-.286-.416-.286-1.245zm.957 31.802c.828-.798 1.243-1.865 1.243-3.204 0-1.403-.798-2.104-2.391-2.104-.702 0-1.307.222-1.817.67 0-.83.557-2.105 1.674-3.826 1.115-1.723 2.183-3.061 3.204-4.018.191-.19.287-.383.287-.573 0-.192-.064-.32-.191-.383l-.383.19c-1.339.828-2.807 2.392-4.4 4.687-1.722 2.55-2.583 4.749-2.583 6.6 0 2.103.924 3.156 2.774 3.156.893.001 1.754-.398 2.583-1.195zm2.344-154.902c.414-.383.621-.892.621-1.53-.064-.701-.478-1.053-1.243-1.053-.32 0-.607.129-.861.383 0-.445.27-1.083.813-1.913.541-.827 1.067-1.465 1.578-1.913l.096-.19c0-.127-.033-.192-.096-.192h-.191c-.638.448-1.356 1.244-2.152 2.392-.798 1.148-1.195 2.168-1.195 3.061 0 1.021.445 1.53 1.339 1.53.444-.001.875-.192 1.291-.575zm6.743 85.509c0-.063.158-.254.478-.574 1.658-1.849 2.487-3.092 2.487-3.731 0-.573-.255-.86-.765-.86-.383.064-.67.16-.861.287l-.287.19-.191-.095.096-.478c.319-1.211.956-1.818 1.913-1.818.828 0 1.243.511 1.243 1.53 0 .765-.32 1.642-.956 2.631-.638.989-1.468 1.833-2.487 2.534l-.67.479c-.065-.062-.065-.095-0-.095zm.478 53.467c1.658-1.786 2.487-2.998 2.487-3.634 0-.575-.255-.861-.765-.861-.383.063-.67.158-.861.286l-.287.192-.191-.096.096-.479c.319-1.212.956-1.817 1.913-1.817.828 0 1.243.51 1.243 1.53 0 .765-.32 1.641-.956 2.631-.638.988-1.468 1.832-2.487 2.534l-.67.383c-.064 0-.064 0 0 0-0-.063.158-.286.478-.669zm7.317-35.006c.604-.575.908-1.34.908-2.296 0-1.02-.575-1.53-1.723-1.53-.511 0-.956.159-1.338.478 0-.637.397-1.561 1.195-2.773.796-1.211 1.578-2.167 2.343-2.87.128-.19.192-.35.192-.478-.064-.127-.128-.191-.192-.191l-.19.096c-1.021.573-2.074 1.69-3.158 3.347-1.275 1.85-1.912 3.443-1.912 4.782 0 1.53.67 2.296 2.009 2.296.638-.001 1.259-.288 1.866-.861zm-1.962 49.067c3.443-3.826 5.166-6.377 5.166-7.652 0-1.212-.542-1.818-1.626-1.818-.639 0-1.181.159-1.627.479-.447.319-.701.479-.765.479-.064-.065-.159-.096-.286-.096.062-.128.126-.479.19-1.052.575-2.552 1.944-3.826 4.113-3.826 1.593 0 2.391 1.052 2.391 3.156 0 1.594-.654 3.427-1.961 5.5-1.307 2.071-3.013 3.841-5.116 5.308-.894.575-1.404.861-1.531.861.001-.128.351-.574 1.052-1.339zm0-173.984.765-.956c2.55-2.741 3.826-4.558 3.826-5.452 0-.828-.414-1.243-1.243-1.243-.447 0-.829.096-1.148.287s-.511.287-.573.287h-.192l.095-.478c.383-2.04 1.34-3.061 2.87-3.061 1.274 0 1.913.765 1.913 2.296 0 1.148-.478 2.455-1.435 3.922-.956 1.468-2.2 2.742-3.731 3.826-.573.447-.924.669-1.051.669zm3.11 85.175c.414-.415.621-.909.621-1.483 0-.701-.416-1.053-1.243-1.053-.32 0-.606.096-.86.287 0-.383.271-.988.813-1.818.54-.827 1.067-1.465 1.578-1.913.062-.062.095-.158.095-.286v-.096c0-.062-.033-.095-.095-.095-.511 0-1.243.798-2.2 2.391-.893 1.213-1.338 2.264-1.338 3.157 0 1.021.445 1.53 1.338 1.53.446 0 .876-.205 1.291-.621zm-1.58 8.847c0-.191.416-.574 1.245-1.148l10.998-6.504c4.401-2.678 7.685-5.165 9.852-7.461-2.869-1.466-4.304-3.028-4.304-4.687 0-1.975.924-3.793 2.773-5.451 1.466-1.275 2.709-1.913 3.731-1.913 1.53 0 2.296 1.148 2.296 3.443 0 1.659-.32 3.507-.957 5.548 1.402.829 2.296 1.53 2.678 2.104 0 .765-.637 2.073-1.913 3.921-.383-.573-1.276-1.274-2.678-2.103-1.594 2.232-3.634 4.273-6.121 6.121-2.806 2.041-5.387 3.603-7.747 4.686-.511.255-3.251 1.276-8.225 3.061-.765.319-1.276.478-1.53.478-.065-0-.098-.031-.098-.095zm6.84 8.37c-.86-.861-1.291-1.896-1.291-3.108 0-1.211.43-2.248 1.291-3.109.862-.86 1.865-1.291 3.013-1.291 1.212 0 2.263.431 3.156 1.291.893.861 1.34 1.898 1.34 3.109 0 1.212-.447 2.247-1.34 3.108-.893.86-1.944 1.291-3.156 1.291-1.148-.001-2.151-.431-3.013-1.291zm3.97-18.891c0-.574.095-1.466.286-2.678.254-2.487.383-5.387.383-8.704 0-2.997-.621-13.248-1.864-30.751-1.245-17.504-1.865-27.53-1.865-30.081 0-2.997-.447-5.452-1.34-7.365 0-1.084.86-3.666 2.583-7.747.19-.445.383-.67.573-.67.319 0 1.69 3.189 4.113 9.565 2.424 6.377 3.636 10.044 3.636 10.999 0 .448-.128.67-.383.67-.575 0-1.787-1.053-3.636-3.156l-.19-.192c-.128 0-.192.287-.192.861 0 .255.542 7.78 1.626 22.573 1.084 14.794 1.627 23.338 1.627 25.634 0 7.269-1.117 13.646-3.348 19.13-.829 2.041-1.371 3.061-1.626 3.061-.257-.001-.383-.384-.383-1.149zm.048 68.77c.414-.383.621-.891.621-1.53 0-.7-.383-1.052-1.148-1.052-.383 0-.701.128-.956.383 0-.446.271-1.067.813-1.865.542-.796 1.067-1.45 1.578-1.961l.095-.191c0-.127-.031-.191-.095-.191l-.19.096c-.639.383-1.356 1.148-2.153 2.296-.798 1.148-1.195 2.168-1.195 3.061 0 1.021.478 1.53 1.435 1.53.382-.001.779-.193 1.195-.576zm9.42-23.816c2.041-1.402 3.061-2.391 3.061-2.966 0-1.019-.829-2.63-2.486-4.83-1.659-2.199-3.125-3.3-4.401-3.3-.956 0-1.896.574-2.821 1.722-.924 1.148-1.388 2.264-1.388 3.347 0 .894.511 2.456 1.53 4.687.893 1.977 1.563 3.285 2.01 3.922 1.339-.573 2.836-1.434 4.495-2.582zm-3.299-26.063c-.86-.861-1.292-1.896-1.292-3.108 0-1.211.432-2.248 1.292-3.109.86-.86 1.896-1.291 3.108-1.291 1.21 0 2.248.431 3.108 1.291.86.861 1.291 1.898 1.291 3.109 0 1.212-.43 2.247-1.291 3.108-.86.86-1.898 1.291-3.108 1.291-1.211-.001-2.247-.431-3.108-1.291zm5.069 64.035c.86-.829 1.291-1.881 1.291-3.156-.064-1.403-.893-2.104-2.486-2.104-.703 0-1.307.191-1.818.574 0-.829.558-2.09 1.675-3.778 1.115-1.69 2.182-3.013 3.204-3.969.19-.256.287-.479.287-.67s-.097-.287-.287-.287l-.287.096c-1.338.828-2.773 2.423-4.304 4.782-1.787 2.55-2.678 4.749-2.678 6.599 0 2.105.956 3.157 2.869 3.157.828-0 1.674-.415 2.534-1.244zm-1.483-129.411c2.488-2.678 3.731-4.496 3.731-5.451 0-.828-.416-1.244-1.243-1.244-.447 0-.813.096-1.1.286-.287.192-.494.32-.622.383 0-.062-.033-.095-.095-.095l.095-.478c.319-2.04 1.243-3.061 2.773-3.061 1.276 0 1.913.765 1.913 2.296 0 1.148-.478 2.455-1.433 3.921-.957 1.467-2.2 2.742-3.731 3.826-.575.447-.924.67-1.053.67-0-.128.255-.479.765-1.053zm3.636 36.059c0-1.53-.511-2.296-1.53-2.296-.32 0-.765.16-1.34.479-.573.319-.86.638-.86.956 0 .702 1.148 1.626 3.443 2.773.19-.635.287-1.273.287-1.912zm-3.253-64.371c0-1.211.701-3.013 2.105-5.404 1.402-2.392 2.614-3.587 3.634-3.587.829 0 1.561.383 2.2 1.148.637.765.956 1.722.956 2.869 0 1.722-.606 3.412-1.816 5.069-1.212 1.659-2.678 2.488-4.401 2.488-1.785 0-2.678-.861-2.678-2.583zm5.021 48.685c.606-.573.91-1.338.91-2.296 0-1.019-.575-1.53-1.723-1.53-.511 0-.956.16-1.338.479 0-.637.397-1.561 1.195-2.774.796-1.21 1.578-2.167 2.343-2.869.126-.127.19-.287.19-.479 0-.127-.031-.191-.095-.191l-.287.095c-1.02.575-2.072 1.691-3.156 3.348-1.276 1.85-1.913 3.443-1.913 4.782 0 1.53.67 2.296 2.008 2.296.638 0 1.26-.287 1.866-.861zm2.343-51.65c0-1.657-1.084-2.486-3.251-2.486-.32 0-.846.511-1.578 1.53-.734 1.021-1.1 1.721-1.1 2.103.254.575 1.084.861 2.486.861 2.296.001 3.443-.668 3.443-2.008zm1.1 105.022c.416-.383.622-.892.622-1.53 0-.701-.383-1.053-1.148-1.053-.383 0-.703.095-.957.287 0-.383.271-.989.815-1.818.54-.828 1.067-1.466 1.578-1.913.062-.063.095-.158.095-.287v-.19l-.192.095c-.701.383-1.433 1.164-2.199 2.343-.765 1.181-1.148 2.281-1.148 3.301 0 .893.445 1.338 1.338 1.338.384 0 .781-.19 1.196-.573zm.335 24.103.478-.575c1.659-1.848 2.488-3.061 2.488-3.634 0-.575-.256-.861-.765-.861-.32 0-.575.064-.765.191-.192.128-.32.191-.383.191h-.095l.095-.479c.254-1.274.86-1.913 1.818-1.913.827 0 1.243.512 1.243 1.53 0 .765-.32 1.643-.957 2.631-.637.989-1.466 1.834-2.486 2.535l-.67.478v-.094zm7.797 21.138c.414-.383.621-.893.621-1.53 0-.702-.383-1.053-1.148-1.053-.383 0-.701.127-.956.383 0-.447.271-1.066.813-1.864.54-.797 1.067-1.419 1.578-1.865l.095-.286v-.192l-.19.096c-.639.383-1.356 1.148-2.153 2.296-.798 1.148-1.195 2.167-1.195 3.061 0 1.02.445 1.53 1.338 1.53.382-.002.781-.193 1.197-.576zm7.269-132.089c.604-.575.908-1.34.908-2.296 0-1.02-.575-1.53-1.723-1.53-.511 0-.956.159-1.338.478 0-.574.397-1.483 1.195-2.726.796-1.244 1.578-2.184 2.343-2.822.128-.191.192-.35.192-.479 0-.126-.033-.19-.097-.19l-.286.095c-1.021.574-2.074 1.691-3.158 3.348-1.276 1.85-1.913 3.443-1.913 4.781 0 1.468.67 2.2 2.01 2.2.639.001 1.259-.286 1.867-.859zm1.864 122.237c1.659-1.784 2.488-2.996 2.488-3.634 0-.575-.256-.861-.765-.861-.383 0-.67.096-.86.286l-.287.192-.192-.096.192-.479c.254-1.21.86-1.817 1.818-1.817.827 0 1.243.479 1.243 1.434 0 .83-.32 1.723-.957 2.678-.637.957-1.466 1.818-2.486 2.583l-.67.383c-.002-.062.157-.287.476-.669zm7.079-12.147c0-.574.062-1.402.19-2.487.319-2.487.48-5.387.48-8.704 0-2.932-.91-17.152-2.726-42.658-1.818-25.506-2.728-39.534-2.728-42.085 0-2.997-.447-5.452-1.338-7.365 0-1.211.86-3.793 2.583-7.748.19-.445.383-.669.573-.669.192 0 .383.224.575.669.509 1.086 1.657 4.018 3.443 8.8 2.486 6.442 3.729 10.14 3.729 11.095 0 .448-.128.67-.383.67-.573 0-1.785-1.053-3.634-3.156-.128-.127-.223-.192-.287-.192-.128 0-.19.256-.19.765 0 .256.844 11.782 2.534 34.577 1.69 22.797 2.535 35.375 2.535 37.733 0 7.207-1.117 13.551-3.348 19.034-.765 1.977-1.338 2.966-1.721 2.966-.192-.001-.287-.416-.287-1.245zm3.73-73.84c0-.127.35-.574 1.051-1.339 3.507-3.826 5.261-6.376 5.261-7.652 0-1.148-.573-1.722-1.721-1.722-.575 0-1.086.144-1.53.43-.447.287-.703.431-.765.431l-.287-.096.19-.956c.575-2.614 1.882-3.921 3.923-3.921 1.721 0 2.581 1.052 2.581 3.156 0 1.594-.668 3.429-2.008 5.5-1.338 2.072-3.061 3.842-5.164 5.308-.829.575-1.309.861-1.435.861zm1.816 12.339.48-.575c1.657-1.848 2.486-3.061 2.486-3.634 0-.575-.254-.861-.765-.861-.319 0-.573.064-.765.191-.19.128-.319.191-.383.191h-.095l.095-.479c.254-1.274.86-1.913 1.818-1.913.827 0 1.243.512 1.243 1.53 0 .765-.319 1.643-.956 2.631-.639.989-1.468 1.834-2.488 2.535l-.67.478zm4.353 19.799c.414-.383.621-.892.621-1.53 0-.701-.383-1.052-1.148-1.052-.383 0-.701.128-.956.383 0-.446.271-1.067.813-1.865.542-.797 1.067-1.419 1.578-1.865l.095-.287v-.19l-.19.095c-.639.383-1.355 1.148-2.153 2.296s-1.195 2.168-1.195 3.061c0 1.021.447 1.53 1.34 1.53.383-.003.78-.194 1.195-.576zm-2.152 19.512c0-.127.35-.574 1.053-1.339 3.506-3.762 5.261-6.313 5.261-7.652 0-1.148-.575-1.722-1.723-1.722-.573 0-1.084.144-1.53.43-.447.287-.701.431-.765.431l-.287-.096.192-.956c.573-2.614 1.88-3.921 3.921-3.921 1.723 0 2.583 1.052 2.583 3.156 0 1.594-.67 3.429-2.008 5.5-1.34 2.072-3.061 3.842-5.166 5.308-.829.575-1.307.861-1.435.861zm7.796-30.751c.86-.796 1.291-1.865 1.291-3.204 0-1.402-.829-2.105-2.488-2.105-.701 0-1.307.224-1.816.67 0-.828.557-2.104 1.673-3.826 1.115-1.722 2.184-3.061 3.204-4.017.192-.191.287-.383.287-.574s-.064-.319-.19-.383l-.383.191c-1.34.829-2.775 2.392-4.306 4.687-1.785 2.551-2.678 4.75-2.678 6.599 0 2.104.957 3.156 2.87 3.156.828.001 1.674-.396 2.536-1.194z" fill="#eea565"/></svg>