<svg xmlns="http://www.w3.org/2000/svg" xmlns:xlink="http://www.w3.org/1999/xlink" id="Layer_1" width="297" height="324.573" x="0" y="0" enable-background="new 0 0 297 324.573" version="1.1" viewBox="0 0 297 324.573" xml:space="preserve"><g><g><g><g><radialGradient id="SVGID_1_" cx="133.07" cy="89.082" r="499.021" gradientTransform="matrix(0.7929 0 0 0.7929 30.7483 28.3356)" gradientUnits="userSpaceOnUse"><stop offset="0" style="stop-color:#f1af70"/><stop offset="1" style="stop-color:#d35727"/></radialGradient><path fill="url(#SVGID_1_)" d="M211.79,55.507c0.302,0.478,0.597,0.975,0.875,1.484c0,0,15.248-14.108,27.513,7.711 c10.001,17.786,22.485,27.483,36.935,25.282c-9.392,11.211-7.586,26.908,2.401,44.694c12.273,21.819-7.709,27.511-7.709,27.511 c0.293,0.509,0.557,1.018,0.814,1.52c-0.264,0.497-0.551,0.997-0.845,1.5c0,0,19.843,6.15,7.073,27.678 c-10.399,17.551-12.56,33.207-3.424,44.63c-14.396-2.533-27.103,6.88-37.508,24.427c-12.769,21.532-27.676,7.075-27.676,7.075 c-0.302,0.507-0.605,0.991-0.915,1.47c-0.567,0.01-1.124,0.022-1.721,0.008c0,0,4.604,20.259-20.43,19.976 c-20.4-0.233-35.035,5.73-40.359,19.348c-5.013-13.741-19.511-20.034-39.909-20.267c-25.026-0.286-19.968-20.43-19.968-20.43 c-0.589-0.01-1.162-0.03-1.719-0.056c-0.304-0.485-0.591-0.979-0.877-1.488c0,0-15.249,14.115-27.521-7.707 c-10.003-17.784-22.477-27.483-36.935-25.284c9.398-11.207,7.6-26.902-2.401-44.69c-12.273-21.821,7.717-27.517,7.717-27.517 c-0.296-0.509-0.565-1.015-0.814-1.514c0.271-0.501,0.549-0.997,0.846-1.504c0,0-19.845-6.147-7.083-27.682 c10.405-17.553,12.566-33.209,3.434-44.624c14.394,2.533,27.101-6.876,37.508-24.431c12.765-21.532,27.674-7.075,27.674-7.075 c0.294-0.505,0.603-0.993,0.907-1.466c0.567-0.018,1.138-0.02,1.727-0.018c0,0-4.602-20.253,20.424-19.967 c20.408,0.235,35.051-5.724,40.369-19.346c5.004,13.736,19.501,20.032,39.901,20.265c25.034,0.288,19.968,20.434,19.968,20.434 C210.66,55.458,211.231,55.476,211.79,55.507z"/><radialGradient id="SVGID_2_" cx="148.504" cy="168.926" r="209.049" gradientTransform="matrix(0.7929 0 0 0.7929 30.7483 28.3356)" gradientUnits="userSpaceOnUse"><stop offset=".258" style="stop-color:#81482a"/><stop offset=".462" style="stop-color:#7d4528"/><stop offset=".656" style="stop-color:#723e20"/><stop offset=".845" style="stop-color:#5f3115"/><stop offset="1" style="stop-color:#492207"/></radialGradient><path fill="url(#SVGID_2_)" d="M207.101,63.424c0.279,0.442,0.543,0.899,0.806,1.377c0,0,14.116-13.067,25.477,7.136 c9.259,16.467,20.818,25.444,34.185,23.41c-8.686,10.375-7.013,24.912,2.238,41.377c11.358,20.203-7.144,25.473-7.144,25.473 c0.264,0.472,0.513,0.937,0.752,1.409c-0.249,0.454-0.503,0.921-0.776,1.389c0,0,18.371,5.688,6.549,25.627 c-9.631,16.244-11.63,30.74-3.177,41.316c-13.336-2.344-25.088,6.364-34.719,22.619c-11.824,19.933-25.621,6.549-25.621,6.549 c-0.288,0.468-0.567,0.919-0.845,1.359c-0.521,0.008-1.054,0.018-1.604,0.014c0,0,4.261,18.751-18.914,18.484 c-18.888-0.211-32.441,5.308-37.367,17.915c-4.641-12.715-18.061-18.546-36.951-18.761c-23.174-0.264-18.488-18.92-18.488-18.92 c-0.541-0.004-1.068-0.024-1.594-0.052c-0.279-0.442-0.543-0.905-0.806-1.373c0,0-14.125,13.069-25.482-7.136 c-9.251-16.467-20.804-25.442-34.187-23.41c8.694-10.373,7.021-24.912-2.228-41.377c-11.362-20.203,7.142-25.473,7.142-25.473 c-0.263-0.474-0.511-0.947-0.752-1.407c0.247-0.464,0.505-0.919,0.776-1.391c0,0-18.365-5.69-6.548-25.625 c9.623-16.252,11.631-30.744,3.179-41.322c13.332,2.352,25.087-6.362,34.719-22.618c11.822-19.933,25.619-6.548,25.619-6.548 c0.29-0.469,0.567-0.919,0.847-1.357c0.519-0.016,1.054-0.02,1.594-0.016c0,0-4.26-18.753,18.922-18.484 c18.89,0.219,32.447-5.302,37.367-17.919c4.635,12.719,18.053,18.546,36.951,18.767c23.183,0.267,18.494,18.918,18.494,18.918 C206.055,63.38,206.576,63.398,207.101,63.424z"/><radialGradient id="SVGID_3_" cx="63.399" cy="12.008" r="595.484" gradientTransform="matrix(0.7929 0 0 0.7929 30.7483 28.3356)" gradientUnits="userSpaceOnUse"><stop offset="0" style="stop-color:#f1af70"/><stop offset="1" style="stop-color:#d35727"/></radialGradient><path fill="url(#SVGID_3_)" d="M148.504,59.379c56.832,0,102.91,46.075,102.91,102.91c0,56.836-46.077,102.911-102.91,102.911 c-56.84,0-102.918-46.075-102.918-102.911C45.586,105.454,91.663,59.379,148.504,59.379 M148.504,52.927 c-60.303,0-109.362,49.059-109.362,109.362c0,60.302,49.059,109.364,109.362,109.364c60.302,0,109.364-49.061,109.364-109.364 C257.867,101.986,208.806,52.927,148.504,52.927L148.504,52.927z"/></g></g><g display="none"><path fill="#EEA565" d="M100.225,133.941c0.564,0,1.112-0.109,1.645-0.328c0.532-0.219,0.893-0.612,1.081-1.175 c0.125-0.376,0.218-0.721,0.282-1.035c0.061-0.313,0.125-0.626,0.188-0.94c0.376-0.313,0.752-0.626,1.128-0.938 c0,0.063,0.031,0.094,0.094,0.094c0,0.063,0,0.126,0,0.187c-0.127,0.503-0.221,1.005-0.282,1.505 c0.061,0.816,0.407,1.411,1.034,1.787c1.002-1.505,2.163-2.946,3.479-4.325c0.564-0.437,1.206-0.83,1.927-1.175 c0.72-0.343,1.458-0.547,2.209-0.61c1.442,0.063,2.475,0.658,3.103,1.785c0.188,0.376,0.313,0.706,0.376,0.988 c0.062,0.282,0.094,0.643,0.094,1.081c0,0.315-0.032,0.58-0.094,0.799c-0.063,0.219-0.157,0.517-0.282,0.893 c-0.376,0.751-0.831,1.364-1.363,1.833c-0.533,0.471-1.269,0.862-2.209,1.175c-0.564,0.189-1.222,0.33-1.974,0.423 c-0.752,0.095-1.505,0.141-2.257,0.141c-0.878,0-1.739-0.124-2.585-0.376c-0.846-0.25-1.584-0.719-2.209-1.409h-0.094 c-0.879,1.127-2.257,1.661-4.137,1.598v0.094c-1.317-0.189-2.289-0.658-2.915-1.411c-0.627-0.813-1.003-1.911-1.128-3.29h-0.094 c-0.439,1.316-1.285,2.319-2.538,3.009v0.094c0.564,0.187,0.972,0.439,1.222,0.751c0.25,0.315,0.377,0.816,0.377,1.505 c0,0.315-0.094,0.706-0.282,1.175c-0.188,0.471-0.377,0.862-0.564,1.175c-3.134,2.321-6.503,3.902-10.106,4.749 c-3.605,0.847-7.161,1.268-10.671,1.268c-2.82-0.061-5.265-0.469-7.333-1.221c-2.006-0.69-3.699-1.613-5.077-2.775 c-1.379-1.158-2.319-2.035-2.821-2.632c-0.502-0.595-1.034-1.425-1.598-2.491c0-0.063,0.031-0.126,0.094-0.189 c0-0.061,0.031-0.061,0.094,0v-0.094c0.124,0.126,0.751,0.721,1.88,1.785c1.253,1.192,3.197,2.397,5.829,3.62 c2.633,1.222,5.735,1.834,9.308,1.834c3.384,0.063,6.736-0.313,10.059-1.129c3.321-0.814,6.487-2.193,9.495-4.137 c0.061-0.061,0.125-0.124,0.188-0.189c0.125-0.061,0.219-0.124,0.282-0.187c0.061-0.063,0.061-0.156,0-0.282 c-0.252-0.564-0.862-0.925-1.834-1.081c-0.972-0.156-1.865-0.235-2.679-0.235c-0.251,0-0.439,0-0.564,0 c0-0.063-0.032-0.095-0.094-0.095v-0.094c0.25-0.5,0.502-1.001,0.752-1.505c0-0.124,0.031-0.248,0.094-0.376 c1.629-0.25,3.164-0.719,4.607-1.409c0.751-0.753,1.222-1.457,1.41-2.115c0.188-0.658,0.249-1.613,0.188-2.868 c0-1.001-0.048-2.193-0.141-3.572c-0.094-1.379-0.173-2.6-0.235-3.667c0.438-0.626,0.908-1.158,1.41-1.598h0.094h0.094 c0.189,3.7,0.313,7.365,0.377,11c0,1.379,0.343,2.632,1.034,3.761c0.564,0.502,1.317,0.784,2.256,0.845H100.225z M100.977,138.831l1.316-1.974h0.188v0.094c0.188,3.511,0.282,7.302,0.282,11.376c0,1.255,0.876,1.88,2.632,1.88h1.035 c0.626,0,1.441-0.126,2.444-0.377v-0.094c-1.316-0.751-1.974-1.817-1.974-3.196c0-0.689,0.25-1.377,0.752-2.067 c0.876-1.505,1.974-2.258,3.29-2.258c1.566,0,2.788,0.91,3.666,2.727l-0.281,0.282c-0.752-0.689-1.725-1.034-2.915-1.034 c-0.878,0-1.598,0.156-2.162,0.469c-0.564,0.315-0.847,0.597-0.847,0.847c0,0.814,0.47,1.598,1.41,2.35 c0.752,0.564,1.41,0.847,1.975,0.847c0.94,0,2.475-0.343,4.607-1.034l0.094-0.095l0.094,0.095l-0.94,1.974 c-1.38,0.502-2.538,0.879-3.479,1.127c-1.316,0.315-2.101,0.534-2.35,0.658c-1.692,0.564-3.008,0.847-3.949,0.847h-0.47 c-1.88,0-3.071-0.564-3.572-1.692c-0.627,1.127-1.693,1.692-3.196,1.692h-0.282c-1.067,0-1.88-0.124-2.444-0.376 c-0.564-0.25-1.004-0.658-1.317-1.222c-0.627,1.066-1.818,1.598-3.572,1.598H71.269h-0.47l-0.377-0.094 c-0.376-0.061-0.69-0.156-0.94-0.282c-0.815-0.439-1.536-1.129-2.162-2.069l-1.035-1.409c-0.251-0.25-0.502-0.376-0.752-0.376 c-1.504,0.063-2.82,1.505-3.948,4.324l-0.47,1.129c-0.627,1.442-1.317,2.163-2.068,2.163c-0.377,0-0.722-0.126-1.035-0.376 c-1.38-0.94-2.068-3.133-2.068-6.581c0.125-1.942,0.376-2.945,0.752-3.009c-0.127,0.879-0.22,1.787-0.282,2.727 c0,2.256,0.501,3.854,1.504,4.794c0.314,0.315,0.627,0.471,0.94,0.471h0.47c0.564-0.126,1.206-1.018,1.927-2.679 c0.72-1.661,1.331-2.836,1.834-3.526c0.814-1.19,1.66-1.787,2.538-1.787c0.689,0,1.41,0.692,2.163,2.069 c0.626,1.127,1.629,1.913,3.008,2.35l0.281,0.095h0.658h12.128h7.145c0.876,0,1.582-0.126,2.115-0.377 c0.532-0.248,0.893-0.626,1.081-1.127l0.376-1.692l1.222-0.847l0.094,0.187c-0.252,0.879-0.377,1.474-0.377,1.787 c0,1.379,0.94,2.069,2.821,2.069c0.94,0,1.693-0.189,2.256-0.564c0.501-0.25,0.752-0.877,0.752-1.88 C101.353,146.32,101.226,143.343,100.977,138.831z M77.192,147.48v-0.282l1.504-1.505l0.094-0.094v0.94l0.094,3.103 c0.062,1.255,0.125,2.601,0.189,4.043c0,2.067,0,4.356,0,6.862c0,0.376,0.172,0.785,0.517,1.222 c0.343,0.439,0.987,0.658,1.927,0.658h12.316c1.504,0.063,2.662-0.469,3.479-1.598l0.939-1.222l1.222-0.469l0.094,0.094 c-0.752,1.066-1.128,1.85-1.128,2.35c0.061,0.564,0.343,0.847,0.846,0.847c0.438,0,0.908-0.155,1.41-0.469 c0.313-0.189,0.531-0.423,0.658-0.706c0.125-0.282,0.25-0.736,0.376-1.364c0.062-0.187,0.125-0.376,0.189-0.564l0.939-0.563 h0.189c-0.189,0.69-0.282,1.253-0.282,1.692c0,0.627,0.188,1.097,0.564,1.409c0.377,0.315,0.752,0.471,1.128,0.471 c0.25,0,0.47-0.061,0.659-0.189c0.188-0.124,0.281-0.313,0.281-0.564c0-0.626-0.156-1.503-0.47-2.632 c0.438-0.564,0.94-1.064,1.505-1.505l0.094,0.095c0.188,1.255,0.281,2.195,0.281,2.821c0,0.376-0.063,0.784-0.188,1.221 c-0.126,0.44-0.282,0.785-0.47,1.035c-0.315,0.563-0.674,1.018-1.081,1.362c-0.408,0.347-0.862,0.519-1.363,0.519 c-0.69,0-1.349-0.471-1.975-1.411h-0.094c-0.439,0.44-0.879,0.785-1.317,1.034c-0.439,0.252-0.972,0.377-1.598,0.377 c-0.878,0-1.379-0.471-1.504-1.411h-0.188c-0.502,0.564-1.067,0.94-1.693,1.129c-0.627,0.187-1.222,0.282-1.786,0.282H80.2 c-0.439,0-0.752-0.095-0.94-0.282c-0.502-0.439-0.879-0.94-1.128-1.505c-0.252,0.502-0.644,0.925-1.176,1.268 c-0.533,0.347-1.207,0.519-2.021,0.519h-7.051c-0.502,0-0.94-0.126-1.316-0.377c-0.439-0.248-0.815-0.626-1.128-1.127h-0.094 c-0.126,0.69-0.376,1.285-0.752,1.787c-0.376,0.502-0.846,0.751-1.409,0.751c-1.128,0-2.084-0.485-2.867-1.457 c-0.785-0.971-1.208-2.21-1.269-3.713c-1.255,1.066-1.88,1.943-1.88,2.632c0,0.69,0.249,1.88,0.751,3.572 c0.502,1.443,0.924,2.742,1.269,3.902c0.344,1.16,0.518,1.926,0.518,2.304c0,0.814-0.127,1.63-0.377,2.443h-0.188 c-0.439-1.816-1.066-3.727-1.88-5.735c-0.314-1.064-0.611-2.067-0.893-3.008c-0.282-0.94-0.423-1.692-0.423-2.256 c0-0.689,0.094-1.348,0.282-1.974c0.313-1.253,0.876-2.193,1.692-2.821c0.189-0.189,0.344-0.345,0.47-0.471 c1.065-0.94,1.975-1.817,2.727-2.632h0.188c0.876,0.69,1.723,1.505,2.538,2.445c0.501,0.563,0.94,1.127,1.316,1.692 c0.188,0.315,0.407,0.627,0.658,0.94c0.25,0.315,0.611,0.564,1.081,0.751c0.47,0.189,0.924,0.282,1.364,0.282h6.768 c0.626,0,1.253-0.187,1.88-0.564c0.25-0.124,0.438-0.328,0.564-0.61c0.124-0.282,0.188-0.706,0.188-1.27 c0-3.32-0.127-6.675-0.377-10.058v-0.282L77.192,147.48z M61.867,144.848c-0.376-0.502-0.69-0.753-0.94-0.753 c-0.188,0-0.314,0.189-0.376,0.564l0.094-0.094c0.061-0.189,0.125-0.25,0.188-0.189c-0.252,0.376-0.377,0.658-0.377,0.847 c0,0.063,0.031,0.126,0.094,0.189c0.125,0,0.282,0.032,0.47,0.094c-0.315,0.564-0.752,1.066-1.316,1.505 c-0.69,0.626-1.16,1.034-1.41,1.221l-0.847,0.564l0.377-0.094c0.188-0.061,0.501-0.282,0.94-0.658 c1.128-0.753,1.911-1.535,2.35-2.351c0-0.061,0.031-0.094,0.094-0.094c0.188,0.063,0.344,0.094,0.47,0.094 c0.062,0,0.156-0.031,0.282-0.094C62.087,145.35,62.056,145.1,61.867,144.848z M59.658,124.165 c0.595-0.502,0.988-0.908,1.176-1.222c-0.063-0.063-0.188-0.156-0.377-0.282c-0.188-0.126-0.281-0.282-0.281-0.471 c0-0.124,0.094-0.296,0.281-0.517c0.189-0.218,0.377-0.328,0.564-0.328c0.188,0,0.313,0.126,0.376,0.376 c-0.063,0.189-0.157,0.469-0.281,0.847c0.249,0.187,0.343,0.376,0.281,0.563c0,0.128-0.032,0.252-0.094,0.377 c-0.064-0.25-0.188-0.439-0.377-0.564c-0.188,0.376-0.533,0.814-1.034,1.316c-0.502,0.502-1.255,0.879-2.256,1.127 C58.389,125.073,59.062,124.667,59.658,124.165z M60.552,138.267c-1.63-0.689-2.476-2.851-2.538-6.486v-0.658 c0-0.814,0.031-1.285,0.094-1.411l0.094-0.094c0.125,0,0.188,0.187,0.188,0.564c0.125,2.758,0.502,4.575,1.129,5.452 c0.376,0.627,0.907,0.94,1.598,0.94c0.689,0,1.189-0.814,1.504-2.445c0.062-0.313,0.156-0.719,0.282-1.222 c0.501-3.008,1.222-5.201,2.162-6.581c0.438-0.563,0.783-0.845,1.035-0.845c0.062,0,0.125,0.032,0.188,0.094l0.188,0.094 c0.062,0.252,0.094,0.534,0.094,0.847c0,0.503-0.063,1.097-0.188,1.787c-0.188,1.19-0.282,2.226-0.282,3.101 c0,0.753,0.094,1.443,0.282,2.069c0.438,1.127,1.378,1.692,2.82,1.692c1.505,0,2.727-0.813,3.667-2.443l0.094-0.94 c0-2.193-0.376-4.262-1.128-6.206l-0.094-0.469c-0.126-0.126-0.22-0.282-0.281-0.471c0.438-1.127,0.751-1.848,0.94-2.163 c0.564,1.003,1.08,2.807,1.551,5.407c0.47,2.601,0.799,4.089,0.988,4.465c0.751,1.318,1.629,1.976,2.632,1.976 c0.94,0,1.786-0.313,2.538-0.94c-0.063-0.313-0.533-1.364-1.41-3.15c-0.878-1.785-1.443-3.587-1.692-5.405l-0.377-0.471 l1.222-2.163c0.125,0.252,0.438,0.816,0.94,1.693c0.501,0.877,0.908,1.535,1.222,1.974c0.124,0.315,0.188,0.502,0.188,0.564 v0.094c-0.127,0-0.377-0.124-0.752-0.376c-0.315-0.189-0.502-0.282-0.564-0.282c0.438,1.505,0.877,2.695,1.317,3.572 c0.438,0.879,0.658,1.819,0.658,2.821v0.282c0,0.751-0.268,1.63-0.799,2.632c-0.533,1.003-1.332,1.505-2.397,1.505 c-2.068-0.061-3.448-1.377-4.137-3.948l-0.094-0.471c-0.315,1.505-0.596,2.508-0.846,3.009c-0.879,1.63-2.068,2.443-3.573,2.443 c-1.504,0-2.632-0.658-3.384-1.974c-0.376-0.689-0.597-1.472-0.658-2.35l0.376-4.983c0-0.124,0-0.219,0-0.282 c-0.627,0.564-1.128,2.132-1.504,4.701c-0.377,2.571-0.752,4.169-1.128,4.794c-0.439,0.502-0.847,0.751-1.222,0.751 S60.801,138.33,60.552,138.267z M63.748,124.259c-0.376-0.502-0.69-0.751-0.94-0.751c-0.188,0-0.315,0.187-0.376,0.563h0.094 c0.062-0.187,0.125-0.25,0.189-0.187c-0.252,0.315-0.377,0.564-0.377,0.751c0,0.063,0.031,0.126,0.094,0.189 c0.125,0.063,0.282,0.126,0.47,0.187c-0.315,0.503-0.752,0.972-1.316,1.411c-0.691,0.627-1.161,1.034-1.41,1.222l-0.847,0.658 l0.377-0.189c0.188-0.061,0.501-0.25,0.94-0.564c1.128-0.813,1.911-1.629,2.35-2.443l0.094-0.095 c0.188,0.063,0.343,0.095,0.47,0.095c0.062,0,0.156-0.032,0.282-0.095C63.967,124.823,63.936,124.573,63.748,124.259z M61.397,162.521c0.189,0.189,0.454,0.362,0.799,0.519c0.344,0.156,0.736,0.235,1.176,0.235c0.25,0,0.501-0.063,0.752-0.189 c0.249-0.124,0.376-0.282,0.376-0.469c0-0.25-0.22-0.658-0.658-1.222c-0.502-0.814-1.41-1.755-2.726-2.821 c-0.064,0.063-0.157,0.126-0.282,0.189c-0.127,0.187-0.282,0.36-0.47,0.517c-0.188,0.156-0.282,0.36-0.282,0.61 C60.081,160.955,60.519,161.833,61.397,162.521z M60.834,121.814c-0.188,0-0.315,0.032-0.377,0.095 c0,0.187,0.189,0.376,0.564,0.563C61.084,122.096,61.022,121.877,60.834,121.814z M65.299,201.113 c0.72-0.719,1.081-1.644,1.081-2.773c0-1.316-0.69-1.974-2.068-1.974c-0.69,0-1.255,0.221-1.693,0.658 c0-0.751,0.501-1.88,1.505-3.385c1.001-1.503,1.942-2.693,2.82-3.572c0.188-0.187,0.282-0.376,0.282-0.564 c0-0.124-0.063-0.218-0.188-0.282l-0.282,0.189c-1.255,0.69-2.538,2.069-3.854,4.137c-1.568,2.256-2.35,4.199-2.35,5.828 c0,1.88,0.814,2.821,2.444,2.821C63.81,202.195,64.578,201.836,65.299,201.113z M61.21,145.224 c-0.376-0.124-0.564-0.219-0.564-0.282c0.125-0.189,0.249-0.296,0.376-0.328c0.125-0.032,0.188,0.078,0.188,0.328 C61.21,145.004,61.21,145.1,61.21,145.224z M68.542,167.834c0.062-0.095,0.094-0.204,0.094-0.33 c0.125-0.564,0.031-0.908-0.282-1.034h-0.094c-0.315-0.061-0.597,0.032-0.847,0.282v-0.095h-0.094 c-0.502,0.377-0.91,0.627-1.222,0.753c-0.376,0.126-0.94,0.187-1.693,0.187h-3.76v0.095c0.061,0,0.156,0.032,0.281,0.094 l1.975,0.376c0.061,0,0.156,0,0.282,0c1.441-0.061,2.381-0.155,2.82-0.282c0.313-0.124,0.564-0.282,0.752-0.469 c0.125-0.189,0.219-0.282,0.282-0.282c0.188,0.502,0.501,0.879,0.94,1.127h0.094C68.322,168.069,68.479,167.928,68.542,167.834z M61.867,145.317c-0.063,0.063-0.251,0.032-0.564-0.094c0-0.124,0.031-0.219,0.094-0.282v-0.094 C61.586,145.035,61.742,145.193,61.867,145.317z M69.389,153.308c-2.883,0.44-5.203,0.847-6.957,1.222l-0.376,0.94 c0.437-0.124,0.971-0.25,1.598-0.376c1.441-0.313,3.196-0.626,5.265-0.94L69.389,153.308z M62.056,173.71 c0-0.313,0.156-0.908,0.469-1.787l0.189-0.189v-0.094c0.061-0.061,0.094-0.061,0.094,0c0,0.063,0,0.126,0,0.189 c0,0.063-0.063,0.267-0.188,0.61c-0.127,0.345-0.188,0.612-0.188,0.799c0,0.439,0.094,0.658,0.282,0.658 c0.061,0,0.156-0.094,0.281-0.282v-0.187c0-0.063,0,0,0,0.187c0,0.252,0,0.44,0,0.564c-0.126,0.189-0.251,0.315-0.376,0.376 h-0.094C62.212,174.555,62.056,174.273,62.056,173.71z M63.09,124.635c-0.376-0.061-0.564-0.155-0.564-0.282 c0.125-0.187,0.25-0.282,0.377-0.282c0.125,0,0.188,0.095,0.188,0.282C63.09,124.415,63.09,124.511,63.09,124.635z M63.748,124.728c-0.063,0.065-0.251,0.032-0.564-0.094c0-0.124,0-0.219,0-0.282v-0.094 C63.433,124.448,63.622,124.604,63.748,124.728z M64.594,121.156c0-0.437,0.219-1.253,0.659-2.445l0.094-0.281l0.094-0.189 c0.061,0,0.094,0.032,0.094,0.094c0,0.063,0,0.128,0,0.189c0,0.063-0.094,0.345-0.281,0.847 c-0.189,0.502-0.282,0.877-0.282,1.127c0,0.564,0.125,0.847,0.376,0.847c0.125,0,0.25-0.126,0.377-0.376l0.094-0.282 c0-0.063,0,0.032,0,0.282c0,0.313-0.032,0.595-0.094,0.845c-0.127,0.252-0.282,0.408-0.47,0.471 C64.813,122.285,64.594,121.909,64.594,121.156z M77.897,172.77c4.983,0.502,9.479,0.721,13.491,0.658h0.377 c2.882,0.063,5.953-0.063,9.213-0.376c3.258-0.313,6.298-1.129,9.119-2.445c1.316-0.626,2.475-1.411,3.479-2.351 c0.313-0.248,0.642-0.704,0.987-1.362c0.343-0.658,0.579-1.489,0.706-2.492c-0.691,0.128-1.38,0.189-2.068,0.189 c-0.564,0-1.114-0.048-1.646-0.141c-0.533-0.094-1.019-0.265-1.457-0.517c-0.564-0.376-0.926-0.799-1.081-1.27 c-0.157-0.469-0.235-1.017-0.235-1.644c0-0.25,0.061-0.564,0.188-0.94c0.125-0.376,0.282-0.69,0.47-0.94c0-0.063,0-0.126,0-0.189 c0.376-0.5,0.767-0.954,1.175-1.364c0.407-0.406,0.955-0.61,1.646-0.61c0.876,0.126,1.582,0.486,2.115,1.081 c0.531,0.597,0.987,1.364,1.364,2.304c0.188,0.439,0.376,1.066,0.564,1.88s0.282,1.566,0.282,2.256 c0,0.814-0.094,1.644-0.282,2.491c-0.188,0.847-0.564,1.646-1.128,2.397c-1.755,2.195-3.934,3.713-6.534,4.56 c-2.601,0.847-5.156,1.396-7.662,1.646c-2.508,0.25-5.171,0.345-7.992,0.281h-2.35c-3.51,0.065-7.051-0.094-10.623-0.469 c-3.573-0.376-6.989-1.129-10.248-2.256l-0.188-0.094c-1.505-0.627-2.914-1.442-4.231-2.445 c-0.063-0.061-0.094-0.126-0.094-0.189c0-0.061,0.061-0.061,0.188,0C68.762,171.486,72.914,172.268,77.897,172.77z M67.509,166.846c0.188,0,0.343,0.063,0.47,0.189c0.061,0.063,0.125,0.282,0.188,0.658 C67.791,167.317,67.57,167.035,67.509,166.846z M73.713,116.644c-2.007,0.315-3.605,0.627-4.794,0.94l-0.282,0.751 c0.313-0.061,0.658-0.155,1.034-0.282c1.002-0.248,2.225-0.5,3.667-0.751L73.713,116.644z M70.141,113.541 c1.817-2.004,2.727-3.32,2.727-3.948c0-0.689-0.282-1.034-0.847-1.034c-0.376,0-0.674,0.078-0.893,0.235 c-0.221,0.156-0.361,0.267-0.423,0.328l-0.094-0.094l0.094-0.564c0.313-1.377,1.001-2.067,2.068-2.067 c0.94,0,1.41,0.563,1.41,1.692c0,0.879-0.361,1.865-1.081,2.962c-0.721,1.097-1.645,2.021-2.773,2.773 c-0.439,0.315-0.691,0.471-0.752,0.471C69.577,114.231,69.765,113.981,70.141,113.541z M70.329,121.862 c-0.127-0.156-0.221-0.517-0.282-1.081c-0.063-0.564-0.127-0.94-0.188-1.129l0.188-0.845c0.188,0,0.282,0.439,0.282,1.316 c0,0.879,0.218,1.316,0.658,1.316c0.313-0.061,0.564-0.189,0.751-0.376l0.094-0.471c0-0.5-0.157-1.034-0.47-1.598l0.376-0.751 c0,0.063,0.094,0.408,0.282,1.034c0.188,0.627,0.313,0.972,0.377,1.035c0.249,0.376,0.501,0.563,0.751,0.563 c0.25,0,0.407-0.061,0.47-0.187c-0.063-0.189-0.173-0.454-0.329-0.799c-0.157-0.345-0.267-0.673-0.329-0.988l0.282-0.847v0.095 c0,0.063,0.014,0.204,0.047,0.423c0.031,0.219,0.172,0.58,0.423,1.08c0.125,0.252,0.188,0.597,0.188,1.035 c0,0.627-0.282,0.94-0.846,0.94c-0.439-0.063-0.752-0.377-0.94-0.94l-0.188,0.658c-0.127,0.252-0.315,0.469-0.564,0.658 c-0.126,0.063-0.315,0.094-0.564,0.094C70.611,122.096,70.453,122.018,70.329,121.862z M72.209,158.291 c0-0.437,0.219-1.284,0.659-2.538l0.188-0.282l0.094-0.187c0.062-0.063,0.094-0.048,0.094,0.046c0,0.095,0,0.173,0,0.236 s-0.094,0.345-0.282,0.845c-0.188,0.503-0.282,0.91-0.282,1.222c0,0.564,0.125,0.847,0.377,0.847c0.125,0,0.25-0.126,0.376-0.377 l0.094-0.281c0-0.063,0,0.032,0,0.281c0,0.315-0.032,0.597-0.094,0.847c-0.126,0.252-0.282,0.408-0.47,0.471h-0.094 C72.428,159.42,72.209,159.043,72.209,158.291z M73.055,139.958c0-0.437,0.218-1.253,0.658-2.443l0.188-0.377l0.094-0.187 c0.061-0.061,0.094-0.048,0.094,0.048c0,0.094,0,0.172,0,0.235s-0.094,0.345-0.281,0.845c-0.189,0.503-0.282,0.91-0.282,1.222 c0,0.564,0.125,0.879,0.376,0.94c0.125-0.061,0.25-0.218,0.376-0.469l0.094-0.282c0-0.061,0,0.032,0,0.282 c0,0.315-0.032,0.597-0.094,0.845c-0.126,0.252-0.281,0.41-0.469,0.471h-0.094C73.274,141.087,73.055,140.711,73.055,139.958z M175.905,224.382c-8.336-2.821-14.98-6.643-19.93-11.469c-4.576-4.638-8.023-10.247-10.341-16.828 c-1.316-3.885-2.853-10.466-4.607-19.742c0,5.391-0.69,9.152-2.068,11.281c-6.08,9.026-13.977,17.143-23.691,24.35 c-10.28,7.647-19.023,11.469-26.23,11.469c-4.262,0-7.521-1.785-9.777-5.359c-1.88-3.008-2.821-6.675-2.821-10.998 c0-8.65,1.817-17.454,5.452-26.417c0.814-1.88,1.378-2.821,1.693-2.821c0.188,0.063,0.282,0.25,0.282,0.563 c0,0.627-0.157,1.598-0.47,2.916c-2.571,8.836-3.854,15.417-3.854,19.742c0,3.322,1.064,5.891,3.196,7.709 c1.817,1.568,4.167,2.35,7.051,2.35c7.771,0,17.831-4.919,30.178-14.759c11.531-9.213,17.863-16.42,18.991-21.623 c-0.815-7.081-3.761-17.675-8.837-31.776c-4.827-13.163-7.302-19.742-7.427-19.742c0-2.506,0.658-5.923,1.975-10.249 c0.125-0.376,0.313-0.563,0.564-0.563c0.25,0,0.564,0.187,0.94,0.563c1.693,1.88,4.011,5.956,6.957,12.223 c3.697,7.771,6.424,15.545,8.18,23.314c1.629,8.963,3.321,17.927,5.077,26.888c3.697,17.612,11.5,28.736,23.409,33.374 c0-9.274,2.412-15.385,7.239-18.333c4.137-2.506,11.281-5.735,21.435-9.682h-46.067c-1.254,0-2.037-0.109-2.35-0.33 c-0.315-0.218-0.47-0.61-0.47-1.175l0.094-1.034c0.502-5.265,2.1-9.589,4.794-12.974c7.834-9.778,20.526-19.021,38.075-27.733 l-3.196-6.299c-0.627-1.316-0.94-3.009-0.94-5.077c0-3.196,0.814-5.86,2.445-7.991c1.88-2.695,4.731-4.043,8.554-4.043 c2.946,0,7.176,1.88,12.692,5.641c5.829,3.948,8.743,7.239,8.743,9.871c-0.815,3.511-1.849,6.801-3.102,9.871 c-4.701,1.379-10.374,3.103-17.016,5.17l0.094,2.069c0,2.508-0.408,3.761-1.222,3.761c-0.752,0-1.537-1.442-2.35-4.325 c-5.077,1.943-11.533,5.359-19.367,10.247c-7.459,4.64-12.88,8.744-16.265,12.316c4.386,0.315,10.78,0.469,19.179,0.469 c10.09,0,22.782-0.248,38.075-0.751c13.975-0.437,20.932-0.689,20.87-0.751c0.94,0,1.41,0.156,1.41,0.469 c0,0.315-1.097,3.324-3.29,9.026c-0.377,0.94-1.035,1.566-1.975,1.88c-41.617,13.224-62.424,21.373-62.424,24.442 c0,2.571,6.36,6.707,19.084,12.411c0.626,0.313,0.94,0.877,0.94,1.692l-0.94,8.367c-0.126,0.879-0.69,1.316-1.692,1.316 C186.905,227.296,181.921,226.325,175.905,224.382z M77.285,118.806c0-0.376,0.189-1.034,0.564-1.974l0.094-0.282l0.094-0.095 c0.062-0.061,0.094-0.061,0.094,0c0,0.065,0,0.128,0,0.189c0,0.063-0.08,0.282-0.235,0.658c-0.157,0.376-0.235,0.69-0.235,0.94 c0,0.439,0.094,0.69,0.282,0.751c0.124-0.061,0.218-0.187,0.281-0.376l0.094-0.282v0.282c0,0.252-0.032,0.471-0.094,0.658 c-0.063,0.252-0.157,0.376-0.281,0.376H77.85C77.474,119.651,77.285,119.371,77.285,118.806z M77.85,169.291 c0-0.439,0.25-1.284,0.752-2.538l0.094-0.376l0.094-0.095c0.061-0.061,0.109-0.061,0.141,0c0.031,0.063,0.031,0.141,0,0.235 c-0.032,0.095-0.141,0.393-0.329,0.894c-0.188,0.502-0.282,0.91-0.282,1.222c0,0.563,0.125,0.845,0.376,0.845 c0.188,0,0.313-0.124,0.377-0.376l0.094-0.282c0.062-0.061,0.094,0.032,0.094,0.282c-0.063,0.315-0.127,0.597-0.188,0.847 c-0.127,0.252-0.282,0.408-0.47,0.469C78.1,170.419,77.85,170.043,77.85,169.291z M84.149,139.207 c-0.064-0.061-0.094-0.156-0.094-0.282l0.094-1.692c0-3.071-0.722-9.463-2.163-19.18l-0.282-0.376l1.128-1.692l0.658,1.316 c1.065,2.006,1.63,3.135,1.693,3.385l-0.094,0.187c-0.189-0.061-0.597-0.406-1.222-1.034h-0.188l-0.094,0.094 c1.253,7.46,1.88,12.41,1.88,14.854c-0.063,1.129-0.376,2.445-0.94,3.949c-0.127,0.25-0.22,0.408-0.282,0.469H84.149z M84.337,158.009c0-0.5,0.25-1.347,0.752-2.538l0.188-0.376v-0.094c0.061-0.063,0.109-0.063,0.141,0 c0.031,0.063,0.031,0.141,0,0.235c-0.032,0.094-0.141,0.393-0.329,0.893c-0.189,0.503-0.282,0.879-0.282,1.129 c0,0.564,0.156,0.879,0.47,0.94c0.125-0.061,0.218-0.219,0.282-0.471l0.094-0.282c0.062-0.061,0.094,0.032,0.094,0.282 c-0.064,0.376-0.127,0.658-0.188,0.847c-0.127,0.252-0.252,0.408-0.377,0.469h-0.094 C84.587,159.043,84.337,158.699,84.337,158.009z M84.901,105.55c0.125-0.063,0.579-0.406,1.364-1.034 c0.783-0.627,3.117-1.943,7.004-3.949c4.449-2.445,6.675-3.822,6.675-4.137c0-0.877-3.291-1.316-9.871-1.316l-4.512,0.189 c-0.752,0-1.129-0.095-1.129-0.282c0-0.189,0.94-1.848,2.821-4.983c0.689-1.129,1.942-1.848,3.761-2.163 c0.626-0.124,2.129-0.187,4.512-0.187c7.583,0,11.376,0.877,11.376,2.632c0,0.751-0.91,2.382-2.726,4.888 c-2.007,2.821-3.918,4.89-5.735,6.206c-1.192,0.814-5.109,2.1-11.752,3.854l-1.598,0.376 C84.963,105.644,84.901,105.613,84.901,105.55z M97.029,167.787c0.125-0.313,0.156-0.626,0.094-0.94l-0.564,0.94 c0.061,0.063,0.094,0.189,0.094,0.376c-0.251,0-0.439,0-0.564,0c-0.377,0-0.564-0.219-0.564-0.658 c0.062-0.124,0.125-0.219,0.188-0.282c-0.126,0-0.314,0.095-0.564,0.282c-0.439,0.315-0.752,0.503-0.94,0.564 c-0.188,0.063-0.439-0.031-0.752-0.282c-0.315-0.313-0.878-0.189-1.692,0.376c-0.627,0.503-1.255,0.91-1.88,1.222 c-0.94,0.564-2.226,1.003-3.855,1.316c1.817,0.063,3.479-0.469,4.983-1.598c0.626-0.5,1.159-0.719,1.598-0.658 c0.188,0,0.343,0.063,0.47,0.189c0.25,0.187,0.47,0.282,0.658,0.282s0.47-0.156,0.846-0.471l0.377-0.469 c-0.064,0.627,0.125,0.972,0.564,1.034C96.088,169.072,96.589,168.666,97.029,167.787z M87.815,147.011 c0-0.439,0.249-1.285,0.751-2.538l0.094-0.377l0.094-0.094c0.061-0.061,0.094-0.061,0.094,0c0,0.063,0,0.141,0,0.235 c0,0.095-0.094,0.393-0.282,0.894c-0.188,0.502-0.281,0.908-0.281,1.221c0,0.564,0.125,0.847,0.376,0.847 c0.125,0,0.25-0.124,0.376-0.376l0.094-0.282c0-0.061,0,0.032,0,0.282c0,0.315-0.032,0.597-0.094,0.847 c-0.126,0.25-0.281,0.408-0.47,0.469C88.065,148.138,87.815,147.762,87.815,147.011z M88.473,122.003 c0-0.689,0.343-1.911,1.034-3.667l0.189-0.469l0.094-0.189c0.062-0.124,0.109-0.124,0.141,0c0.031,0.128,0.031,0.252,0,0.376 c-0.032,0.128-0.173,0.534-0.423,1.222c-0.251,0.69-0.376,1.255-0.376,1.693c0,0.814,0.188,1.253,0.564,1.316 c0.188-0.063,0.343-0.282,0.47-0.658l0.094-0.377c0.062-0.061,0.094,0.065,0.094,0.377c-0.064,0.502-0.127,0.908-0.188,1.221 c-0.189,0.377-0.377,0.627-0.564,0.753h-0.094C88.817,123.601,88.473,123.069,88.473,122.003z M89.507,129.242 c0-0.502,0.25-1.348,0.752-2.538l0.094-0.377l0.094-0.094c0.062-0.061,0.109-0.061,0.141,0c0.031,0.063,0.031,0.141,0,0.235 c-0.032,0.095-0.141,0.393-0.329,0.894s-0.282,0.877-0.282,1.127c0,0.564,0.125,0.879,0.377,0.94 c0.188-0.061,0.313-0.219,0.376-0.469l0.094-0.282c0.061,0,0.094,0.094,0.094,0.282c-0.063,0.376-0.126,0.658-0.188,0.845 c-0.127,0.252-0.282,0.41-0.47,0.471C89.757,130.276,89.507,129.932,89.507,129.242z M90.259,154.719 c0.438-0.564,0.877-1.066,1.316-1.505c0.627,0.503,1.222,1.066,1.787,1.692c-0.377,0.627-0.785,1.098-1.222,1.411 C91.512,155.753,90.885,155.221,90.259,154.719z M99.003,198.623c0-0.751-0.423-2.163-1.269-4.23 c-0.846-2.069-1.426-3.103-1.739-3.103c-0.251,0-0.408,0.08-0.47,0.235c-0.063,0.158-0.282,0.235-0.658,0.235 c-0.315,0-0.785-0.281-1.41-0.845c-0.627-0.564-0.94-1.001-0.94-1.316c0-0.189,0.25-0.706,0.752-1.552 c0.501-0.845,0.814-1.268,0.94-1.268c1.253,0,2.365,0.738,3.337,2.209c0.971,1.474,1.645,3.37,2.021,5.689 c0.061,0.25,0.094,0.408,0.094,0.469h0.094c0.061,0,0.125-0.124,0.188-0.376v-0.094c0.188-1.379,0.658-3.479,1.41-6.299 c0.877-1.942,1.786-2.914,2.726-2.914c0.501,0,0.987,0.315,1.457,0.94c0.47,0.627,0.706,1.127,0.706,1.503 c0,0.315-0.08,0.738-0.235,1.27c-0.157,0.532-0.361,0.799-0.611,0.799c-0.126,0-0.376-0.235-0.751-0.706 c-0.377-0.469-0.752-0.706-1.128-0.706c-0.879,0-1.693,2.069-2.445,6.206c-0.315,1.755-0.69,3.008-1.128,3.761 c-0.251,0.502-0.47,0.751-0.658,0.751S99.003,199.061,99.003,198.623z M93.362,154.437c0.438-0.564,0.876-1.064,1.316-1.505 c0.626,0.503,1.222,1.098,1.786,1.787c-0.376,0.564-0.785,1.066-1.222,1.505C94.678,155.598,94.051,155.001,93.362,154.437z M94.773,140.994c1.001,0.439,1.534,1.003,1.598,1.692c0,0.564-0.127,0.94-0.377,1.129c-0.502,0.439-1.003,0.563-1.504,0.376 c-0.564-0.189-0.785-0.658-0.658-1.411c0.188-0.813,0.594-1.629,1.222-2.443c0.062-0.126,0.094-0.156,0.094-0.095v0.189 L94.773,140.994z M94.208,142.592c-0.063,0.376,0.031,0.595,0.282,0.658c0.438,0.126,0.908,0.063,1.41-0.189 c-0.189-0.437-0.691-0.814-1.505-1.127C94.27,142.31,94.208,142.529,94.208,142.592z M102.293,116.926 c-2.007,0.376-3.605,0.721-4.794,1.034l-0.282,0.751c0.313-0.124,0.689-0.218,1.128-0.281c0.94-0.25,2.13-0.502,3.573-0.753 L102.293,116.926z M98.909,122.237c-0.127-0.156-0.205-0.532-0.235-1.127c-0.032-0.595-0.111-0.955-0.235-1.081l0.188-0.94 c0.188,0.063,0.297,0.517,0.329,1.362c0.031,0.847,0.266,1.302,0.705,1.364c0.25-0.061,0.502-0.218,0.752-0.469v-0.376 c0-0.502-0.157-1.035-0.47-1.598l0.376-0.847c0.062,0.063,0.173,0.423,0.33,1.081c0.156,0.658,0.265,1.018,0.329,1.081 c0.249,0.376,0.501,0.563,0.751,0.563c0.25,0,0.407-0.061,0.47-0.187c-0.063-0.189-0.173-0.471-0.329-0.847 c-0.157-0.376-0.267-0.689-0.329-0.94c0.188-0.626,0.313-0.94,0.377-0.94v0.095c0,0.063,0,0.219,0,0.469 c0,0.252,0.124,0.597,0.376,1.034c0.125,0.315,0.188,0.69,0.188,1.129c0,0.627-0.251,0.94-0.752,0.94 c-0.439-0.126-0.784-0.439-1.034-0.94l-0.188,0.658c-0.064,0.252-0.252,0.469-0.564,0.658c-0.127,0.063-0.315,0.094-0.564,0.094 C99.19,122.472,99.033,122.396,98.909,122.237z M106.618,154.155c-2.883,0.439-5.234,0.847-7.051,1.222l-0.282,0.94 c0.438-0.126,0.94-0.25,1.504-0.376c1.442-0.313,3.228-0.626,5.359-0.94L106.618,154.155z M99.285,244.689 c0-0.126,0.47-0.721,1.41-1.787c4.574-5.014,6.863-8.336,6.863-9.965c0-1.629-0.721-2.445-2.163-2.445 c-0.815,0-1.52,0.189-2.115,0.564c-0.596,0.376-0.956,0.597-1.081,0.658l-0.281-0.187l0.281-1.316 c0.752-3.446,2.475-5.172,5.171-5.172c2.256,0,3.384,1.443,3.384,4.325c0,2.067-0.878,4.465-2.632,7.192 c-1.755,2.727-4.012,5.092-6.769,7.098c-1.128,0.751-1.786,1.127-1.974,1.127C99.315,244.782,99.285,244.75,99.285,244.689z M112.917,123.319c-5.015,1.066-9.088,1.943-12.222,2.632l-0.47,0.94c0.814-0.25,1.723-0.5,2.726-0.751 c2.444-0.564,5.514-1.222,9.213-1.974L112.917,123.319z M102.669,169.103c0-0.437,0.25-1.284,0.752-2.538l0.094-0.376 l0.094-0.094c0.062-0.063,0.109-0.063,0.141,0c0.031,0.063,0.031,0.141,0,0.235c-0.032,0.094-0.141,0.393-0.329,0.893 c-0.188,0.503-0.282,0.91-0.282,1.222c0,0.564,0.125,0.847,0.377,0.847c0.188,0,0.313-0.126,0.376-0.376l0.094-0.282 c0.061-0.063,0.094,0.032,0.094,0.282c-0.063,0.313-0.126,0.595-0.188,0.845c-0.127,0.252-0.282,0.408-0.47,0.471 C102.919,170.231,102.669,169.854,102.669,169.103z M105.96,106.866c42.618-15.856,64.053-23.785,64.305-23.785 c0.125,0,0.188,0.094,0.188,0.282c0,0.189-0.063,0.439-0.188,0.751c-0.752,1.819-1.301,2.883-1.645,3.196 c-0.346,0.315-10.515,4.201-30.508,11.658c-20.433,7.647-31.839,12.161-34.22,13.538 C104.267,110.816,104.957,108.935,105.96,106.866z M113.48,138.078c-2.883,0.44-5.234,0.816-7.051,1.129l-0.282,0.94 c0.438-0.061,0.94-0.156,1.505-0.282c1.441-0.313,3.196-0.626,5.265-0.94L113.48,138.078z M111.741,133.613 c0.847-0.219,1.551-0.423,2.116-0.612c0.313-0.187,0.626-0.376,0.94-0.563c0.313-0.189,0.438-0.439,0.376-0.753 c-0.127-0.751-0.408-1.362-0.846-1.833c-0.439-0.469-1.128-0.706-2.068-0.706c-1.192,0.128-2.304,0.627-3.337,1.505 c-1.035,0.879-1.897,1.819-2.586,2.821c0.94,0.315,1.942,0.439,3.008,0.376l0.094,0.094 C110.127,133.941,110.895,133.833,111.741,133.613z M107.088,120.687c0-0.502,0.219-1.316,0.658-2.445l0.188-0.376v-0.094 c0.062-0.063,0.094-0.063,0.094,0s0,0.139,0,0.235c0,0.094-0.094,0.376-0.282,0.845c-0.188,0.471-0.282,0.831-0.282,1.081 c0,0.564,0.156,0.879,0.47,0.94c0.062-0.061,0.156-0.187,0.282-0.376l0.094-0.376v0.376c0,0.315-0.032,0.564-0.094,0.751 c-0.126,0.252-0.251,0.41-0.376,0.471h-0.094C107.307,121.721,107.088,121.377,107.088,120.687z M110.52,159.607 c-0.409,0.252-0.611,0.69-0.611,1.316c0,0.377,0.202,0.675,0.611,0.894c0.406,0.219,0.876,0.376,1.41,0.469 c0.531,0.094,0.987,0.141,1.363,0.141c0.125-0.061,0.282-0.094,0.47-0.094c0.188,0,0.391,0,0.611,0 c0.218,0,0.36-0.031,0.423-0.094c-0.127-0.69-0.439-1.348-0.94-1.976c-0.502-0.626-1.128-0.971-1.88-1.034 C111.412,159.231,110.926,159.357,110.52,159.607z M113.857,154.53c0-0.437,0.218-1.253,0.658-2.443l0.188-0.377l0.094-0.187 c0.061-0.063,0.094-0.048,0.094,0.046c0,0.095,0,0.173,0,0.236s-0.094,0.345-0.282,0.845c-0.188,0.503-0.281,0.91-0.281,1.222 c0,0.564,0.125,0.879,0.376,0.94c0.125-0.061,0.25-0.219,0.376-0.469l0.094-0.282c0-0.063,0,0.032,0,0.282 c0,0.315-0.032,0.595-0.094,0.845c-0.126,0.252-0.281,0.41-0.47,0.471h-0.094C114.075,155.659,113.857,155.284,113.857,154.53z M122.506,85.808c0.438-0.439,0.658-1.003,0.658-1.693c0-0.751-0.408-1.127-1.222-1.127c-0.439,0-0.785,0.126-1.035,0.376 c0-0.439,0.297-1.112,0.893-2.021c0.595-0.908,1.175-1.613,1.739-2.115l0.094-0.282c0-0.124-0.032-0.189-0.094-0.189h-0.189 c-0.69,0.44-1.473,1.302-2.35,2.586c-0.879,1.285-1.317,2.43-1.317,3.431c0,1.129,0.502,1.693,1.505,1.693 C121.628,86.466,122.066,86.247,122.506,85.808z M133.035,236.227c0-1.379-0.784-4.026-2.35-7.943 c-1.568-3.915-2.665-5.876-3.291-5.876c-0.502,0-0.799,0.141-0.893,0.423c-0.094,0.282-0.455,0.423-1.08,0.423 c-0.691,0-1.599-0.519-2.727-1.552c-1.128-1.034-1.692-1.863-1.692-2.491c0-0.25,0.47-1.175,1.41-2.773 c0.939-1.598,1.534-2.397,1.786-2.397c2.256,0,4.308,1.362,6.158,4.089c1.847,2.727,3.116,6.314,3.808,10.764l0.281,0.847 l0.377-0.847c0.376-2.632,1.284-6.58,2.726-11.845c1.566-3.698,3.258-5.546,5.077-5.546c0.94,0,1.864,0.595,2.773,1.785 c0.908,1.192,1.364,2.132,1.364,2.821c0,0.503-0.157,1.192-0.47,2.069c-0.376,1.19-0.815,1.785-1.316,1.785 c-0.189,0-0.627-0.454-1.317-1.364c-0.69-0.906-1.41-1.362-2.162-1.362c-1.63,0-3.166,3.887-4.607,11.656 c-0.564,3.385-1.222,5.767-1.975,7.146c-0.564,0.94-1.034,1.409-1.41,1.409C133.191,237.449,133.035,237.041,133.035,236.227z M124.057,178.974c0.407-0.376,0.611-0.877,0.611-1.505c-0.064-0.689-0.47-1.034-1.222-1.034c-0.315,0-0.596,0.128-0.846,0.376 c0-0.437,0.266-1.064,0.799-1.88c0.531-0.813,1.049-1.44,1.551-1.879c0.061-0.063,0.094-0.156,0.094-0.282l-0.094-0.189 c-0.502,0-1.255,0.784-2.257,2.35c-0.815,1.192-1.222,2.226-1.222,3.103c0,1.003,0.438,1.505,1.316,1.505 C123.226,179.538,123.649,179.349,124.057,178.974z M132.377,255.876c0.438-0.439,0.658-1.003,0.658-1.692 c0-0.751-0.408-1.129-1.222-1.129c-0.377,0-0.722,0.126-1.035,0.377c0-0.44,0.297-1.114,0.893-2.021 c0.595-0.91,1.175-1.615,1.739-2.115l0.094-0.377v-0.187l-0.188,0.094c-0.751,0.439-1.568,1.301-2.444,2.586 c-0.878,1.284-1.316,2.428-1.316,3.431c0,1.129,0.501,1.692,1.504,1.692C131.499,256.534,131.938,256.314,132.377,255.876z M137.83,111.003c11.469-4.137,23.597-8.555,36.383-13.256c0.438-0.187,0.783-0.282,1.034-0.282c0.188,0,0.282,0.128,0.282,0.377 l-0.188,0.751c-0.752,1.819-1.38,2.914-1.88,3.29c-10.717,3.825-23.284,8.713-37.699,14.667 C136.2,114.857,136.89,113.009,137.83,111.003z M141.12,84.303c0-0.189,0.407-0.689,1.222-1.505 c3.822-4.198,5.735-6.988,5.735-8.367c0-1.379-0.627-2.069-1.88-2.069c-0.69,0-1.269,0.173-1.739,0.517 c-0.47,0.345-0.768,0.519-0.893,0.519l-0.188-0.095l0.188-1.127c0.626-2.882,2.068-4.325,4.324-4.325 c1.88,0,2.821,1.192,2.821,3.572c0,1.756-0.738,3.778-2.209,6.064c-1.473,2.288-3.37,4.247-5.688,5.876 c-0.94,0.627-1.473,0.94-1.598,0.94H141.12z M151.086,140.664c-0.878-1.222-1.316-2.899-1.316-5.029v-5.077 c0-0.376-0.282-0.658-0.846-0.847c-0.564-0.187-0.847-0.626-0.847-1.316c0-1.129,0.454-2.193,1.364-3.196 c0.908-1.001,1.582-1.505,2.021-1.505c0.564,0,0.846,1.129,0.846,3.385c0,1.127-0.094,2.084-0.282,2.866 c-0.188,0.785-0.282,1.457-0.282,2.021c0,1.192,0.266,2.384,0.799,3.572c0.532,1.192,1.237,1.787,2.116,1.787 c1.128,0,2.162-0.502,3.102-1.505c0.94-1.001,1.41-2.193,1.41-3.572c0-0.751-0.22-2.067-0.658-3.948 c-0.439-1.88-0.658-3.071-0.658-3.574c0-0.376,0.202-1.001,0.611-1.88c0.406-0.876,0.705-1.316,0.893-1.316 c0.377,0,0.861,1.255,1.457,3.761c0.595,2.508,0.893,4.358,0.893,5.548c0,3.446,1.347,5.17,4.042,5.17 c1.129,0,1.848-0.564,2.163-1.692c-2.319-4.074-3.479-7.176-3.479-9.308c0-1.253,0.313-2.35,0.94-3.29 c0.438-0.626,0.72-0.971,0.846-1.034c0.189,0,0.314,0.408,0.377,1.222c0.125,1.19,0.313,2.161,0.564,2.914l1.693,4.23 c0.626,1.63,0.94,2.883,0.94,3.761c0,1.568-0.345,3.229-1.035,4.983c-0.939,2.193-2.162,3.29-3.666,3.29 c-2.319,0-3.981-1.598-4.982-4.794c-1.067,4.137-3.103,6.204-6.111,6.204C152.934,142.497,151.963,141.886,151.086,140.664z M160.487,250.048c0-5.452,1.566-11.187,4.701-17.204c0.814-1.505,1.284-2.256,1.41-2.256c0.061,0,0.094,0.032,0.094,0.094 c0,0.252-0.22,1.066-0.658,2.445c-2.068,6.267-3.102,10.653-3.102,13.161c0,3.446,0.908,5.17,2.726,5.17 c1.065,0,2.287-1.316,3.666-3.948c0.188-0.376,0.343-0.564,0.47-0.564c0.062,0,0.109,0.031,0.141,0.095 c0.031,0.061,0.047,0.155,0.047,0.281l-0.094,0.377c-1.129,6.017-2.947,9.024-5.453,9.024 C161.803,256.722,160.487,254.497,160.487,250.048z M167.35,119.276c0-0.187,0.594-0.658,1.786-1.409l14.572-8.744 c5.828-3.509,10.184-6.768,13.068-9.778c-3.824-2.005-5.735-4.074-5.735-6.204c0-2.634,1.222-5.044,3.666-7.239 c1.88-1.755,3.54-2.632,4.982-2.632c2.068,0,3.103,1.535,3.103,4.606c0,2.195-0.47,4.64-1.41,7.333 c1.942,1.129,3.164,2.069,3.666,2.821c0,1.066-0.878,2.821-2.633,5.265c-0.439-0.814-1.598-1.755-3.479-2.821 c-2.131,2.946-4.827,5.641-8.084,8.086c-3.761,2.758-7.209,4.827-10.342,6.204c-0.69,0.315-4.294,1.692-10.811,4.137 c-1.066,0.376-1.755,0.564-2.068,0.564C167.444,119.464,167.35,119.403,167.35,119.276z M179.853,80.59 c0.438-0.408,0.658-0.955,0.658-1.646c0-0.751-0.408-1.129-1.222-1.129c-0.377,0-0.722,0.095-1.035,0.282 c0-0.437,0.297-1.112,0.893-2.021c0.595-0.906,1.175-1.612,1.739-2.115c0.061-0.061,0.094-0.155,0.094-0.282v-0.094 c0-0.061-0.032-0.094-0.094-0.094l-0.188,0.094c-0.691,0.439-1.474,1.302-2.35,2.586c-0.879,1.285-1.316,2.43-1.316,3.431 c0,1.066,0.501,1.598,1.504,1.598C178.975,81.2,179.415,80.998,179.853,80.59z M191.041,242.997 c0.438-0.44,0.658-1.003,0.658-1.693c0-0.751-0.408-1.127-1.222-1.127c-0.376,0-0.721,0.124-1.034,0.376 c0-0.439,0.297-1.114,0.893-2.021c0.595-0.91,1.176-1.613,1.739-2.115l0.094-0.282c0-0.126-0.032-0.187-0.094-0.187h-0.188 c-0.69,0.437-1.473,1.316-2.35,2.632c-0.878,1.316-1.316,2.445-1.316,3.385c0,1.127,0.501,1.692,1.504,1.692 C190.162,243.655,190.602,243.434,191.041,242.997z M207.775,131.592c0-1.001-1.913-2.317-5.735-3.948 c-3.196-1.379-5.704-2.069-7.521-2.069c-1.192,0-1.787,0.252-1.787,0.751c0,0.627,1.442,3.667,4.325,9.12 C202.635,133.693,206.208,132.408,207.775,131.592z M199.502,91.636c0-2.13-0.627-3.196-1.88-3.196 c-0.502,0-1.144,0.221-1.927,0.658c-0.785,0.439-1.175,0.879-1.175,1.316c0,0.94,1.534,2.132,4.607,3.572 C199.375,93.173,199.502,92.388,199.502,91.636z M204.626,221.656c-1.285-1.066-1.927-2.382-1.927-3.949 c0-2.821,1.19-5.672,3.573-8.555c4.95-5.201,7.426-7.897,7.426-8.084c0-0.25-0.251-0.471-0.751-0.658 c-1.755-0.626-3.636-0.94-5.641-0.94c-1.128,0-2.35,0.315-3.666,0.94l-0.376,0.094c-0.127,0-0.188-0.061-0.188-0.189l0.094-0.469 c0.814-1.942,1.693-3.29,2.633-4.043c0.94-0.751,2.475-1.127,4.607-1.127c4.825,0,7.238,1.19,7.238,3.572 c0,1.755-1.536,4.262-4.607,7.522l-6.581,6.675c-0.94,1.253-1.41,2.319-1.41,3.196c0,1.943,2.224,2.914,6.675,2.914 c4.074,0,8.461-0.689,13.162-2.069c1.001-0.313,1.629-0.469,1.88-0.469l0.094,0.094c0,0.189-0.47,0.721-1.41,1.598 c-4.137,3.7-9.433,5.548-15.888,5.548C207.555,223.255,205.91,222.722,204.626,221.656z M207.963,162.428 c3.071-3.32,4.607-5.546,4.607-6.675c0-1.064-0.502-1.598-1.504-1.598c-0.564,0-1.035,0.126-1.41,0.376 c-0.376,0.252-0.597,0.408-0.658,0.471l-0.188-0.189l0.094-0.847c0.501-2.317,1.66-3.477,3.479-3.477 c1.505,0,2.256,0.971,2.256,2.914c0,1.379-0.58,2.977-1.739,4.794c-1.16,1.817-2.679,3.383-4.559,4.701 c-0.752,0.502-1.192,0.751-1.317,0.751C207.023,163.526,207.336,163.118,207.963,162.428z M225.168,115.704 c0.438-0.437,0.658-1.001,0.658-1.692c0-0.753-0.439-1.129-1.317-1.129c-0.376,0-0.69,0.126-0.939,0.376 c0-0.437,0.297-1.112,0.893-2.021c0.595-0.908,1.143-1.612,1.646-2.115c0.124-0.124,0.188-0.218,0.188-0.282 c0-0.124-0.032-0.187-0.094-0.187l-0.188,0.094c-0.752,0.439-1.568,1.302-2.444,2.586c-0.879,1.285-1.317,2.43-1.317,3.431 c0,1.066,0.502,1.598,1.505,1.598C224.258,116.362,224.728,116.142,225.168,115.704z M231.466,149.454 c0-5.452,1.566-11.187,4.701-17.204c0.814-1.44,1.284-2.193,1.41-2.256c0.061,0,0.094,0.032,0.094,0.094 c0,0.252-0.22,1.068-0.658,2.445c-2.068,6.269-3.102,10.655-3.102,13.161c0,3.448,0.94,5.172,2.82,5.172 c1.065,0,2.257-1.316,3.573-3.949c0.188-0.376,0.343-0.564,0.47-0.564c0.062,0,0.109,0.034,0.141,0.095 c0.031,0.063,0.047,0.156,0.047,0.282l-0.094,0.376c-1.067,6.017-2.853,9.024-5.359,9.024 C232.813,156.129,231.466,153.905,231.466,149.454z M233.441,198.716c0-0.061,0.188-0.282,0.564-0.658 c1.817-2.005,2.726-3.416,2.726-4.23c0-0.502-0.281-0.751-0.846-0.751c-0.315,0-0.596,0.063-0.846,0.187l-0.377,0.282 l-0.188-0.094c0.062-0.061,0.094-0.219,0.094-0.471c0.313-1.44,1.001-2.161,2.068-2.161c0.94,0,1.41,0.595,1.41,1.785 c0,0.816-0.345,1.772-1.035,2.868c-0.69,1.097-1.598,2.021-2.726,2.773c-0.439,0.376-0.721,0.564-0.846,0.564V198.716z" display="inline"/></g></g></g><g><path fill="#EEA565" d="M54.765,172.425c2.487-2.678,3.73-4.495,3.73-5.451c0-0.828-0.416-1.243-1.243-1.243 c-0.447,0-0.813,0.095-1.1,0.286c-0.286,0.191-0.494,0.319-0.621,0.383c0-0.063-0.033-0.096-0.096-0.096v-0.383 c0.383-2.103,1.339-3.156,2.869-3.156c1.275,0,1.913,0.765,1.913,2.296c0,1.148-0.478,2.456-1.435,3.921 c-0.956,1.468-2.2,2.743-3.73,3.826c-0.574,0.448-0.925,0.67-1.052,0.67C54,173.35,54.254,173,54.765,172.425z M85.851,146.409 c-1.659-5.1-2.807-10.265-3.443-15.494c-0.129-0.892-0.224-1.435-0.287-1.626c-0.191-0.701-0.574-1.466-1.148-2.296l2.104-5.07 c0.319-0.827,0.605-1.243,0.861-1.243c0.191,0,0.541,0.416,1.052,1.243l5.356,8.609c0.701,1.148,1.052,1.977,1.052,2.486 c0.063,0.383-0.096,0.575-0.478,0.575c-0.702,0-1.881-0.542-3.539-1.626c0.445,3.252,1.497,7.333,3.156,12.243 c2.741-1.148,5.739-1.722,8.991-1.722c2.614,0,4.687,1.117,6.217,3.348c1.593,2.232,2.391,5.164,2.391,8.8 c0,2.998-0.67,5.451-2.009,7.364c-1.276,1.977-2.998,2.966-5.165,2.966c-2.998,0-5.803-1.307-8.417-3.922 c-2.042-1.976-3.539-4.176-4.495-6.6c-7.333,4.401-13.168,6.6-17.504,6.6c-4.146,0-7.525-0.861-10.139-2.582 c-4.081-2.55-6.121-6.855-6.121-12.913c0-5.675,2.358-13.135,7.078-22.382c0.51-0.956,0.924-1.434,1.243-1.434 c0.127,0.064,0.191,0.19,0.191,0.383c0,0.319-0.096,0.765-0.287,1.338c-0.702,1.787-1.403,3.604-2.104,5.452 c-0.383,0.893-0.734,1.786-1.052,2.678c-1.021,2.934-1.53,5.325-1.53,7.173c0,4.273,1.148,7.493,3.443,9.661 c2.358,2.232,5.452,3.347,9.278,3.347C74.692,151.765,79.792,149.981,85.851,146.409z M157.013,153.774 c2.997,0,5.897-1.148,8.704-3.443c0.765-0.701,1.148-3.188,1.148-7.461c0-2.741-0.511-11.414-1.53-26.016 c-1.085-14.602-1.626-23.178-1.626-25.729c0-2.997-0.447-5.452-1.339-7.365c0-1.148,0.861-3.73,2.583-7.747 c0.191-0.51,0.383-0.765,0.574-0.765s0.383,0.255,0.574,0.765c0.51,1.148,1.658,4.05,3.443,8.704 c1.913,4.974,3.027,8.067,3.348,9.277c0.19,0.83,0.287,1.468,0.287,1.913c0,1.404-1.276,0.575-3.826-2.486 c-0.32-0.446-0.478-0.254-0.478,0.573c0,0.192,0.445,6.346,1.339,18.461c0.891,12.18,1.338,19.799,1.338,22.859 c0,8.992-1.625,16.069-4.877,21.235c-2.742,4.337-5.963,6.504-9.66,6.504c-4.337,0-8.608-1.754-12.817-5.261 c-3.381-3.188-6.759-6.344-10.139-9.47c-0.511-0.509-1.021-0.988-1.53-1.434c-0.511-0.446-0.798-0.669-0.861-0.669 c-0.191,0-0.096,0.447,0.287,1.338c1.466,3.317,2.2,5.677,2.2,7.079c0,5.229-1.53,9.182-4.591,11.86 c-2.168,1.977-7.078,4.591-14.73,7.842v-0.095c-4.782,2.041-8.354,3.635-10.713,4.782c-4.655,2.168-7.843,3.922-9.565,5.26 c-3.189,2.488-7.812,7.238-13.869,14.252c-3.635,4.209-7.269,6.313-10.904,6.313c-3.125,0-5.803-1.402-8.034-4.209 c-2.424-2.869-3.635-6.376-3.635-10.521c0-5.739,2.358-13.199,7.078-22.382c0.445-0.956,0.828-1.435,1.148-1.435 c0.063,0,0.096,0.129,0.096,0.383c0,0.894-1.021,4.082-3.061,9.565c-1.977,5.548-2.965,9.916-2.965,13.104 c0,2.424,0.541,4.369,1.626,5.835c1.21,1.594,2.901,2.391,5.069,2.391c3.826,0,7.683-1.944,11.573-5.834 c1.402-1.658,2.805-3.284,4.209-4.879c1.084-1.339,2.167-2.645,3.252-3.921c3.188-3.636,7.428-6.887,12.721-9.757 c3.061-1.657,8.384-4.079,15.973-7.269c8.097-3.443,13.422-6.089,15.973-7.938c0.701-0.574,0.924-1.306,0.67-2.199 c-1.339-4.974-6.92-11.574-16.738-19.8c-7.207-5.866-14.443-11.7-21.712-17.504c-2.104-1.721-4.241-3.474-6.408-5.26 c-0.32-0.254-0.478-1.275-0.478-3.061c0-2.296,0.223-4.654,0.67-7.078c0.574-2.741,1.243-4.463,2.009-5.165 c5.292-4.782,16.579-11.126,33.859-19.034c17.535-7.97,29.109-11.956,34.72-11.956c1.658,0,2.805,0.32,3.443,0.956 c0.637,0.638,0.956,1.786,0.956,3.443c0,3.635-2.2,8.194-6.6,13.678l-2.678,3.061c-0.765,0.893-1.53,1.754-2.296,2.582 c-2.615,3.061-4.4,5.581-5.356,7.556c-0.638,1.277-1.021,1.913-1.148,1.913c-0.191,0-0.096-0.86,0.287-2.582 c0.191-0.956,0.924-2.614,2.2-4.974c1.148-2.167,2.009-3.571,2.582-4.209c4.91-5.675,7.875-9.405,8.895-11.191 c0.063-0.191,0.096-0.35,0.096-0.478c0-1.084-1.372-1.626-4.113-1.626c-4.464,0-14.954,3.859-31.468,11.573 c-16.58,7.716-27.898,14.061-33.955,19.034c-0.383,0.319-0.32,0.606,0.191,0.86c5.419,3.316,10.744,6.728,15.973,10.235 c12.626,8.545,23.783,16.993,33.477,25.346c2.932,2.551,5.866,5.134,8.8,7.747C150.189,152.468,153.632,153.774,157.013,153.774z M66.339,131.966c0-1.211,0.701-2.997,2.104-5.356c1.402-2.359,2.582-3.539,3.539-3.539c0.892,0,1.658,0.368,2.296,1.1 c0.637,0.734,0.956,1.674,0.956,2.822c0,1.722-0.607,3.412-1.817,5.07c-1.212,1.659-2.678,2.486-4.4,2.486 C67.231,134.548,66.339,133.688,66.339,131.966z M67.008,190.503l0.574-0.669c1.658-1.785,2.487-2.997,2.487-3.636 c0-0.573-0.255-0.86-0.765-0.86c-0.32,0-0.59,0.081-0.813,0.239c-0.224,0.16-0.368,0.239-0.431,0.239l-0.096-0.095l0.096-0.478 c0.319-1.211,0.956-1.818,1.913-1.818c0.828,0,1.243,0.511,1.243,1.53c0,0.765-0.32,1.642-0.956,2.631 c-0.638,0.989-1.468,1.833-2.487,2.534l-0.67,0.383H67.008z M73.703,129.002c0-1.658-1.116-2.488-3.348-2.488 c-0.32,0-0.829,0.512-1.53,1.53c-0.702,1.021-1.052,1.723-1.052,2.105c0.191,0.573,0.988,0.86,2.391,0.86 C72.523,131.01,73.703,130.34,73.703,129.002z M73.177,112.55c0.605-0.575,0.909-1.34,0.909-2.296c0-1.02-0.574-1.53-1.722-1.53 c-0.574,0-1.021,0.159-1.339,0.478c0-0.637,0.398-1.561,1.195-2.773c0.797-1.211,1.578-2.167,2.344-2.87l0.096-0.383v-0.095 c0-0.063-0.033-0.095-0.096-0.095h-0.191c-1.021,0.638-2.073,1.786-3.156,3.443c-1.276,1.85-1.913,3.443-1.913,4.781 c0,1.468,0.67,2.2,2.009,2.2C71.949,113.41,72.571,113.123,73.177,112.55z M72.46,145.07c0.383-0.383,0.574-0.892,0.574-1.53 c0-0.701-0.383-1.053-1.148-1.053c-0.32,0-0.607,0.128-0.861,0.383c0-0.446,0.27-1.067,0.813-1.865 c0.541-0.796,1.067-1.45,1.578-1.961l0.096-0.287l-0.191-0.095h-0.096c-0.638,0.447-1.356,1.243-2.152,2.391 c-0.798,1.148-1.195,2.169-1.195,3.061c0,1.021,0.445,1.53,1.339,1.53C71.662,145.643,72.077,145.453,72.46,145.07z M72.747,173.239c-0.829-0.861-1.243-1.896-1.243-3.109c0-1.148,0.414-2.167,1.243-3.061c0.828-0.891,1.849-1.338,3.061-1.338 c1.21,0,2.248,0.447,3.108,1.338c0.861,0.894,1.291,1.913,1.291,3.061c0,1.213-0.43,2.248-1.291,3.109 c-0.86,0.86-1.898,1.291-3.108,1.291C74.596,174.53,73.575,174.099,72.747,173.239z M73.703,219.293 c-0.894-2.231-1.339-5.07-1.339-8.513c0-2.296,0.191-4.622,0.574-6.983c0.574-3.443,1.371-6.471,2.391-9.086 c0.254-0.828,0.541-1.244,0.861-1.244c0.191,0,0.287,0.224,0.287,0.67c0,0.255-0.383,2.168-1.148,5.739 c-0.638,2.869-0.956,4.974-0.956,6.313c0,4.719,1.562,9.055,4.687,13.008c4.271,5.293,10.488,7.938,18.651,7.938 c7.078,0,14.634-1.689,22.669-5.069c6.44-2.614,12.21-5.93,17.312-9.947c4.654-3.635,6.982-6.217,6.982-7.747 c0-0.254-0.956-2.264-2.869-6.026c-2.296-4.463-3.986-8.8-5.069-13.008c-0.447-1.466-0.973-2.439-1.578-2.917 c-0.606-0.479-0.908-1.004-0.908-1.579c0-0.445,0.445-2.74,1.339-6.887c0.127-0.765,0.319-1.148,0.574-1.148 c0.254,0,0.541,0.192,0.861,0.575c1.21,1.338,3.762,3.921,7.652,7.747c0.637,0.638,0.956,1.117,0.956,1.435 c0,0.447-0.383,0.669-1.148,0.669s-1.977-0.222-3.635-0.669c0.127,0.447,1.435,3.156,3.922,8.13 c1.976,4.017,2.965,7.493,2.965,10.425c0,5.739-1.307,10.108-3.922,13.104c-4.081,4.782-10.076,9.406-17.982,13.869 c-10.011,5.547-19.354,8.321-28.025,8.321C86.138,236.414,78.103,230.708,73.703,219.293z M82.933,173.239 c-0.86-0.861-1.291-1.896-1.291-3.109c0-1.148,0.431-2.167,1.291-3.061c0.861-0.891,1.897-1.338,3.109-1.338 c1.21,0,2.247,0.447,3.109,1.338c0.86,0.894,1.291,1.913,1.291,3.061c0,1.213-0.431,2.248-1.291,3.109 c-0.861,0.86-1.898,1.291-3.109,1.291C84.83,174.53,83.795,174.099,82.933,173.239z M86.759,210.78 c0.414-0.383,0.622-0.892,0.622-1.53c0-0.701-0.383-1.052-1.148-1.052c-0.383,0-0.702,0.095-0.956,0.286 c0-0.383,0.27-0.988,0.813-1.817c0.541-0.828,1.067-1.466,1.578-1.913c0.063-0.063,0.096-0.159,0.096-0.287v-0.095 c0-0.063-0.033-0.096-0.096-0.096c-0.511,0-1.243,0.798-2.2,2.392c-0.894,1.212-1.339,2.264-1.339,3.156 c0,1.021,0.445,1.53,1.339,1.53C85.913,211.354,86.344,211.163,86.759,210.78z M89.485,94.09c2.487-2.741,3.73-4.558,3.73-5.452 c0-0.891-0.416-1.338-1.243-1.338c-0.383,0-0.734,0.112-1.052,0.334c-0.32,0.224-0.542,0.335-0.67,0.335l-0.096-0.096l0.096-0.669 c0.383-1.913,1.306-2.869,2.774-2.869c1.275,0,1.913,0.765,1.913,2.296c0,1.148-0.478,2.472-1.435,3.97 c-0.956,1.498-2.2,2.759-3.73,3.777c-0.574,0.448-0.925,0.67-1.052,0.67C88.72,94.919,88.974,94.6,89.485,94.09z M91.303,194.137 c5.484-3.379,12.784-7.045,21.903-11c7.97-3.57,12.37-5.356,13.199-5.356c0.127,0.065,0.191,0.16,0.191,0.287 c0,0.319-0.224,0.877-0.67,1.674c-0.447,0.798-0.829,1.259-1.148,1.387c-2.615,0.956-7.685,3.252-15.208,6.887 c-8.417,4.017-15.05,7.461-19.895,10.33C89.995,197.135,90.538,195.732,91.303,194.137z M103.259,154.73 c0-0.956-0.861-1.818-2.582-2.583c-0.638-0.254-1.468-0.383-2.487-0.383c-1.021,0-2.264,0.129-3.73,0.383 c1.53,2.361,3.857,3.539,6.982,3.539C102.652,155.687,103.259,155.368,103.259,154.73z M95.894,212.024 c0-1.211,0.701-2.997,2.104-5.356c1.402-2.359,2.582-3.539,3.539-3.539c0.892,0,1.658,0.368,2.296,1.1 c0.637,0.733,0.956,1.674,0.956,2.822c0,1.786-0.607,3.491-1.817,5.116c-1.212,1.626-2.678,2.439-4.4,2.439 C96.786,214.606,95.894,213.745,95.894,212.024z M99.29,137.226c0.414-0.383,0.621-0.891,0.621-1.53 c-0.064-0.636-0.478-0.956-1.243-0.956c-0.32,0-0.607,0.095-0.861,0.286c0-0.383,0.27-0.988,0.813-1.817 c0.541-0.828,1.067-1.466,1.578-1.913c0.063-0.063,0.096-0.159,0.096-0.287v-0.095c0-0.063-0.033-0.096-0.096-0.096 c-0.511,0-1.228,0.702-2.152,2.104c-0.925,1.403-1.387,2.551-1.387,3.443c0,0.956,0.445,1.435,1.339,1.435 C98.443,137.801,98.874,137.609,99.29,137.226z M103.259,209.058c0-1.594-1.116-2.391-3.348-2.391c-0.32,0-0.829,0.494-1.53,1.482 c-0.702,0.989-1.052,1.707-1.052,2.152c0.191,0.512,0.988,0.765,2.391,0.765C102.078,211.067,103.259,210.398,103.259,209.058z M104.789,105.663c5.548-3.315,12.848-6.983,21.903-11c7.97-3.506,12.401-5.261,13.295-5.261c0.127,0,0.191,0.065,0.191,0.192 c0,0.383-0.239,0.972-0.717,1.769c-0.479,0.798-0.846,1.228-1.1,1.291c-2.615,0.956-7.685,3.251-15.208,6.887 c-8.417,4.081-15.05,7.556-19.895,10.425C103.513,108.692,104.024,107.258,104.789,105.663z M110.385,247.413 c0.605-0.573,0.908-1.338,0.908-2.296c0-1.021-0.574-1.53-1.722-1.53c-0.511,0-0.956,0.159-1.339,0.479 c0-0.638,0.398-1.563,1.196-2.774c0.796-1.212,1.578-2.168,2.343-2.869c0.127-0.129,0.191-0.256,0.191-0.383 c0-0.129-0.064-0.192-0.191-0.192h-0.191c-1.021,0.637-2.073,1.785-3.156,3.443c-1.276,1.849-1.913,3.443-1.913,4.783 c0,1.465,0.67,2.199,2.009,2.199C109.156,248.274,109.778,247.988,110.385,247.413z M110.815,82.325 c0.956-0.637,2.04-1.832,3.252-3.587c1.21-1.753,1.817-3.3,1.817-4.639c0-1.466-0.67-2.2-2.009-2.2 c-0.638,0-1.26,0.287-1.865,0.861c-0.606,0.574-0.908,1.339-0.908,2.296c0,1.021,0.574,1.53,1.722,1.53 c0.51,0,0.956-0.158,1.339-0.478c0,0.638-0.399,1.563-1.196,2.774c-0.798,1.212-1.578,2.169-2.343,2.869 c-0.129,0.129-0.191,0.256-0.191,0.383c0,0.192,0.063,0.287,0.191,0.287L110.815,82.325z M113.971,216.998 c1.658-1.785,2.487-2.997,2.487-3.636c0-0.573-0.255-0.86-0.765-0.86c-0.32,0-0.574,0.064-0.765,0.191 c-0.191,0.128-0.32,0.191-0.383,0.191h-0.096l0.096-0.478c0.254-1.275,0.861-1.913,1.817-1.913c0.828,0,1.243,0.511,1.243,1.53 c0,0.765-0.32,1.642-0.956,2.63c-0.638,0.989-1.468,1.865-2.487,2.631l-0.67,0.383C113.493,217.604,113.651,217.38,113.971,216.998 z M115.31,159.992c2.487-2.678,3.73-4.463,3.73-5.356c0-0.892-0.416-1.34-1.243-1.34c-0.447,0-0.813,0.096-1.1,0.287 c-0.287,0.191-0.495,0.319-0.622,0.383l-0.096-0.095l0.096-0.383c0.319-2.105,1.243-3.157,2.774-3.157 c1.275,0,1.913,0.765,1.913,2.296c0,1.148-0.478,2.472-1.435,3.97c-0.956,1.498-2.2,2.759-3.73,3.778 c-0.574,0.447-0.925,0.669-1.052,0.669C114.545,160.916,114.799,160.564,115.31,159.992z M116.936,200.833 c-0.829-0.828-1.243-1.849-1.243-3.061c0-1.211,0.414-2.248,1.243-3.108c0.828-0.861,1.849-1.291,3.061-1.291 c1.21,0,2.248,0.43,3.108,1.291c0.861,0.86,1.291,1.897,1.291,3.108c0,1.212-0.43,2.232-1.291,3.061 c-0.86,0.829-1.898,1.244-3.108,1.244C118.785,202.077,117.764,201.662,116.936,200.833z M118.897,115.801 c0.414-0.383,0.622-0.891,0.622-1.53c-0.064-0.7-0.478-1.052-1.243-1.052c-0.32,0-0.607,0.128-0.861,0.383 c0-0.446,0.27-1.067,0.813-1.865c0.541-0.796,1.067-1.45,1.578-1.961l0.096-0.191c0-0.127-0.033-0.191-0.096-0.191l-0.191,0.096 c-0.638,0.383-1.356,1.148-2.152,2.296c-0.798,1.148-1.196,2.168-1.196,3.061c0,1.021,0.445,1.53,1.339,1.53 C118.051,116.376,118.482,116.184,118.897,115.801z M201.01,221.206c2.997,0,5.898-1.148,8.704-3.443 c0.765-0.701,1.148-3.188,1.148-7.461c0-2.613-1.084-19.065-3.251-49.354c-2.233-30.287-3.348-47.026-3.348-50.215 c0-2.997-0.447-5.451-1.34-7.364c0-1.084,0.862-3.636,2.583-7.652c0.192-0.51,0.383-0.765,0.575-0.765 c0.19,0,0.383,0.255,0.573,0.765c0.511,1.085,1.659,3.985,3.443,8.704c1.913,4.974,3.028,8.034,3.348,9.182 c0.19,0.893,0.287,1.563,0.287,2.009c0,1.338-1.276,0.478-3.826-2.583c-0.32-0.446-0.48-0.254-0.48,0.574 c0,0.191,1.02,14.316,3.061,42.372c2.041,28.121,3.061,43.712,3.061,46.772c0,8.991-1.626,16.069-4.877,21.234 c-2.742,4.337-5.964,6.504-9.662,6.504c-3.443,0-6.951-1.497-10.52-4.496c-1.913-1.657-3.412-3.41-4.496-5.26l-10.235,4.305 c-4.781,2.041-8.353,3.634-10.712,4.781c-4.655,2.169-7.843,3.922-9.565,5.261c-3.189,2.487-7.812,7.236-13.869,14.251 c-3.635,4.209-7.302,6.314-11,6.314c-3.061,0-5.739-1.404-8.034-4.209c-2.36-2.87-3.539-6.378-3.539-10.522 c0-5.739,2.327-13.199,6.982-22.381c0.51-0.957,0.924-1.435,1.243-1.435c0.063,0,0.096,0.128,0.096,0.383 c0,0.893-1.021,4.081-3.061,9.565c-2.042,5.548-3.061,9.914-3.061,13.103c0,2.423,0.574,4.368,1.722,5.835 c1.21,1.594,2.901,2.392,5.069,2.392c3.826,0,7.683-1.946,11.573-5.835l4.209-4.974l3.252-3.826 c3.188-3.635,7.428-6.887,12.721-9.756c3.061-1.658,8.384-4.08,15.972-7.269l7.557-3.252c-1.084-2.933-1.626-5.93-1.626-8.991 c0-4.654,0.701-8.417,2.103-11.286c1.34-2.805,3.158-4.209,5.453-4.209c1.975,0,3.857,1.691,5.642,5.07 c1.594,2.998,2.393,5.676,2.393,8.034c0,6.186-1.818,11.223-5.453,15.111C194.378,219.866,197.439,221.206,201.01,221.206z M126.692,74.673l0.478-0.574c1.658-1.849,2.487-3.061,2.487-3.635s-0.255-0.861-0.765-0.861c-0.32,0-0.574,0.064-0.765,0.191 c-0.191,0.129-0.32,0.191-0.383,0.191l-0.096-0.096l0.096-0.478c0.254-1.21,0.861-1.817,1.817-1.817 c0.828,0,1.243,0.511,1.243,1.53c0,0.765-0.32,1.642-0.956,2.63c-0.638,0.989-1.468,1.834-2.487,2.535l-0.67,0.478V74.673z M128.414,241.866l0.574-0.575c1.658-1.85,2.487-3.061,2.487-3.634c0-0.575-0.287-0.861-0.861-0.861 c-0.255,0-0.495,0.063-0.717,0.191c-0.224,0.127-0.368,0.191-0.431,0.191h-0.096l0.096-0.479c0.319-1.276,0.956-1.913,1.913-1.913 c0.828,0,1.243,0.51,1.243,1.53c0,0.765-0.32,1.641-0.956,2.631c-0.638,0.989-1.468,1.832-2.487,2.535l-0.67,0.478L128.414,241.866 z M155.483,121.923c0.574-1.53,1.849-3.283,3.826-5.26l0.574-0.574c-0.255-0.637-0.67-0.956-1.243-0.956 c-0.383,0-0.861,0.128-1.435,0.383c-5.676,2.934-11.159,4.4-16.451,4.4c-2.869,0-5.485-0.637-7.843-1.913 c0.127,0.383,0.191,0.798,0.191,1.243c0,0.83-0.191,1.723-0.574,2.678c-0.191,0.639-0.351,0.957-0.478,0.957 c-0.064,0-0.096-0.383-0.096-1.148c0-1.34-0.224-2.519-0.67-3.539c0-0.127-0.702-1.179-2.104-3.157 c0.254-1.401,0.605-2.103,1.052-2.103c0.063,0,0.445,0.286,1.148,0.86c0.701,0.574,1.466,1.053,2.296,1.435 c2.358,1.276,4.974,1.913,7.843,1.913c2.932,0,5.802-0.415,8.608-1.244c1.593-0.574,3.539-1.402,5.835-2.487 c1.722-0.828,2.869-1.243,3.443-1.243c1.21,0,1.817,0.606,1.817,1.817c0,0.638-0.16,1.339-0.478,2.104 c-0.255,0.447-0.829,1.212-1.722,2.296c-1.276,1.467-2.137,2.52-2.583,3.156c-0.765,0.957-1.212,1.435-1.339,1.435 C155.1,122.848,155.227,122.497,155.483,121.923z M134.583,206.476c0.414-0.383,0.622-0.891,0.622-1.53 c0-0.7-0.416-1.052-1.243-1.052c-0.32,0-0.607,0.128-0.861,0.383c0-0.446,0.27-1.067,0.813-1.865 c0.541-0.796,1.067-1.45,1.578-1.961l0.096-0.191c0-0.127-0.033-0.191-0.096-0.191h-0.191c-0.638,0.447-1.356,1.244-2.152,2.392 c-0.798,1.148-1.196,2.168-1.196,3.061c0,1.021,0.445,1.53,1.339,1.53C133.737,207.05,134.168,206.858,134.583,206.476z M140.992,133.688c0.414-0.383,0.621-0.892,0.621-1.53c0-0.701-0.383-1.053-1.148-1.053c-0.383,0-0.702,0.096-0.956,0.287 c0-0.383,0.27-0.988,0.813-1.818c0.541-0.827,1.067-1.465,1.578-1.913c0.063-0.062,0.096-0.158,0.096-0.286v-0.191l-0.191,0.095 c-0.702,0.383-1.451,1.164-2.248,2.344c-0.798,1.181-1.195,2.216-1.195,3.108c0,1.021,0.478,1.53,1.435,1.53 C140.179,134.262,140.577,134.07,140.992,133.688z M139.892,170.512c0-0.062,0.158-0.254,0.478-0.573 c1.658-1.849,2.487-3.093,2.487-3.731c0-0.574-0.255-0.86-0.765-0.86c-0.32,0.064-0.574,0.159-0.765,0.286 c-0.191,0.128-0.32,0.191-0.383,0.191l-0.096-0.095l0.096-0.479c0.254-1.211,0.861-1.817,1.817-1.817 c0.828,0,1.243,0.511,1.243,1.53c0,0.765-0.32,1.642-0.956,2.63c-0.638,0.989-1.468,1.834-2.487,2.534l-0.67,0.479V170.512z M141.805,111.306c1.658-1.785,2.487-2.997,2.487-3.635c0-0.574-0.255-0.86-0.765-0.86c-0.32,0.064-0.574,0.159-0.765,0.286 c-0.191,0.128-0.32,0.191-0.383,0.191l-0.096-0.095l0.096-0.479c0.254-1.211,0.861-1.817,1.817-1.817 c0.828,0,1.243,0.511,1.243,1.53c0,0.765-0.32,1.642-0.956,2.63c-0.638,0.989-1.468,1.834-2.487,2.534l-0.67,0.383 C141.327,111.913,141.485,111.689,141.805,111.306z M144.531,227.135c0.414-0.383,0.622-0.891,0.622-1.53 c0-0.636-0.383-0.956-1.148-0.956c-0.32,0-0.607,0.095-0.861,0.286c0-0.383,0.254-0.988,0.765-1.817 c0.51-0.828,1.019-1.466,1.53-1.913c0.127-0.127,0.191-0.254,0.191-0.383l-0.096-0.096c-0.447,0-1.212,0.765-2.296,2.296 c-0.829,1.276-1.243,2.36-1.243,3.252c0,0.956,0.445,1.435,1.339,1.435C143.718,227.71,144.116,227.518,144.531,227.135z M154.143,224.65c0-0.637,0.063-1.498,0.191-2.583c0.319-2.487,0.478-5.387,0.478-8.704c0-2.932-0.765-15.16-2.296-36.68 c-1.53-21.521-2.296-33.556-2.296-36.107c0-2.997-0.478-5.451-1.435-7.364c0-1.084,0.861-3.636,2.583-7.652 c0.254-0.51,0.445-0.765,0.574-0.765c0.191,0,0.414,0.255,0.67,0.765c0.51,1.021,1.689,3.969,3.539,8.847 c1.849,4.878,2.932,7.891,3.252,9.039c0.191,0.893,0.287,1.563,0.287,2.009c0,0.383-0.129,0.573-0.383,0.573 c-0.574,0-1.755-1.019-3.539-3.061c-0.129-0.126-0.224-0.19-0.287-0.19c-0.129,0-0.191,0.255-0.191,0.765 c0,0.255,0.685,9.772,2.056,28.551c1.371,18.78,2.057,29.349,2.057,31.707c0,7.207-1.085,13.551-3.252,19.034 c-0.894,2.041-1.468,3.061-1.722,3.061C154.239,225.893,154.143,225.479,154.143,224.65z M155.1,256.452 c0.828-0.798,1.243-1.865,1.243-3.204c0-1.403-0.798-2.104-2.391-2.104c-0.702,0-1.307,0.222-1.817,0.67 c0-0.83,0.557-2.105,1.674-3.826c1.115-1.723,2.183-3.061,3.204-4.018c0.191-0.19,0.287-0.383,0.287-0.573 c0-0.192-0.064-0.32-0.191-0.383l-0.383,0.19c-1.339,0.828-2.807,2.392-4.4,4.687c-1.722,2.55-2.583,4.749-2.583,6.6 c0,2.103,0.924,3.156,2.774,3.156C153.41,257.648,154.271,257.249,155.1,256.452z M157.444,101.55 c0.414-0.383,0.621-0.892,0.621-1.53c-0.064-0.701-0.478-1.053-1.243-1.053c-0.32,0-0.607,0.129-0.861,0.383 c0-0.445,0.27-1.083,0.813-1.913c0.541-0.827,1.067-1.465,1.578-1.913l0.096-0.19c0-0.127-0.033-0.192-0.096-0.192h-0.191 c-0.638,0.448-1.356,1.244-2.152,2.392c-0.798,1.148-1.195,2.168-1.195,3.061c0,1.021,0.445,1.53,1.339,1.53 C156.597,102.124,157.028,101.933,157.444,101.55z M164.187,187.059c0-0.063,0.158-0.254,0.478-0.574 c1.658-1.849,2.487-3.092,2.487-3.731c0-0.573-0.255-0.86-0.765-0.86c-0.383,0.064-0.67,0.16-0.861,0.287l-0.287,0.19l-0.191-0.095 l0.096-0.478c0.319-1.211,0.956-1.818,1.913-1.818c0.828,0,1.243,0.511,1.243,1.53c0,0.765-0.32,1.642-0.956,2.631 c-0.638,0.989-1.468,1.833-2.487,2.534l-0.67,0.479C164.122,187.092,164.122,187.059,164.187,187.059z M164.665,240.526 c1.658-1.786,2.487-2.998,2.487-3.634c0-0.575-0.255-0.861-0.765-0.861c-0.383,0.063-0.67,0.158-0.861,0.286l-0.287,0.192 l-0.191-0.096l0.096-0.479c0.319-1.212,0.956-1.817,1.913-1.817c0.828,0,1.243,0.51,1.243,1.53c0,0.765-0.32,1.641-0.956,2.631 c-0.638,0.988-1.468,1.832-2.487,2.534l-0.67,0.383c-0.064,0-0.064,0,0,0C164.187,241.132,164.345,240.909,164.665,240.526z M171.982,205.52c0.604-0.575,0.908-1.34,0.908-2.296c0-1.02-0.575-1.53-1.723-1.53c-0.511,0-0.956,0.159-1.338,0.478 c0-0.637,0.397-1.561,1.195-2.773c0.796-1.211,1.578-2.167,2.343-2.87c0.128-0.19,0.192-0.35,0.192-0.478 c-0.064-0.127-0.128-0.191-0.192-0.191l-0.19,0.096c-1.021,0.573-2.074,1.69-3.158,3.347c-1.275,1.85-1.912,3.443-1.912,4.782 c0,1.53,0.67,2.296,2.009,2.296C170.754,206.38,171.375,206.093,171.982,205.52z M170.02,254.587 c3.443-3.826,5.166-6.377,5.166-7.652c0-1.212-0.542-1.818-1.626-1.818c-0.639,0-1.181,0.159-1.627,0.479 c-0.447,0.319-0.701,0.479-0.765,0.479c-0.064-0.065-0.159-0.096-0.286-0.096c0.062-0.128,0.126-0.479,0.19-1.052 c0.575-2.552,1.944-3.826,4.113-3.826c1.593,0,2.391,1.052,2.391,3.156c0,1.594-0.654,3.427-1.961,5.5 c-1.307,2.071-3.013,3.841-5.116,5.308c-0.894,0.575-1.404,0.861-1.531,0.861C168.969,255.798,169.319,255.352,170.02,254.587z M170.02,80.603l0.765-0.956c2.55-2.741,3.826-4.558,3.826-5.452c0-0.828-0.414-1.243-1.243-1.243 c-0.447,0-0.829,0.096-1.148,0.287c-0.319,0.191-0.511,0.287-0.573,0.287h-0.192l0.095-0.478c0.383-2.04,1.34-3.061,2.87-3.061 c1.274,0,1.913,0.765,1.913,2.296c0,1.148-0.478,2.455-1.435,3.922c-0.956,1.468-2.2,2.742-3.731,3.826 c-0.573,0.447-0.924,0.669-1.051,0.669L170.02,80.603z M173.13,165.778c0.414-0.415,0.621-0.909,0.621-1.483 c0-0.701-0.416-1.053-1.243-1.053c-0.32,0-0.606,0.096-0.86,0.287c0-0.383,0.271-0.988,0.813-1.818 c0.54-0.827,1.067-1.465,1.578-1.913c0.062-0.062,0.095-0.158,0.095-0.286v-0.096c0-0.062-0.033-0.095-0.095-0.095 c-0.511,0-1.243,0.798-2.2,2.391c-0.893,1.213-1.338,2.264-1.338,3.157c0,1.021,0.445,1.53,1.338,1.53 C172.285,166.399,172.715,166.194,173.13,165.778z M171.55,174.625c0-0.191,0.416-0.574,1.245-1.148l10.998-6.504 c4.401-2.678,7.685-5.165,9.852-7.461c-2.869-1.466-4.304-3.028-4.304-4.687c0-1.975,0.924-3.793,2.773-5.451 c1.466-1.275,2.709-1.913,3.731-1.913c1.53,0,2.296,1.148,2.296,3.443c0,1.659-0.32,3.507-0.957,5.548 c1.402,0.829,2.296,1.53,2.678,2.104c0,0.765-0.637,2.073-1.913,3.921c-0.383-0.573-1.276-1.274-2.678-2.103 c-1.594,2.232-3.634,4.273-6.121,6.121c-2.806,2.041-5.387,3.603-7.747,4.686c-0.511,0.255-3.251,1.276-8.225,3.061 c-0.765,0.319-1.276,0.478-1.53,0.478C171.583,174.72,171.55,174.689,171.55,174.625z M178.39,182.995 c-0.86-0.861-1.291-1.896-1.291-3.108c0-1.211,0.43-2.248,1.291-3.109c0.862-0.86,1.865-1.291,3.013-1.291 c1.212,0,2.263,0.431,3.156,1.291c0.893,0.861,1.34,1.898,1.34,3.109c0,1.212-0.447,2.247-1.34,3.108 c-0.893,0.86-1.944,1.291-3.156,1.291C180.255,184.285,179.252,183.855,178.39,182.995z M182.36,164.104 c0-0.574,0.095-1.466,0.286-2.678c0.254-2.487,0.383-5.387,0.383-8.704c0-2.997-0.621-13.248-1.864-30.751 c-1.245-17.504-1.865-27.53-1.865-30.081c0-2.997-0.447-5.452-1.34-7.365c0-1.084,0.86-3.666,2.583-7.747 c0.19-0.445,0.383-0.67,0.573-0.67c0.319,0,1.69,3.189,4.113,9.565c2.424,6.377,3.636,10.044,3.636,10.999 c0,0.448-0.128,0.67-0.383,0.67c-0.575,0-1.787-1.053-3.636-3.156l-0.19-0.192c-0.128,0-0.192,0.287-0.192,0.861 c0,0.255,0.542,7.78,1.626,22.573c1.084,14.794,1.627,23.338,1.627,25.634c0,7.269-1.117,13.646-3.348,19.13 c-0.829,2.041-1.371,3.061-1.626,3.061C182.486,165.252,182.36,164.869,182.36,164.104z M182.408,232.874 c0.414-0.383,0.621-0.891,0.621-1.53c0-0.7-0.383-1.052-1.148-1.052c-0.383,0-0.701,0.128-0.956,0.383 c0-0.446,0.271-1.067,0.813-1.865c0.542-0.796,1.067-1.45,1.578-1.961l0.095-0.191c0-0.127-0.031-0.191-0.095-0.191l-0.19,0.096 c-0.639,0.383-1.356,1.148-2.153,2.296c-0.798,1.148-1.195,2.168-1.195,3.061c0,1.021,0.478,1.53,1.435,1.53 C181.595,233.449,181.992,233.257,182.408,232.874z M191.828,209.058c2.041-1.402,3.061-2.391,3.061-2.966 c0-1.019-0.829-2.63-2.486-4.83c-1.659-2.199-3.125-3.3-4.401-3.3c-0.956,0-1.896,0.574-2.821,1.722 c-0.924,1.148-1.388,2.264-1.388,3.347c0,0.894,0.511,2.456,1.53,4.687c0.893,1.977,1.563,3.285,2.01,3.922 C188.672,211.067,190.169,210.206,191.828,209.058z M188.529,182.995c-0.86-0.861-1.292-1.896-1.292-3.108 c0-1.211,0.432-2.248,1.292-3.109c0.86-0.86,1.896-1.291,3.108-1.291c1.21,0,2.248,0.431,3.108,1.291 c0.86,0.861,1.291,1.898,1.291,3.109c0,1.212-0.43,2.247-1.291,3.108c-0.86,0.86-1.898,1.291-3.108,1.291 C190.426,184.285,189.39,183.855,188.529,182.995z M193.598,247.03c0.86-0.829,1.291-1.881,1.291-3.156 c-0.064-1.403-0.893-2.104-2.486-2.104c-0.703,0-1.307,0.191-1.818,0.574c0-0.829,0.558-2.09,1.675-3.778 c1.115-1.69,2.182-3.013,3.204-3.969c0.19-0.256,0.287-0.479,0.287-0.67c0-0.191-0.097-0.287-0.287-0.287l-0.287,0.096 c-1.338,0.828-2.773,2.423-4.304,4.782c-1.787,2.55-2.678,4.749-2.678,6.599c0,2.105,0.956,3.157,2.869,3.157 C191.892,248.274,192.738,247.859,193.598,247.03z M192.115,117.619c2.488-2.678,3.731-4.496,3.731-5.451 c0-0.828-0.416-1.244-1.243-1.244c-0.447,0-0.813,0.096-1.1,0.286c-0.287,0.192-0.494,0.32-0.622,0.383 c0-0.062-0.033-0.095-0.095-0.095l0.095-0.478c0.319-2.04,1.243-3.061,2.773-3.061c1.276,0,1.913,0.765,1.913,2.296 c0,1.148-0.478,2.455-1.433,3.921c-0.957,1.467-2.2,2.742-3.731,3.826c-0.575,0.447-0.924,0.67-1.053,0.67 C191.35,118.544,191.605,118.193,192.115,117.619z M195.751,153.678c0-1.53-0.511-2.296-1.53-2.296c-0.32,0-0.765,0.16-1.34,0.479 c-0.573,0.319-0.86,0.638-0.86,0.956c0,0.702,1.148,1.626,3.443,2.773C195.654,154.955,195.751,154.317,195.751,153.678z M192.498,89.307c0-1.211,0.701-3.013,2.105-5.404c1.402-2.392,2.614-3.587,3.634-3.587c0.829,0,1.561,0.383,2.2,1.148 c0.637,0.765,0.956,1.722,0.956,2.869c0,1.722-0.606,3.412-1.816,5.069c-1.212,1.659-2.678,2.488-4.401,2.488 C193.391,91.89,192.498,91.029,192.498,89.307z M197.519,137.992c0.606-0.573,0.91-1.338,0.91-2.296c0-1.019-0.575-1.53-1.723-1.53 c-0.511,0-0.956,0.16-1.338,0.479c0-0.637,0.397-1.561,1.195-2.774c0.796-1.21,1.578-2.167,2.343-2.869 c0.126-0.127,0.19-0.287,0.19-0.479c0-0.127-0.031-0.191-0.095-0.191l-0.287,0.095c-1.02,0.575-2.072,1.691-3.156,3.348 c-1.276,1.85-1.913,3.443-1.913,4.782c0,1.53,0.67,2.296,2.008,2.296C196.291,138.853,196.913,138.566,197.519,137.992z M199.862,86.342c0-1.657-1.084-2.486-3.251-2.486c-0.32,0-0.846,0.511-1.578,1.53c-0.734,1.021-1.1,1.721-1.1,2.103 c0.254,0.575,1.084,0.861,2.486,0.861C198.715,88.351,199.862,87.682,199.862,86.342z M200.962,191.364 c0.416-0.383,0.622-0.892,0.622-1.53c0-0.701-0.383-1.053-1.148-1.053c-0.383,0-0.703,0.095-0.957,0.287 c0-0.383,0.271-0.989,0.815-1.818c0.54-0.828,1.067-1.466,1.578-1.913c0.062-0.063,0.095-0.158,0.095-0.287v-0.19l-0.192,0.095 c-0.701,0.383-1.433,1.164-2.199,2.343c-0.765,1.181-1.148,2.281-1.148,3.301c0,0.893,0.445,1.338,1.338,1.338 C200.15,191.937,200.547,191.747,200.962,191.364z M201.297,215.467l0.478-0.575c1.659-1.848,2.488-3.061,2.488-3.634 c0-0.575-0.256-0.861-0.765-0.861c-0.32,0-0.575,0.064-0.765,0.191c-0.192,0.128-0.32,0.191-0.383,0.191h-0.095l0.095-0.479 c0.254-1.274,0.86-1.913,1.818-1.913c0.827,0,1.243,0.512,1.243,1.53c0,0.765-0.32,1.643-0.957,2.631 c-0.637,0.989-1.466,1.834-2.486,2.535l-0.67,0.478V215.467z M209.094,236.605c0.414-0.383,0.621-0.893,0.621-1.53 c0-0.702-0.383-1.053-1.148-1.053c-0.383,0-0.701,0.127-0.956,0.383c0-0.447,0.271-1.066,0.813-1.864 c0.54-0.797,1.067-1.419,1.578-1.865l0.095-0.286v-0.192l-0.19,0.096c-0.639,0.383-1.356,1.148-2.153,2.296 c-0.798,1.148-1.195,2.167-1.195,3.061c0,1.02,0.445,1.53,1.338,1.53C208.279,237.179,208.678,236.988,209.094,236.605z M216.363,104.516c0.604-0.575,0.908-1.34,0.908-2.296c0-1.02-0.575-1.53-1.723-1.53c-0.511,0-0.956,0.159-1.338,0.478 c0-0.574,0.397-1.483,1.195-2.726c0.796-1.244,1.578-2.184,2.343-2.822c0.128-0.191,0.192-0.35,0.192-0.479 c0-0.126-0.033-0.19-0.097-0.19l-0.286,0.095c-1.021,0.574-2.074,1.691-3.158,3.348c-1.276,1.85-1.913,3.443-1.913,4.781 c0,1.468,0.67,2.2,2.01,2.2C215.135,105.376,215.755,105.089,216.363,104.516z M218.227,226.753 c1.659-1.784,2.488-2.996,2.488-3.634c0-0.575-0.256-0.861-0.765-0.861c-0.383,0-0.67,0.096-0.86,0.286l-0.287,0.192l-0.192-0.096 l0.192-0.479c0.254-1.21,0.86-1.817,1.818-1.817c0.827,0,1.243,0.479,1.243,1.434c0,0.83-0.32,1.723-0.957,2.678 c-0.637,0.957-1.466,1.818-2.486,2.583l-0.67,0.383C217.749,227.36,217.908,227.135,218.227,226.753z M225.306,214.606 c0-0.574,0.062-1.402,0.19-2.487c0.319-2.487,0.48-5.387,0.48-8.704c0-2.932-0.91-17.152-2.726-42.658 c-1.818-25.506-2.728-39.534-2.728-42.085c0-2.997-0.447-5.452-1.338-7.365c0-1.211,0.86-3.793,2.583-7.748 c0.19-0.445,0.383-0.669,0.573-0.669c0.192,0,0.383,0.224,0.575,0.669c0.509,1.086,1.657,4.018,3.443,8.8 c2.486,6.442,3.729,10.14,3.729,11.095c0,0.448-0.128,0.67-0.383,0.67c-0.573,0-1.785-1.053-3.634-3.156 c-0.128-0.127-0.223-0.192-0.287-0.192c-0.128,0-0.19,0.256-0.19,0.765c0,0.256,0.844,11.782,2.534,34.577 c1.69,22.797,2.535,35.375,2.535,37.733c0,7.207-1.117,13.551-3.348,19.034c-0.765,1.977-1.338,2.966-1.721,2.966 C225.401,215.85,225.306,215.435,225.306,214.606z M229.036,140.766c0-0.127,0.35-0.574,1.051-1.339 c3.507-3.826,5.261-6.376,5.261-7.652c0-1.148-0.573-1.722-1.721-1.722c-0.575,0-1.086,0.144-1.53,0.43 c-0.447,0.287-0.703,0.431-0.765,0.431l-0.287-0.096l0.19-0.956c0.575-2.614,1.882-3.921,3.923-3.921 c1.721,0,2.581,1.052,2.581,3.156c0,1.594-0.668,3.429-2.008,5.5c-1.338,2.072-3.061,3.842-5.164,5.308 c-0.829,0.575-1.309,0.861-1.435,0.861H229.036z M230.852,153.105l0.48-0.575c1.657-1.848,2.486-3.061,2.486-3.634 c0-0.575-0.254-0.861-0.765-0.861c-0.319,0-0.573,0.064-0.765,0.191c-0.19,0.128-0.319,0.191-0.383,0.191h-0.095l0.095-0.479 c0.254-1.274,0.86-1.913,1.818-1.913c0.827,0,1.243,0.512,1.243,1.53c0,0.765-0.319,1.643-0.956,2.631 c-0.639,0.989-1.468,1.834-2.488,2.535l-0.67,0.478V153.105z M235.205,172.904c0.414-0.383,0.621-0.892,0.621-1.53 c0-0.701-0.383-1.052-1.148-1.052c-0.383,0-0.701,0.128-0.956,0.383c0-0.446,0.271-1.067,0.813-1.865 c0.542-0.797,1.067-1.419,1.578-1.865l0.095-0.287v-0.19l-0.19,0.095c-0.639,0.383-1.355,1.148-2.153,2.296 s-1.195,2.168-1.195,3.061c0,1.021,0.447,1.53,1.34,1.53C234.393,173.477,234.79,173.286,235.205,172.904z M233.053,192.416 c0-0.127,0.35-0.574,1.053-1.339c3.506-3.762,5.261-6.313,5.261-7.652c0-1.148-0.575-1.722-1.723-1.722 c-0.573,0-1.084,0.144-1.53,0.43c-0.447,0.287-0.701,0.431-0.765,0.431l-0.287-0.096l0.192-0.956 c0.573-2.614,1.88-3.921,3.921-3.921c1.723,0,2.583,1.052,2.583,3.156c0,1.594-0.67,3.429-2.008,5.5 c-1.34,2.072-3.061,3.842-5.166,5.308c-0.829,0.575-1.307,0.861-1.435,0.861H233.053z M240.849,161.665 c0.86-0.796,1.291-1.865,1.291-3.204c0-1.402-0.829-2.105-2.488-2.105c-0.701,0-1.307,0.224-1.816,0.67 c0-0.828,0.557-2.104,1.673-3.826c1.115-1.722,2.184-3.061,3.204-4.017c0.192-0.191,0.287-0.383,0.287-0.574 c0-0.191-0.064-0.319-0.19-0.383l-0.383,0.191c-1.34,0.829-2.775,2.392-4.306,4.687c-1.785,2.551-2.678,4.75-2.678,6.599 c0,2.104,0.957,3.156,2.87,3.156C239.141,162.86,239.987,162.463,240.849,161.665z"/></g></svg>