<svg enable-background="new 0 0 1400 980" height="980" viewBox="0 0 1400 980" width="1400" xmlns="http://www.w3.org/2000/svg"><path d="m0 0h1400v980h-1400z" fill="#092128"/><path d="m785.8 117.8-85.8-62.9-85.8 62.9c-55.3 40.5-87.2 99.8-87.2 162.2v395h346v-395c0-62.4-31.9-121.7-87.2-162.2z" fill="#335c64"/><path d="m1188.6 882.9h-977.2l186.5-161.4h604.2z" fill="#0a3542"/><path d="m683.8 294.7c-5.8 9.6-7.3 27.1-8.1 38.4-.4 5.6.2 10.5 1.7 15.7 2.7 9.8 9 16.7 13.2 25.5 3.8 7.9 6 18.1 5.2 26.9-.7 7.4-4.7 12.7-7.2 19.3-4 10.4 5 9.3 13.2 10 5.9 18.9 21.7 44 45.2 38.9 16.5-3.6 29.4-22 48.1-16s31.2 24.1 45.2 36.2c12.9-16.8 27-38.9 32.2-59.1-17.4-1.9-34.6-11.9-50.3-19.6-10.1-5-20.2-10.3-18-23.5 4.6-27.8 27.7-53.1 22.9-82.3-6.4-39.1-65.4-40.4-94.9-34.4-13.6 2.5-38.6 7.5-48.4 24z" fill="#fec77c"/><path d="m822.2 410.7c-10.1-5-20.2-10.3-18-23.5 4.6-27.8 27.7-53.1 22.9-82.3-6.4-39.1-65.4-40.4-94.9-34.4-6.1 1.2-14.5 2.9-22.8 5.9.5 7.3.9 14 1.5 19.8 3.6 32.3 7.3 64.6 15.1 96.1 5.5 22.2 13.2 44.3 12.8 67.2-.1 3.4-.3 6.9-.8 10.3 2.9.3 5.8.2 9-.5 16.5-3.6 29.4-22 48.1-16s31.2 24.1 45.2 36.2c12.9-16.8 27-38.9 32.2-59.1-17.3-1.9-34.6-11.9-50.3-19.7z" fill="#7ca588"/><path d="m729.2 322.5c1.6 11 7.7 21.6 11.6 32 4 10.9 4.2 22.4 7.5 33.2.6-3.2 2-7.7 2.7-10.9.5 2.1 1 4.5 2.1 6.4.4-3.8.4-8.1 1.6-11.5 21.1-10.2 27.3 23.5 14.1 26.3 11.6-1.9 25.4-.8 36.3-3.9.3-8.7 11.6-18.3 15.9-25.8 4.2-7.4 5.6-16.6 3.7-24.7-6-25.9-39.8-37.3-65.2-35.5-9.3.6-13.7 3.1-20.3 8.2-2.2 1.7-12.4 4.8-10 6.2z" fill="#092128"/><path d="m830.2 279.7c-7-4.8-15.4-8.8-23.2-12.3-13.7-6.1-29-10.3-43.7-13.1-10.7-2-21.5-1.6-32.3-2.8-15.5-1.8-31.3-.8-46.5-3.9-.2 8.7-3.7 17.5-5.5 26.2-1.3 6.6-1.9 13.4-2.9 20.2-.8 5.3-3.6 16.5-1.7 20.8 15.8-.8 32.6 5.2 47.9 8.1 10.7 2.1 21.6 2.5 32.4 4 17.5 2.5 35.2 6.8 52.4 10 4.1.8 14.9 2.1 15.8 4l19.5-55.1c-4 1.1-8.7-3.7-12.2-6.1z" fill="#e0e9ed"/><path d="m686.7 701.4c-17.9-3.6-36.3-6.4-54.3-4-18.1 2.5-36 11-46.3 26.1-19.2 28.2-4.1 69.3 23.6 89.2 27.6 19.9 63.4 23.8 97.4 25.5 72.5 3.6 145.2.1 217.7-3.4 20.2-1 43.8-3.9 54-21.4 7.3-12.6 4.8-28.3 1.8-42.6-3.6-17-7.8-34.6-18.8-48.1-17.9-22.2-50.2-28.3-78.1-22.4-29 6.2-61.5 40.3-89.2 32.8-36.3-9.7-70.6-24.2-107.8-31.7z" fill="#092128"/><path d="m924 515c-10.1-20.9-16.8-39-33.7-55s-21.7-40.3-44.8-41.4l-26.8-25.3c-19.6 30.2-36.5 62-50.5 95.1 7.8 6.8 16.8 10.2 26.3 14.3 15.1 24.2 25.4 49.6 33.6 76.9 8.1 27.3 10 57.2.8 84.2s-30.7 50.5-58.1 58.2c17.8 21 34.7 40.9 52.5 61.9 8.6-13.9 18.4-27 29.3-39.2 5.9 20.7 11.8 41.5 17.7 62.2 41-6.3 72.6-12.7 112.6-23.4-6-94.5-17.8-183.1-58.9-268.5z" fill="#e2e3e4"/><path d="m938.2 503.4c-10.1-20.9-22.3-41.1-39.1-57.1s-30.4-26.6-53.6-27.7l-26.8-25.3c-8.9 13.7-17.2 27.7-24.9 42 6.7 3.6 21.8 12.4 21.7 13.1-5.2 23.4 12.2 45 25.5 65 25 37.7 38.1 83 37.2 128.2-.3 15.7-2.5 31.9-10.7 45.3-10.4 16.9-29 27.1-48.1 32.7-14.9 4.3-30.7 6.1-46.2 5.2 16.9 20 33.2 39.1 50.2 59.1 8.6-13.9 18.4-27 29.3-39.2 5.9 20.7 11.8 41.5 17.7 62.2 41-6.3 81.4-15 121.5-25.7-6.1-94.6-12.6-192.4-53.7-277.8z" fill="#7ca588"/><path d="m623.5 648.8 76 19.7 31.1-38.9-133.7 1.3z" fill="#f3ac71"/><path d="m730.6 629.6c-15.6 3.6-31.4 32.1-31.4 32.1-9.1-14.4-53-42.1-53-42.1l-150.4-15.6.7 17.3 23.6 11 108.3 40.1 76.7 7.9c7.3-36.9 34.6-43.3 34.6-43.3z" fill="#f8db94"/><path d="m488.2 620.5 82.9 58 155.8 11.5-84.7-54.8z" fill="#092128"/><path d="m724.3 684.9c-.8-1.3-2.3-1.8-3.7-2.2-7.8-2.5-14.3-5.2-22.1-7.7-.1-3.8-2.4-7.2-5.3-9.7-6.6-9.1-20.2-13.6-30.2-16.1-1.9-.5-4 .6-4.1 2.7-.3 3.6 1.1 5.9 3.4 7.5l-11-2.8c-1.4-.4-3-.7-4.3 0-2.3 1.2-1.9 4.9.2 6.6 2 1.6 5.1 3 7.7 3.1-.4 2.3.3 5 1.7 7.1-.1 1.4.2 2.8 1 4.1.5.8 1.1 1.4 1.8 2-2-.1-3.7-.7-4.7-2.4-1.8-3.3-6.4-.8-5.1 2.6 2.1 5.5 7.5 7.2 12.9 7.4 2.8.1 5.6-.1 8.4-.3 6.9 3.4 48.2 14.8 54.5 15.4-.1-4.7-.1-9.4-.2-14.1-.2-1.1-.3-2.2-.9-3.2z" fill="#7ca588"/><path d="m846.5 499.2c4 39.6-.8 80.2-14 117.8-6.4 18.2-15.3 36.5-30.8 48-14.8 11.1-34.1 14.7-52.6 13.7s-36.4-6.3-54.1-11.5c-7.1 19.2-11.5 39.2-9.1 59.5 28.8.7 56.9 8.7 85.6 11.9 28.6 3.2 59.7.9 82.9-16.2 22.4-16.6 33.5-44 43.2-70.1 14.8-39.9 28.7-84.7 11.8-123.7-5.2-12-13.4-23-24.7-29.6s-26.4-5.5-38.2.2z" fill="#7ca588"/><path d="m787.7 700.2c15.4-.8 31.3-3.4 45.2-10.5 11.5-5.9 21.5-14.8 29.2-25.1 15.6-20.7 22.5-46.6 25.7-72 3.5-27.6 2.8-55.6 1.2-83.3-.2-2.6-.3-5.3-.5-7.9-1.2-.9-2.5-1.7-3.8-2.5-11.3-6.6-26.4-5.5-38.2.3 4 39.6-.8 80.2-14 117.8-6.4 18.2-15.3 36.5-30.8 48-14.8 11.1-34.1 14.7-52.6 13.7s-36.4-6.3-54.1-11.5c-2.5 6.8-4.7 13.7-6.4 20.7 32.4 7.6 65.8 14 99.1 12.3z" fill="#e2e3e4"/><path d="m830.2 279.7c-7-4.8-15.4-8.8-23.2-12.3-13.7-6.1-29-10.3-43.7-13.1-8.6-1.6-17.3-1.7-26-2.3-2.1 24.1-4 48.2-5.8 72.3 7.7 1 15.5 1.5 23.3 2.6 17.5 2.5 35.2 6.8 52.4 10 4.1.8 14.9 2.1 15.8 4l19.5-55.1c-4.1 1.1-8.8-3.7-12.3-6.1z" fill="#7ca588"/><path d="m0 0v980h1400v-980zm1371.7 891.9c0 37.8-30.6 68.4-68.4 68.4h-1206.7c-37.8 0-68.4-30.6-68.4-68.4v-803.8c0-37.8 30.6-68.4 68.4-68.4h1206.7c37.8 0 68.4 30.6 68.4 68.4z" fill="#fff"/></svg>