<svg xmlns="http://www.w3.org/2000/svg" xmlns:xlink="http://www.w3.org/1999/xlink" x="0" y="0" enable-background="new 0 0 1400 980" version="1.1" viewBox="0 0 1400 980" xml:space="preserve"><g id="Background"><rect width="1400" height="980" fill="#16173D"/></g><g id="Objects"><g><g><path fill="#FFF" d="M989.6,136.2c0,0-99.9,13.4-99.9,145.9s0,350.4,0,350.4l99.9,53.8l99.9,53.8c0,0,0-217.9,0-350.4 S989.6,136.2,989.6,136.2z"/><path fill="#EE928D" d="M998.7,680.7l-99.9-53.8c0,0,0-217.9,0-350.4c0-72.2,29.6-109,56.6-127.6 c-28.9,16.3-65.7,52.9-65.7,133.3c0,132.6,0,350.4,0,350.4l99.9,53.8l99.9,53.8c0,0,0-3.8,0-10.6L998.7,680.7z"/></g><path fill="#EE928D" d="M989.2,686.1l0.4,0.2l6.6,3.6V144.7c-4.1-5.5-6.6-8.5-6.6-8.5s-0.1,0-0.4,0.1V686.1z"/><path fill="#EE928D" d="M877.2,646.7c0,0-224.6,43.8-399.7,76.4S310.6,825.9,310.6,825.9s185.6,37.1,360.7,4.5 c175.1-32.6,403.3-77.2,403.3-77.2L877.2,646.7z"/><g><g><path fill="#1E276C" d="M628.5,676c5.3-4.1,13.2-6.4,22.3-7.1c9.1-0.7,24.3,2.4,30.6-0.8c6.3-3.1,11.3-1.2,11.3-1.2l78.6,71.9 l-21.1,6.1c-8.4-6-29-19-41.7-11.7c-8.6,5-5.2,15.3-0.2,23.8l-23.1,6.7l-78-84C612,675.4,623.2,680.1,628.5,676z"/><g><path fill="#20538E" d="M644,719.2l41.5-44c0,0,5.2-3,11.3-1.2c6.1,1.8,21.6-4.6,30.7-5.9c9.1-1.3,16.9-0.7,22,2.3 c5.1,3,16.7-4.2,21.1-0.8L738.6,709L644,719.2z"/><path fill="#1F3A7C" d="M644,719.2l15.1,16.3l0,0c-9.7,4.8-19.7,13.1-25,17.8l-20.9-1.6L644,719.2z"/></g><g><path fill="#F3D5C4" d="M691.9,669.9L614,683.1l32.1,33.9l39.3-41.7c0,0,4.5-2.6,10-1.5L691.9,669.9z"/></g><path fill="#DEDEDE" d="M685.4,675.2c0,0,3.6-2.1,8.3-1.7l-2.5-2.2l-74.5,12.4l30.4,32.1L685.4,675.2z"/><path fill="#FFF" d="M685.4,675.2c0,0,3.1-1.8,7.4-1.8c0.6,0,1.3,0,2,0l-2.5-2.2l-74.5,12.4l29.9,31.6L685.4,675.2z"/></g></g><g><path fill="#D9D9D9" d="M635.5,723.7c-0.3-1.7-0.7-3.3-1.4-4.7c-2.7-5.6-10.2-8.3-16-9c-21.9-2.7-57.1-4.2-57.1-4.2l-2.1,23.8 l6.8,20.8c0,0,26.6,1.7,35.2,0.2c6.3-1.1,12.5-2.2,18.7-3.6c3.4-0.8,7-1.5,10.3-2.9c3.7-1.6,5-6.2,5.4-9.9 C635.8,731.1,636,727.2,635.5,723.7z"/><path fill="#C26657" d="M529.5,808.9c0,0-4.1,8.1-3.3,12.2c0.7,4.1,45.4-8.1,45.4-8.1l-10.5-12.4L529.5,808.9z"/><path fill="#9F4745" d="M542.2,584.5c0,0,6.5-2.7,10.4-14.2l8.2,3.3l16.5,22.5c0,0-4.5,10.8-5,21.3L542.2,584.5z"/><path fill="#F0F0F0" d="M579.3,723.6c-16.4-2.4-24.8-47.7-24.8-47.7l9.1-27.5l9.8-7l15.5-3.8l3.9,0.6c0,0,16.6,60.8,17.8,69.4 l16.8,32.6l-27.5,9.8L579.3,723.6z"/><g><path fill="#C26657" d="M621.3,565c0,0-2.2,12.5-4,13.6c-1.7,1-4.8,0.6-5.3,3.4c-0.4,2.8,0.5,13.5-0.9,13.8 c-1.4,0.3-5.1-0.8-5.1-0.8s-8.1,14.5-11.4,15.8c-3.4,1.3-16.7-5-29-28.5c0,0,9.6-11.9,22.8-20.3c13.2-8.4,29.2-5.1,29.2-5.1 l4.9,0.8L621.3,565z"/><path fill="#3A2034" d="M603.9,598.5l2.1-3.6c-9.8-5.6-15.4-1-18.1,2.9c-2.7,3.9-6.4,0.1-8.1-2.6c-2.2-3.5-2.3-7-1.9-10.9 c0.1-0.7,1.3-9.6,2-9.7c0,0-7.7,2.8-7.7,2.8l-2,0.9l-7.7,1.4c0,0,10.9,23.5,22.3,29c9.6,4.6,11,1.1,11,1.1c2-1.6,3.4-4,3.4-4 s-6.6-1.2-4.2-6.8C597.5,593.5,603.9,598.5,603.9,598.5z"/><path fill="#3A2034" d="M622.1,546.2c-4.1-9.1-56.6-18.1-65.8,3.3c-5,11.7-6.7,19.1-5.5,24.9l9,7.1c0,0,18.7-3.5,24.3-8.1 c0,0-0.9,3.5-0.9,3.5c2.1-2.2,0.8,0.5,0.8,0.5s2.8,1,1.3,7.3l11,0.1c0,0-0.4-9,9.3-12.5c9.8-3.5,14.5-1.7,14.5-1.7 S626.2,555.3,622.1,546.2z"/><path fill="#FFF" d="M624.5,547.5c-1.7-4.7-6.4-15-16.9-21.4c-21-12.7-51.2-1.9-55.2,25.7c-0.6,3.8-1.7,7.8-2,12.4 c-0.1,1.5,1.1,2.7,2.4,2.4c9-1.6,40.1-7.4,70.1-16C624.3,550.3,625,548.8,624.5,547.5z"/><path fill="#C26657" d="M589.2,579.9c0,0-1.2-9-7.4-6.7c-6.2,2.3-4.2,18,1.7,16C589.3,587.3,589.2,579.9,589.2,579.9z"/></g><path fill="#FFF" d="M677.7,754.5c-0.8-10-14.9-13.2-14.9-13.2l-60.4-7.2c0,0-122.7,31.9-122.9,31.9c-0.9,0.2-0.5,2.7,0.4,5.8 c1.1,10,5,30.1,19,38.3c18.9,11,42.9,9.8,63.6-1.1c2.6,6,4.1,6.7,4.1,6.7c8.7-1.5,95.4-30.7,102.2-34.8 C675.6,776.8,678.5,764.5,677.7,754.5z"/><path fill="#F0F0F0" d="M585.6,741.8c0,0-16.8,2.8-34.8,5.7c-33.6,8.7-71.2,18.5-71.3,18.5c-0.9,0.2-0.5,2.7,0.4,5.8 c0.1,0.5,0.1,1.1,0.2,1.7c5.5,9.4,20,26,53.5,22.7C579.8,791.7,585.6,741.8,585.6,741.8z"/><path fill="#FFF" d="M532.5,585.1c0,0,9.1-4.2,12.8-2.9c3.7,1.3,29.6,25.5,30.9,30.7c1.3,5.2,1.2,11.5,1.2,11.5 s12.5,9.1,15.3,13.7c0,0-35.7,6.4-30.9,54.9c0,0,14,21,17.7,29c3.7,8,12.3,18.2,22.9,12.1c0,0-8.8,62.3-67.9,58.3 c0,0-42.1,0.1-54.9-26.4c0,0,2.2-18.4,7.7-33.1c5.5-14.7,4.1-16.7-3.2-49.3c-7.2-32.6,5.6-71.3,13.5-85.6 C505.5,583.7,510.6,580.9,532.5,585.1z"/><path fill="#F0F0F0" d="M562.5,809l94-36.7C656.5,772.3,587.9,792.6,562.5,809z"/><path fill="#F0F0F0" d="M527.8,722.1c-31.2-7.5-41.4-28.4-41.4-28.4c5.2,23.1,5.8,26.2,0.9,39.2c-5.5,14.7-7.7,33.1-7.7,33.1 s4.9-24.2,10.2-33.4C495.1,723.4,527.8,722.1,527.8,722.1z"/><path fill="#F0F0F0" d="M576.3,612.9c-1.3-5.2-27.2-29.4-30.9-30.7c-3.7-1.3-12.8,2.9-12.8,2.9s23.2,30,44.9,39.3 C577.4,624.4,577.6,618,576.3,612.9z"/></g><path fill="#EE928D" d="M898.9,268.5c-0.1,2.5-0.1,5-0.1,7.5l188.4,78.9c-0.3-2.7-0.7-5.4-1.1-8L898.9,268.5z"/><path fill="#EE928D" d="M898.8,411.4l190.7,79.9c0-2.5,0-5,0-7.6l-190.7-79.9C898.8,406.3,898.8,408.9,898.8,411.4z"/><path fill="#EE928D" d="M898.8,548.7l190.7,79.9c0-2.5,0-5,0-7.6l-190.7-79.9C898.8,543.8,898.8,546.3,898.8,548.7z"/><g><path fill="#1C1D4E" d="M1089.5,622.4c0-2.5,0-5,0-7.6l-99-41.5V443.5l99,41.5c0-2.5,0-5,0-7.6l-99-41.5V308.1l95.9,40.2 c-0.4-2.7-0.8-5.4-1.3-8.1l-94.6-39.6V137.2c-0.5-0.7-0.9-1.1-0.9-1.1s-2.3,0.3-6.1,1.3v160.2l-92.7-38.8 c-0.2,2.4-0.4,4.8-0.6,7.3l93.2,39.1v127.8l-93.8-39.3c0,2.5,0,5,0,7.6l93.8,39.3v129.8l-93.8-39.3c0,2.5,0,5.1,0,7.6l93.8,39.3 V683l6.1,3.3l0.9,0.5V580.9L1089.5,622.4z"/></g></g></g></svg>