<svg id="Capa_1" enable-background="new 0 0 512 512" height="512" viewBox="0 0 512 512" width="512" xmlns="http://www.w3.org/2000/svg"><g><path d="m211 211c0-5.376.483-10.708 1.436-15.923-19.219 13.682-31.436 36.065-31.436 60.923 0 41.353 33.647 75 75 75 24.858 0 47.241-12.217 60.923-31.436-5.215.953-10.547 1.436-15.923 1.436-49.629 0-90-40.371-90-90z"/><path d="m442 179.491v-94.491c0-8.291-6.709-15-15-15h-94.491l-65.904-65.605c-5.859-5.859-15.352-5.859-21.211 0l-65.903 65.605h-94.491c-8.291 0-15 6.709-15 15v94.491l-65.605 65.904c-5.859 5.859-5.859 15.352 0 21.211l65.605 65.903v94.491c0 8.291 6.709 15 15 15h94.491l65.903 65.605c2.93 2.93 6.768 4.395 10.605 4.395s7.676-1.465 10.605-4.395l65.905-65.605h94.491c8.291 0 15-6.709 15-15v-94.491l65.605-65.903c5.859-5.859 5.859-15.352 0-21.211zm-163 16.509h7v-8c0-8.291 6.709-15 15-15s15 6.709 15 15v8h8c8.291 0 15 6.709 15 15s-6.709 15-15 15h-8v7.5c0 8.291-6.709 14.5-15 14.5s-15-6.209-15-14.5v-7.5h-7c-8.291 0-15-6.709-15-15s6.709-15 15-15zm-23 165c-57.891 0-105-47.109-105-105 0-50.757 36.313-94.146 86.338-103.154 6.094-1.084 12.085 1.582 15.337 6.738 3.267 5.142 3.091 11.763-.454 16.729-7.339 10.312-11.221 22.294-11.221 34.687 0 33.091 26.909 60 60 60 12.393 0 24.374-3.882 34.688-11.221 4.937-3.53 11.558-3.721 16.729-.454 5.156 3.267 7.822 9.331 6.738 15.337-9.009 50.025-52.398 86.338-103.155 86.338z"/></g></svg>