<svg id="Capa_1" enable-background="new 0 0 512 512" height="512" viewBox="0 0 512 512" width="512" xmlns="http://www.w3.org/2000/svg"><g><path d="m442 179.511v-94.511c0-8.284-6.716-15-15-15h-94.511l-65.905-65.629c-5.854-5.828-15.316-5.828-21.169 0l-65.904 65.629h-94.511c-8.284 0-15 6.716-15 15v94.511l-65.629 65.905c-5.828 5.853-5.828 15.316 0 21.169l65.629 65.904v94.511c0 8.284 6.716 15 15 15h94.511l65.904 65.629c2.927 2.914 6.756 4.371 10.585 4.371s7.658-1.457 10.584-4.371l65.905-65.629h94.511c8.284 0 15-6.716 15-15v-94.511l65.629-65.904c5.828-5.853 5.828-15.316 0-21.169zm-25.629 136.198c-2.799 2.812-4.371 6.617-4.371 10.584v85.707h-85.706c-3.967 0-7.773 1.572-10.584 4.371l-59.71 59.46-59.709-59.46c-2.812-2.799-6.617-4.371-10.584-4.371h-85.707v-85.706c0-3.967-1.572-7.773-4.371-10.584l-59.46-59.71 59.46-59.709c2.799-2.812 4.371-6.617 4.371-10.584v-85.707h85.706c3.967 0 7.773-1.572 10.584-4.371l59.71-59.46 59.71 59.46c2.812 2.799 6.617 4.371 10.584 4.371h85.706v85.706c0 3.967 1.572 7.773 4.371 10.584l59.46 59.71z"/><path d="m352.416 259.322c-5.152-3.265-11.769-3.084-16.735.456-10.3 7.342-22.292 11.222-34.681 11.222-33.084 0-60-26.916-60-60 0-12.389 3.88-24.381 11.222-34.68 3.541-4.967 3.721-11.583.456-16.735s-9.326-7.816-15.328-6.734c-50.035 9.006-86.35 52.387-86.35 103.149 0 57.897 47.103 105 105 105 50.762 0 94.143-36.315 103.149-86.351 1.081-6.003-1.581-12.062-6.733-15.327zm-96.416 71.678c-41.355 0-75-33.645-75-75 0-24.865 12.215-47.249 31.431-60.924-.949 5.222-1.431 10.546-1.431 15.924 0 49.626 40.374 90 90 90 5.378 0 10.702-.482 15.925-1.431-13.676 19.216-36.06 31.431-60.925 31.431z"/><path d="m278.5 226h7.5v7.5c0 8.284 6.716 15 15 15s15-6.716 15-15v-7.5h7.5c8.284 0 15-6.716 15-15s-6.716-15-15-15h-7.5v-7.5c0-8.284-6.716-15-15-15s-15 6.716-15 15v7.5h-7.5c-8.284 0-15 6.716-15 15s6.716 15 15 15z"/></g></svg>