<svg id="Capa_1" enable-background="new 0 0 512 512" height="512" viewBox="0 0 512 512" width="512" xmlns="http://www.w3.org/2000/svg"><g><path d="m507.499 245.499-65.499-65.999v-94.5c0-8.099-6.899-15-15-15h-94.5l-66-65.501c-2.7-2.999-6.6-4.499-10.5-4.499s-7.8 1.5-10.499 4.499l-66.001 65.501h-94.5c-8.101 0-15 6.901-15 15v94.5l-65.499 65.999c-6 5.7-6 15.3 0 21l65.499 66.001v94.5c0 8.101 6.899 15 15 15h94.5l66 65.499c2.7 3.001 6.6 4.501 10.5 4.501s7.8-1.5 10.499-4.501l66-65.499h94.501c8.101 0 15-6.899 15-15v-94.5l65.499-66c6.001-5.701 6.001-15.301 0-21.001z" fill="#613d5c"/><path d="m507.499 266.499-65.499 66.001v94.5c0 8.101-6.899 15-15 15h-94.5l-66 65.499c-2.7 3.001-6.6 4.501-10.5 4.501v-512c3.9 0 7.8 1.5 10.499 4.499l66.001 65.501h94.5c8.101 0 15 6.901 15 15v94.5l65.499 65.999c6.001 5.7 6.001 15.3 0 21z" fill="#4b2746"/><path d="m475.699 256-63.699 64.2v91.8h-91.8l-64.2 63.699-64.2-63.699h-91.8v-91.8l-63.699-64.2 63.699-64.2v-91.8h91.8l64.2-63.701 64.2 63.701h91.8v91.8z" fill="#ff6c6c"/><path d="m475.699 256-63.699 64.2v91.8h-91.8l-64.2 63.699v-439.4l64.2 63.701h91.8v91.8z" fill="#e63950"/><path d="m323.5 196h-7.5v-7.5c0-8.291-6.709-15-15-15s-15 6.709-15 15v7.5h-7.5c-8.291 0-15 6.709-15 15s6.709 15 15 15h7.5v7.5c0 8.291 6.709 15 15 15s15-6.709 15-15v-7.5h7.5c8.291 0 15-6.709 15-15s-6.709-15-15-15z" fill="#efe2dd"/><path d="m352.416 259.325c-5.171-3.281-11.792-3.091-16.729.454-10.313 7.339-22.294 11.221-34.687 11.221-18.007 0-33.995-8.134-45-20.729-9.219-10.552-15-24.186-15-39.271 0-12.393 3.882-24.375 11.221-34.688 3.545-4.966 3.721-11.587.454-16.729-3.252-5.156-9.243-7.822-15.337-6.738-50.025 9.009-86.338 52.398-86.338 103.155 0 57.891 47.109 105 105 105 50.757 0 94.146-36.313 103.154-86.338 1.084-6.006-1.582-12.07-6.738-15.337z" fill="#fff5f5"/><path d="m359.154 274.662c1.084-6.006-1.582-12.07-6.738-15.337-5.171-3.281-11.792-3.091-16.729.454-10.313 7.339-22.294 11.221-34.687 11.221-18.007 0-33.995-8.134-45-20.729v110.729c50.757 0 94.146-36.313 103.154-86.338z" fill="#efe2dd"/></g></svg>